<svg width="14" height="11" viewBox="0 0 14 11" fill="none" xmlns="http://www.w3.org/2000/svg">
<path d="M13.7617 1.84847L5.14891 10.2678C5.0739 10.3414 4.98476 10.3998 4.88661 10.4397C4.78847 10.4795 4.68324 10.5 4.57697 10.5C4.4707 10.5 4.36547 10.4795 4.26732 10.4397C4.16917 10.3998 4.08004 10.3414 4.00502 10.2678L0.236908 6.58437C0.161799 6.51095 0.102219 6.42378 0.0615703 6.32785C0.0209216 6.23192 1.11921e-09 6.1291 0 6.02527C-1.11921e-09 5.92143 0.0209216 5.81862 0.0615703 5.72269C0.102219 5.62676 0.161799 5.53959 0.236908 5.46617C0.312017 5.39275 0.401184 5.33451 0.499319 5.29477C0.597453 5.25503 0.702634 5.23458 0.808854 5.23458C0.915074 5.23458 1.02025 5.25503 1.11839 5.29477C1.21652 5.33451 1.30569 5.39275 1.3808 5.46617L4.57764 8.5912L12.6192 0.731586C12.7709 0.583304 12.9766 0.5 13.1911 0.5C13.4057 0.5 13.6114 0.583304 13.7631 0.731586C13.9148 0.879869 14 1.08098 14 1.29069C14 1.50039 13.9148 1.7015 13.7631 1.84978L13.7617 1.84847Z" fill="#FAFAFA"/>
</svg>
