<svg width="23" height="18" viewBox="0 0 23 18" fill="none" xmlns="http://www.w3.org/2000/svg">
<path d="M10.0886 2.92578H5.04956L3.46753 1.00391H10.4285L11.3191 1.97656L10.0886 2.92578ZM4.70972 3.16016L3.90112 7.77734L2.81128 8.73828L1.97925 7.77734L3.12769 1.26172L4.70972 3.16016ZM8.84644 9.95703H3.85425L3.03394 9.01953L4.19409 8.03516H9.18628L10.03 9.01953L8.84644 9.95703ZM3.47925 10.1562L2.64722 14.832L0.408936 16.6602L1.52222 10.332L2.7644 9.28906L3.47925 10.1562ZM2.98706 15.0781H7.94409L8.78784 16.0625L7.60425 17H0.631592L2.98706 15.0781ZM14.9463 1.84766L13.8564 8.04688L12.7549 8.99609L11.9346 8.04688L13.0244 1.84766L14.1963 0.839844L14.9463 1.84766ZM16.5049 1.84766L19.1533 6.48828L18.8721 8.03516H17.8408L15.1221 3.3125L15.3799 1.84766H16.5049ZM22.3057 1.84766L21.2158 8.04688L20.0674 8.99609L19.2939 8.04688L20.3955 1.84766L21.5088 0.839844L22.3057 1.84766ZM13.5166 9.95703L12.4385 16.1094L11.3135 17.1641L10.5166 16.1094L11.5947 9.95703L12.7549 8.99609L13.5166 9.95703ZM20.876 9.95703L19.7978 16.1094L18.626 17.1641L17.876 16.1094L18.9541 9.95703L20.0674 8.99609L20.876 9.95703Z" fill="#989592"/>
</svg>
