<svg width="800" height="85" viewBox="0 0 800 85" fill="none" xmlns="http://www.w3.org/2000/svg">
<path d="M800 38L800 53.3221L397.333 85L-2.4555e-05 54.315L-2.39033e-05 39.4065L397.333 71.1765L800 38Z" fill="#F2B705"/>
<path d="M800 26L800 41.3221L397.333 73L-2.4555e-05 42.315L-2.39033e-05 27.4065L397.333 59.1765L800 26Z" fill="#F2B705"/>
<path d="M800 3.05176e-05L800 15.3221L397.333 47L-2.4555e-05 16.315L-2.39033e-05 1.40646L397.333 33.1765L800 3.05176e-05Z" fill="#F2B705"/>
<path d="M800 14L800 28.9961L397.333 60L-2.45398e-05 29.9679L-2.3902e-05 15.3765L397.333 46.4706L800 14Z" fill="#F2B705"/>
</svg>
