<svg width="22" height="17" viewBox="0 0 22 17" fill="none" xmlns="http://www.w3.org/2000/svg">
<path d="M10.0156 1.92578H5.03516L3.42969 0.00390625H10.3555L11.2578 0.941406L10.0156 1.92578ZM4.63672 2.13672L3.82812 6.74219L2.75 7.70312L1.90625 6.74219L3.05469 0.226562L4.63672 2.13672ZM4.13281 7.03516H9.11328L9.96875 7.97266L8.77344 8.95703H3.79297L2.97266 8.01953L4.13281 7.03516ZM3.40625 9.13281L2.35156 15.1445L1.26172 16.1641L0.429688 15.1445L1.46094 9.28516L2.65625 8.25391L3.40625 9.13281ZM19.7834 1.92578H15.0373L13.4436 0.00390625H19.8303C20.2053 0.00390625 20.4827 0.0976562 20.6623 0.285156L21.1428 0.824219L19.7834 1.92578ZM14.6389 2.20703L13.8303 6.8125L12.7639 7.66797L11.9084 6.8125L13.0569 0.285156L14.6389 2.20703ZM19.2678 6.8125L20.0764 2.20703L21.4123 1.11719L21.7053 1.43359C21.8928 1.63672 21.9866 1.87109 21.9866 2.13672C21.9866 2.22266 21.9709 2.36328 21.9397 2.55859L21.3069 6.10938C21.2522 6.48438 21.1077 6.79297 20.8733 7.03516L20.0295 7.73828L19.2678 6.8125ZM14.217 7.03516H18.9397L19.7248 7.99609L18.9397 8.6875C18.8069 8.80469 18.6741 8.87891 18.5413 8.91016C18.4163 8.94141 18.1858 8.95703 17.8498 8.95703H13.842L12.9866 7.99609L14.217 7.03516ZM13.4084 9.15625L12.3538 15.168L11.2639 16.1641L10.4319 15.168L11.4514 9.35547L12.6584 8.27734L13.4084 9.15625ZM15.178 9.35547L19.7834 14.7812L19.5373 16.1641H18.4006L13.6077 10.4805L13.8069 9.35547H15.178Z" fill="#FAFAFA"/>
</svg>
