<svg width="80" height="41" viewBox="0 0 80 41" fill="none" xmlns="http://www.w3.org/2000/svg">
<g clip-path="url(#clip0_1633_7432)">
<path d="M35.7827 29.953C35.2875 27.4571 34.5742 25.1562 33.6358 23.0519L28.3927 23.019C28.3251 25.3152 27.8685 27.9649 27.0263 30.9678C26.1896 33.9529 25.1344 36.73 23.8567 39.3089L28.3471 39.0851C28.7229 38.2977 29.0141 37.7223 29.2204 37.3604L30.7445 37.2936C31.1068 37.2904 31.6165 37.2742 32.2736 37.2453C32.1938 37.6629 32.1482 38.2135 32.1376 38.8961L36.0877 38.6995C36.5392 36.1834 36.4414 33.2786 35.7823 29.9526L35.7827 29.953ZM31.7124 29.6058C32.0107 30.4331 32.2233 31.9122 32.2874 33.0769L30.6906 33.1414C31.0632 32.0056 31.5576 30.4893 31.7128 29.6058H31.7124Z" fill="#FAFAFA"/>
<path d="M53.0653 29.8193C53.239 28.778 53.2638 27.6113 53.1396 26.3133C53.0661 25.4223 52.791 24.6729 52.3119 24.0642C51.8301 23.4524 51.2559 23.1487 50.5898 23.1574L43.7127 23.134C44.0322 25.6453 44.0762 28.3876 43.8495 31.3612C43.6251 34.3028 43.2022 36.6405 42.5789 38.3949L46.5388 38.1975C47.0359 36.6817 47.3979 35.1614 47.6258 33.6337C47.9095 34.1312 48.1127 34.7466 48.2338 35.479C48.3473 36.1596 48.4083 37.0352 48.4169 38.1034L52.0431 37.9223C52.2278 36.6919 52.2432 35.5779 52.0883 34.5805C51.9952 33.9762 51.8278 33.3667 51.5857 32.7506C52.3402 32.276 52.8319 31.3011 53.0649 29.8193H53.0653ZM49.1192 28.9911C48.7557 28.9971 47.917 29.0208 47.4902 29.0271C47.5146 28.7495 47.524 28.1226 47.5543 27.8059C47.9905 27.7877 48.6771 27.8102 49.0233 27.8059C49.1223 27.8047 49.3428 27.9989 49.3798 28.3457C49.3864 28.409 49.3927 28.4904 49.3888 28.5913C49.3778 28.8428 49.2886 28.9765 49.1192 28.9911Z" fill="#FAFAFA"/>
<path d="M62.034 26.0441C62.034 25.8262 62.0226 25.6198 61.9982 25.4256C61.9106 24.7204 61.6897 24.1735 61.3344 23.7863C60.9768 23.3975 60.5304 23.2073 59.9935 23.216L55.5066 23.1875C54.7623 23.1832 54.2133 23.5779 53.8619 24.3708C53.5746 25 53.452 25.7914 53.4952 26.7413C53.5424 27.8495 53.467 29.2372 53.2716 30.903C53.103 32.3512 52.8947 33.6536 52.6475 34.8127C52.5069 35.4704 52.475 36.0439 52.5505 36.5327C52.6994 37.4957 53.2146 37.9525 54.0946 37.9082L58.3366 37.6954C58.9462 37.6645 59.4858 37.4403 59.9574 37.0223C60.4934 36.5556 60.862 35.8884 61.0644 35.0172C61.7459 32.1662 62.0705 29.1811 62.034 26.0429V26.0441ZM57.4367 33.1122C57.037 33.1252 56.8208 33.024 56.791 32.8092C56.7776 32.7139 56.7858 32.6055 56.8153 32.4845C57.0869 31.1403 57.2236 29.8605 57.224 28.6436C57.2201 28.2038 57.3026 27.9835 57.472 27.9808C57.5487 27.9922 57.6426 27.9942 57.7542 27.9867C57.8658 27.9796 57.9542 27.9752 58.0195 27.9744C58.225 27.9717 58.3555 28.1777 58.4109 28.5894C58.4714 29.0375 58.4459 29.673 58.3335 30.496C58.2568 31.1593 58.159 31.7379 58.0411 32.2322C57.8898 32.8231 57.6886 33.1153 57.4367 33.1118V33.1122Z" fill="#FAFAFA"/>
<path d="M70.1109 29.3201C69.8861 27.1288 69.4817 25.1122 68.8942 23.2713L64.8923 23.2463C64.6954 25.2506 64.1802 27.5654 63.3478 30.1906C62.5201 32.8024 61.5376 35.2322 60.3991 37.4884L63.8394 37.3168C64.1766 36.6263 64.4352 36.1224 64.6168 35.8049L65.7871 35.7535C66.0642 35.7527 66.4564 35.7412 66.9618 35.7194C66.875 36.0864 66.8054 36.5705 66.7535 37.1716L69.8013 37.0198C70.3059 34.8039 70.4112 32.2455 70.1109 29.3201ZM65.887 32.1126C66.2434 31.1168 66.7347 29.8655 66.9092 29.0916C67.0856 29.8181 67.3808 31.0259 67.3564 32.0486L65.8874 32.113L65.887 32.1126Z" fill="#FAFAFA"/>
<path d="M79.3689 26.1288C79.3472 25.3268 79.1547 24.6497 78.7907 24.0964C78.4241 23.5404 77.9757 23.2651 77.4447 23.2738L71.9073 23.2556C72.1176 25.0978 72.0288 27.4794 71.644 30.3901C71.275 33.2138 70.783 35.4226 70.166 37.0354L75.5976 36.7803C76.1207 36.7538 76.6336 36.4845 77.1382 35.9723C77.642 35.4614 78.0106 34.8152 78.2445 34.0337C78.7125 32.5415 79.0277 31.2285 79.19 30.0927C79.3527 28.9529 79.4129 27.6332 79.3689 26.1292V26.1288ZM75.0942 32.4933L74.4402 32.5138C74.8281 30.8797 75.0462 29.2741 75.0938 27.6961C75.3614 27.6818 75.574 27.6961 75.732 27.74C76.0048 27.8044 76.1419 28.0856 76.1447 28.5832C76.1498 29.3943 76.0806 30.1817 75.9376 30.9462C75.7446 31.9669 75.4644 32.481 75.0942 32.4933Z" fill="#FAFAFA"/>
<path d="M26.7071 11.5326C26.6663 12.5624 26.5869 13.5586 26.469 14.5228C26.1526 17.1045 25.5611 19.6384 24.6855 22.1311L19.1902 22.1342C19.0307 19 18.7646 16.4377 18.3932 14.4295C18.2832 15.0567 18.1519 15.6776 17.9978 16.291C17.8434 16.9068 17.661 17.5561 17.4516 18.2399C17.2409 18.9265 17.0146 19.6221 16.7721 20.3265C16.528 21.0344 16.3209 21.6379 16.1507 22.1358L10.0907 22.1398C10.1205 20.4665 10.0742 18.7007 9.95077 16.8431C9.82815 14.9962 9.60846 13.1169 9.29328 11.2023C8.97888 9.2965 8.53557 7.37841 7.96258 5.4453C7.39076 3.51614 6.68768 1.70206 5.85098 -0.000488281L11.7802 0.588384C12.1527 1.30579 12.488 2.02438 12.7863 2.74495C13.0838 3.46552 13.3463 4.18608 13.5738 4.90744C13.8014 5.6292 13.9947 6.32366 14.1559 6.98965C14.1842 5.98315 14.1826 3.91953 14.1519 0.823696L19.0354 1.30856C20.4624 4.51315 21.4728 6.95485 22.0682 8.63802C22.0509 7.61966 21.9597 6.55541 21.7942 5.44451C21.6296 4.33676 21.3651 3.02297 21.0016 1.50353L25.8359 1.98325C26.0838 3.09653 26.278 4.19004 26.4191 5.26535C26.5609 6.34344 26.6549 7.40016 26.7001 8.43554C26.746 9.47565 26.7488 10.5075 26.7079 11.5326H26.7071Z" fill="#FAFAFA"/>
<path d="M37.179 15.7646C37.1279 17.5039 37.0521 18.9233 36.9495 20.016C36.9181 20.3451 36.8383 21.087 36.7082 22.2446C35.6381 22.2374 34.7688 22.2323 34.1054 22.2291C33.4365 22.226 32.8175 22.2232 32.2496 22.222C31.6774 22.2208 31.1036 22.2192 30.5283 22.2181C29.9494 22.2161 29.0199 22.2121 27.7305 22.2054C27.9632 20.2173 28.0484 18.0085 27.9907 15.5811C27.9333 13.1762 27.7525 10.7882 27.4483 8.41297C27.1461 6.05313 26.7488 3.91081 26.2552 1.97729C27.1037 2.06549 27.9121 2.14893 28.682 2.22724C29.4467 2.30515 30.1699 2.37752 30.8533 2.44594C31.5316 2.51357 32.1341 2.57329 32.6631 2.62589C33.1889 2.67809 33.9796 2.76035 35.0289 2.87227C35.2946 3.78623 35.499 4.50838 35.642 5.03912C35.7858 5.57025 35.925 6.12867 36.0606 6.71556C36.1965 7.30246 36.3667 8.09935 36.5722 9.10744C35.4946 8.9884 34.6674 8.90179 34.0971 8.84721C33.5233 8.79263 32.939 8.74518 32.3436 8.70444C32.3546 8.81518 32.3699 8.95755 32.3903 9.13196C32.4108 9.30676 32.4292 9.48868 32.4453 9.67891C33.6381 9.75405 34.9161 9.85055 36.2747 9.96761C36.4677 11.5907 36.6108 13.2663 36.7019 14.9977L32.8973 14.8581L32.9464 15.6744C33.4377 15.6906 33.8554 15.7009 34.1997 15.7061C34.5428 15.7112 34.9126 15.7183 35.3091 15.7274C35.7037 15.7365 36.3294 15.7488 37.1794 15.7646H37.179Z" fill="#FAFAFA"/>
<path d="M52.9816 14.9341C52.9262 13.8659 52.8047 12.791 52.6177 11.7089C52.431 10.6308 52.1602 9.42185 51.8065 8.08235C51.6269 7.41003 51.3707 6.78438 51.0366 6.20342C50.7026 5.62245 50.3296 5.15499 49.917 4.80143C49.5031 4.44669 49.0897 4.24855 48.6767 4.20742C47.2516 4.07968 45.0784 3.87126 42.1037 3.57544C42.4645 4.69505 42.7832 6.00647 43.0607 7.51404C43.3393 9.02676 43.5665 10.6099 43.7429 12.2658C43.9206 13.9307 44.0353 15.5439 44.0884 17.1072C44.1414 18.6809 44.1241 20.056 44.0361 21.2298C44.0027 21.6778 43.974 21.9974 43.9493 22.1888C44.6295 22.192 45.2768 22.1939 45.8923 22.1951C46.5034 22.1963 47.072 22.1971 47.5979 22.1963C48.1206 22.1955 48.5808 22.1951 48.9801 22.1943C49.3782 22.1943 49.9402 22.1975 50.6633 22.2038C51.2811 22.203 51.8112 21.8605 52.2557 21.1803C52.6967 20.506 52.9439 19.6324 52.9993 18.5602C53.0441 17.214 53.0382 16.0062 52.982 14.9337L52.9816 14.9341ZM47.2021 9.71648C47.5829 9.74298 47.8486 9.78253 48.0019 9.83592C48.1992 9.90038 48.354 10.0261 48.4668 10.214C48.58 10.4019 48.6751 10.6629 48.7525 10.9963C48.8936 11.5907 49.017 12.2851 49.1235 13.0801C49.23 13.8766 49.2673 14.5477 49.2328 15.0935C49.1876 15.8314 49.004 16.1965 48.6841 16.1862L47.8742 16.1597C47.871 15.3715 47.8498 14.6489 47.8121 13.9908C47.7743 13.334 47.7056 12.6601 47.6057 11.9703C47.5059 11.2818 47.3711 10.5304 47.2021 9.71609V9.71648Z" fill="#FAFAFA"/>
<path d="M61.5879 19.1104C61.4928 15.7294 61.0393 12.2124 60.2305 8.54467C60.0823 7.86721 59.878 7.2811 59.6186 6.78517C59.3592 6.28884 59.0621 5.90404 58.7288 5.62957C58.394 5.35511 58.0383 5.19889 57.6614 5.16172L53.5239 4.7516C52.6943 4.66934 52.2431 5.22539 52.1759 6.42528C52.141 7.05766 52.218 7.80591 52.409 8.67043C52.6075 9.56462 52.7819 10.5861 52.9321 11.7358C53.083 12.8898 53.2025 14.0648 53.2897 15.2611C53.3785 16.463 53.4288 17.477 53.4418 18.3016C53.4579 19.0056 53.544 19.6565 53.6984 20.2533C53.8537 20.8513 54.0914 21.3365 54.4113 21.7087C54.7308 22.08 55.1223 22.2655 55.5848 22.2647L59.661 22.2584C60.0029 22.2576 60.3158 22.1615 60.5999 21.9693C60.8837 21.7783 61.1147 21.4789 61.2936 21.0708C61.4716 20.6646 61.5694 20.154 61.5875 19.5395C61.5926 19.3552 61.5926 19.2124 61.5875 19.1108L61.5879 19.1104ZM57.5306 11.4084C57.6866 12.0241 57.8033 12.7356 57.8819 13.544C57.9613 14.3547 58.0002 15.0128 57.9994 15.5186C57.9821 15.9623 57.9464 16.2443 57.8929 16.3633C57.8387 16.4828 57.7644 16.5409 57.6705 16.5381C57.4174 16.5156 57.2315 16.4602 57.1128 16.3717C56.9945 16.2835 56.9261 16.0707 56.9077 15.7361C56.8369 14.1297 56.6593 12.6158 56.3736 11.1889C56.3166 10.8705 56.2891 10.6842 56.2918 10.6289C56.2969 10.5086 56.3488 10.4418 56.4459 10.4276L56.9588 10.4624C57.1847 10.4778 57.3753 10.7926 57.5306 11.4087V11.4084Z" fill="#FAFAFA"/>
<path d="M70.6808 20.5512C70.6768 21.2409 70.6666 21.7515 70.6493 22.0817C70.164 22.0817 69.5403 22.0888 68.7751 22.1031C68.0021 22.1173 67.3418 22.1244 66.7964 22.1244C66.1416 18.8558 65.6594 16.6446 65.3458 15.4728C65.5171 17.4127 65.5867 19.2576 65.5533 21.0072C65.5443 21.4976 65.5329 21.8713 65.5199 22.1256L62.438 22.128C62.4883 20.2368 62.4576 18.3939 62.3468 16.5948C62.2364 14.8084 62.0127 12.9817 61.6775 11.1111C61.3443 9.25032 60.8734 7.35438 60.2647 5.41968L64.5853 5.84759C65.0039 6.73228 65.3576 7.49556 65.6456 8.13862C65.9345 8.78088 66.2072 9.41642 66.465 10.0444C66.7233 10.6733 66.9606 11.289 67.1787 11.8917C66.8537 10.4004 66.2894 8.40201 65.4865 5.899L68.3416 6.18256C68.7806 7.3781 69.1524 8.59777 69.4562 9.84275C69.7608 11.0909 70.0044 12.3291 70.1864 13.5583C70.3691 14.7926 70.4988 15.987 70.5747 17.1418C70.6513 18.3025 70.6871 19.4391 70.6808 20.5512Z" fill="#FAFAFA"/>
<path d="M73.1087 11.5038C73.1087 11.8206 73.0914 12.4597 73.0568 13.4227C72.4799 13.3807 72.0323 13.3499 71.7159 13.3289C71.398 13.3084 70.9409 13.2748 70.3432 13.2285C70.3699 12.7836 70.3848 12.3292 70.3872 11.8653C70.3844 9.56592 70.1357 7.69648 69.6413 6.23755L72.2755 6.50094C72.8293 7.88948 73.1067 9.55248 73.1083 11.5038H73.1087Z" fill="#FAFAFA"/>
<path d="M78.988 16.9383C79.1389 18.5728 79.2411 20.2971 79.2926 22.1144L76.7361 22.1172C76.6717 20.78 76.5982 19.5536 76.5156 18.4352C76.4331 17.3223 76.3286 16.2296 76.2001 15.1563C76.0723 14.0873 75.9112 12.9843 75.7167 11.8473C75.0498 11.803 74.4614 11.8002 73.9537 11.8409C73.9065 11.6428 73.8138 11.2489 73.677 10.6589C73.5398 10.07 73.4278 9.59817 73.341 9.24342C73.2534 8.88868 73.1488 8.49438 73.0266 8.06252C72.904 7.62986 72.7562 7.13827 72.5833 6.58618C72.9743 6.63127 73.4573 6.68466 74.0287 6.74635C74.5966 6.80686 75.1555 6.8646 75.7061 6.91918C76.2523 6.97375 76.7141 7.02003 77.0922 7.05918C77.4683 7.09794 78.0287 7.15765 78.7683 7.23675C79.2608 8.63952 79.6644 10.2515 79.9799 12.079C79.6982 12.0335 79.3967 11.9999 79.0741 11.9782C78.9692 11.977 78.8383 11.9742 78.6811 11.9699C78.5235 11.9647 78.395 11.9639 78.2952 11.9659C78.6056 13.6586 78.8363 15.3157 78.9868 16.9395L78.988 16.9383Z" fill="#FAFAFA"/>
<path d="M14.8358 23.2571C14.8381 23.4153 14.8472 23.6087 14.8358 23.7712C14.7768 24.6195 14.6008 25.4666 14.1677 26.4605C13.8022 27.3056 13.2461 28.2089 12.6743 29.0311C12.3988 29.0351 12.2235 29.0291 11.7055 29.0414C11.1864 29.0537 10.7781 29.0612 10.4809 29.0651C10.7997 27.9665 11.1341 26.78 11.2202 26.3023C10.8441 27.1059 10.2534 28.2983 9.71184 29.0762L7.87024 29.1011C9.30155 26.9675 10.0844 25.032 10.2451 23.2741H12.7619C12.9317 24.1105 12.9474 25.1032 12.9494 25.6695C13.0861 25.1352 13.2524 24.1418 13.3074 23.2741L14.8358 23.2571Z" fill="#FAFAFA"/>
<path d="M17.1109 25.0696C17.0826 25.1589 16.9918 25.3729 16.958 25.4718C17.3239 25.4654 17.6575 25.4607 18.3335 25.4718C18.1905 25.9487 18.1036 26.1413 17.9012 26.6582H16.6436L16.3917 27.0873C16.7198 27.0841 17.0708 27.079 17.9138 27.0711C17.5778 27.7217 17.206 28.3639 16.7992 28.9975L13.5951 29.0327C14.1418 28.1804 14.6196 27.1988 15.028 26.0911C15.4182 25.0367 15.6631 24.0998 15.7645 23.2737L18.8287 23.2808C18.7878 23.8677 18.712 24.4708 18.6 25.0897C17.7464 25.07 17.4068 25.0628 17.1109 25.0692V25.0696Z" fill="#FAFAFA"/>
<path d="M21.0589 25.0521C21.0334 25.1407 20.9579 25.4128 20.9273 25.5113C21.2857 25.505 21.5219 25.501 22.1849 25.5113C22.0544 25.9839 21.979 26.1464 21.7919 26.6582H20.5736L20.3971 27.0505C20.7186 27.0473 21.0189 27.0422 21.8461 27.0343C21.5305 27.6789 21.18 28.3149 20.7941 28.9421L17.8167 29.0156C18.3354 28.1725 18.7827 27.2004 19.1588 26.1037C19.5192 25.0596 19.7388 24.131 19.8206 23.3132L22.6628 23.2808C22.6353 23.8625 22.5732 24.4597 22.4769 25.0723C21.6394 25.0529 21.3494 25.0458 21.0593 25.0517L21.0589 25.0521Z" fill="#FAFAFA"/>
<path d="M27.0176 23.5956C26.8412 23.3769 26.6089 23.2697 26.3201 23.2741L23.6001 23.3207C23.6021 24.0369 23.4111 24.981 23.022 26.1627C22.6376 27.3384 22.2171 28.2761 21.7628 28.9686L24.5964 28.8942C24.8966 28.8899 25.2059 28.7772 25.5227 28.5573C25.839 28.3382 26.0827 28.0586 26.256 27.7193C26.5944 27.0786 26.8349 26.5198 26.9779 26.0416C27.1198 25.5659 27.2106 25.0217 27.2499 24.4083C27.2715 24.0856 27.1945 23.8151 27.0172 23.596L27.0176 23.5956ZM24.1908 27.0299C24.4993 26.3446 24.7084 25.6806 24.82 25.0359C24.967 25.0308 25.0825 25.0371 25.167 25.0553C25.3132 25.0822 25.3741 25.1973 25.3497 25.401C25.3108 25.7351 25.231 26.061 25.1108 26.3798C24.9485 26.8085 24.7634 27.0244 24.5563 27.0264L24.1908 27.0295V27.0299Z" fill="#FAFAFA"/>
</g>
<defs>
<clipPath id="clip0_1633_7432">
<rect width="80" height="41" fill="white"/>
</clipPath>
</defs>
</svg>
