<svg width="82" height="42" viewBox="0 0 82 42" fill="none" xmlns="http://www.w3.org/2000/svg">
<path d="M25.1915 18.4643C25.1387 14.332 24.3818 10.0108 22.92 5.46304C22.6497 4.61906 22.265 3.88292 21.7659 3.25338C21.2648 2.62182 20.6839 2.12403 20.0216 1.7592C19.3562 1.39235 18.6428 1.1698 17.8786 1.09278L9.3524 0.23462C7.61179 0.0595022 6.63655 0.725114 6.44843 2.24199C6.34893 3.04138 6.48428 3.99561 6.85407 5.10307C7.23877 6.24823 7.56708 7.54946 7.83777 9.00999C8.11009 10.4734 8.31512 11.9598 8.45289 13.4706C8.59227 14.9867 8.65873 16.264 8.65269 17.3009C8.65994 18.1867 8.81422 19.0063 9.11473 19.7583C9.41564 20.5102 9.89339 21.1207 10.5452 21.5893C11.1937 22.0559 11.9982 22.289 12.9533 22.2898L21.2354 22.2971C21.9177 22.2979 22.5457 22.1803 23.1206 21.9473C23.6914 21.7146 24.1615 21.3497 24.5313 20.8524C24.8999 20.3582 25.1134 19.7368 25.1738 18.9873C25.1915 18.7619 25.1971 18.5876 25.1915 18.4643ZM17.365 8.84217C17.6575 9.6152 17.8669 10.503 17.9946 11.5079C18.1223 12.5148 18.1755 13.3312 18.1541 13.9575C18.1014 14.5059 18.018 14.8538 17.904 14.9997C17.79 15.1456 17.6369 15.2153 17.4456 15.2089C16.932 15.174 16.5557 15.1002 16.3181 14.9867C16.08 14.8728 15.9483 14.6073 15.9237 14.1902C15.8431 12.1913 15.5382 10.2995 15.0105 8.50774C14.9058 8.10805 14.857 7.87415 14.8639 7.80565C14.8796 7.65647 14.9875 7.57499 15.1881 7.56324L16.2375 7.6358C16.6971 7.66782 17.0726 8.06995 17.365 8.84257V8.84217Z" fill="#FAFAFA"/>
<path d="M42.5198 20.3189C42.484 21.1337 42.4445 21.7365 42.3994 22.1265C41.4991 22.1252 40.3369 22.1309 38.9041 22.1443C37.4499 22.1581 36.2003 22.1638 35.1655 22.1621C34.0484 18.2353 33.2146 15.5656 32.6603 14.1448C32.9104 16.487 32.9697 18.7088 32.8347 20.8131C32.7968 21.4033 32.7606 21.8516 32.7259 22.1581L26.7424 22.1483C26.9188 19.8495 26.9325 17.607 26.7859 15.4136C26.6401 13.2335 26.2743 10.9963 25.6882 8.69465C25.1029 6.39865 24.2449 4.04266 23.1109 1.61938L31.5823 2.47187C32.3549 3.57325 33.0055 4.52059 33.5332 5.31511C34.0597 6.1076 34.5568 6.88915 35.0233 7.65975C35.4893 8.42873 35.9171 9.18028 36.3059 9.91399C35.7492 8.10768 34.755 5.67345 33.3185 2.60037L38.7401 3.14721C39.5168 4.60491 40.1633 6.08206 40.681 7.58232C41.199 9.08299 41.6022 10.5646 41.8898 12.0304C42.1774 13.4999 42.3688 14.9182 42.4635 16.2868C42.5577 17.6613 42.5766 19.0047 42.5194 20.3189H42.5198Z" fill="#FAFAFA"/>
<path d="M63.8563 22.1679C63.1502 22.1667 62.2398 22.1719 61.1195 22.1837C59.9844 22.1963 59.0107 22.2015 58.2051 22.1999C57.1928 18.7365 56.4468 16.3805 55.9638 15.1275C56.2445 17.1957 56.3718 19.1556 56.3452 21.0122C56.338 21.5319 56.3263 21.9267 56.3102 22.1975L51.6862 22.1898C51.7349 20.1707 51.6608 18.1994 51.4654 16.2702C51.2709 14.352 50.9043 12.3819 50.3645 10.3563C49.8259 8.33477 49.0746 6.26334 48.1087 4.13477L54.6929 4.79713C55.3354 5.76677 55.8764 6.60142 56.3166 7.30149C56.7565 7.99993 57.1727 8.68906 57.5646 9.36967C57.9566 10.0482 58.3179 10.7118 58.6478 11.3604C58.1471 9.76125 57.2818 7.60794 56.0492 4.8924L60.3062 5.32208C60.9685 6.61318 61.5288 7.92373 61.9896 9.25535C62.4501 10.5874 62.8191 11.9032 63.0978 13.2056C63.3766 14.5113 63.5776 15.7712 63.7 16.9869C63.8229 18.2067 63.8857 19.3996 63.8869 20.5651C63.8882 21.2878 63.8777 21.8217 63.8571 22.1675L63.8563 22.1679Z" fill="#FAFAFA"/>
<path d="M67.265 13.1339C66.4316 13.0763 65.7826 13.0325 65.323 13.0021C64.8614 12.9725 64.1963 12.9263 63.323 12.8619C63.3576 12.3929 63.3749 11.9137 63.3745 11.4244C63.3479 8.99386 62.9645 7.00513 62.2237 5.43677L66.0751 5.82673C66.89 7.31321 67.3053 9.0729 67.323 11.1228C67.3263 11.4556 67.3069 12.1253 67.265 13.1339Z" fill="#FAFAFA"/>
<path d="M79.1641 18.2962C78.748 16.9107 78.2461 15.5239 77.6592 14.1335C77.0706 12.7415 76.443 11.4115 75.7751 10.1427C75.1052 8.86982 74.447 7.72872 73.8013 6.71976L69.396 6.2771C69.6433 7.31565 69.8347 8.46 69.97 9.71298C70.1062 10.9708 70.1847 12.2891 70.2057 13.6706C70.2492 16.616 70.0325 19.4624 69.5487 22.2193L73.4521 22.2258C73.475 21.9656 73.5797 21.3887 73.7646 20.4982C74.068 20.5022 74.499 20.5111 75.0545 20.5245C75.6064 20.5383 76.0374 20.5468 76.3508 20.5509C76.4068 21.0004 76.5212 21.5602 76.694 22.2311L80.0193 22.2364C79.8658 20.9964 79.581 19.6834 79.1645 18.2966L79.1641 18.2962ZM74.0092 16.3249C74.0144 16.1433 74.022 15.7712 74.0092 15.2114C73.9922 14.4683 73.8718 13.2016 73.8138 12.722C74.0639 13.1683 74.5659 14.2511 74.7902 14.8186C75.015 15.3853 75.2386 15.8989 75.3759 16.3253H74.0088L74.0092 16.3249Z" fill="#FAFAFA"/>
<path d="M16.2133 23.534L12.981 23.5247C12.6789 25.3589 11.8676 27.3347 10.5536 29.4556C10.8497 29.4515 11.155 29.4503 11.4684 29.4511C11.781 29.4523 12.0493 29.4511 12.2733 29.4487C12.7857 28.7385 13.201 28.0761 13.5172 27.4612C14.0574 27.4527 14.4643 27.445 14.7386 27.4381C15.4911 27.4283 16.0353 27.0838 16.3732 26.4015C16.7201 25.6873 16.9267 25.0918 16.9896 24.6143C17.0858 23.8931 16.8276 23.532 16.2137 23.534H16.2133ZM15.1007 25.3512C15.1068 25.4696 15.0806 25.5872 15.0282 25.693C14.9924 25.7911 14.8981 25.8896 14.768 25.8896C14.5577 25.8896 14.1509 25.8843 13.9869 25.8896C14.0405 25.7611 14.2109 25.2726 14.2471 25.1688C14.376 25.1688 14.6604 25.1672 14.8687 25.168C14.9613 25.1684 15.0463 25.2183 15.0927 25.2989V25.2998C15.0971 25.3071 15.0995 25.3261 15.1007 25.3512Z" fill="#FAFAFA"/>
<path d="M20.816 23.5567L18.7439 23.5461C18.4107 24.3638 17.8762 25.3099 17.1422 26.3833C16.4111 27.4531 15.6228 28.447 14.7764 29.366L16.5505 29.3445C16.8063 29.0607 16.9996 28.8532 17.1305 28.7235L17.742 28.717C17.8858 28.7202 18.0909 28.7202 18.3571 28.7178C18.2681 28.8706 18.1743 29.0737 18.0764 29.3259L19.6953 29.3056C20.2226 28.3741 20.5775 27.2962 20.7584 26.0679C20.8933 25.1542 20.9127 24.3167 20.8156 23.5567H20.816ZM18.283 27.1997C18.5851 26.7891 19.0133 26.1437 19.1946 25.8239C19.2019 26.1267 19.1314 26.7737 18.9992 27.1997H18.283Z" fill="#FAFAFA"/>
<path d="M23.6056 25.5673C23.5971 25.6228 23.6459 25.6484 23.7526 25.6439C24.1317 25.6431 24.4487 25.6427 24.7033 25.6427C25.2455 25.6467 25.4759 25.8936 25.3953 26.3829C25.3744 26.5106 25.3297 26.6508 25.2612 26.802C25.1653 27.0149 25.0719 27.2297 24.98 27.4466C24.8745 27.6687 24.7536 27.8783 24.6175 28.0761C24.3895 28.4109 24.1071 28.6894 23.7691 28.912C23.4312 29.1353 23.119 29.2488 22.8305 29.2521L19.8927 29.2817C20.2919 28.6801 20.6863 28.0566 21.0762 27.4101L23.0025 27.3971C23.0154 27.3971 23.0477 27.4016 23.0988 27.4101C23.1335 27.4145 23.1613 27.4125 23.1826 27.4028C23.2036 27.3931 23.2241 27.3667 23.2438 27.3241C23.262 27.2954 23.2716 27.2743 23.2736 27.2601C23.2813 27.2131 23.2229 27.192 23.0992 27.1973C22.8479 27.1985 22.497 27.2013 22.0458 27.2038C21.6547 27.211 21.4891 27.01 21.5512 26.5989C21.5733 26.451 21.6261 26.2787 21.7095 26.0813C21.8742 25.6686 22.0035 25.2783 22.0974 24.9114C22.1904 24.5437 22.3492 24.2312 22.5719 23.9738C22.8374 23.6686 23.1427 23.519 23.4859 23.5259L25.9069 23.5453C25.7804 24.1822 25.6173 24.819 25.4167 25.455C24.8273 25.4412 24.288 25.4368 23.7977 25.442C23.7631 25.4376 23.728 25.4347 23.693 25.4347C23.6664 25.4347 23.6463 25.4526 23.6318 25.487C23.6173 25.5219 23.6088 25.5486 23.6056 25.5669V25.5673Z" fill="#FAFAFA"/>
<path d="M9.44423 29.7749L7.21983 29.8025C7.20734 29.8929 7.19365 29.9894 7.17995 30.0927C7.08931 30.7466 6.85004 31.5589 6.45728 32.5343C6.07581 33.4816 5.68466 34.2631 5.28345 34.8744L7.55176 34.8874C8.05247 34.8915 8.45288 34.6272 8.75218 34.0965C9.01522 33.6287 9.15057 33.3851 9.16024 33.3636C9.30163 33.0839 9.38502 32.846 9.40878 32.6494C9.42772 32.4961 9.41281 32.3551 9.36528 32.2282C9.63034 31.9935 9.80678 31.7223 9.89338 31.4138C9.96307 31.1653 10.0098 30.9452 10.0328 30.7527C10.1129 30.0871 9.91635 29.762 9.44423 29.7745V29.7749ZM7.86677 33.227H7.41117C7.46193 33.1249 7.56022 32.8622 7.60654 32.7686C7.76606 32.7633 7.91793 32.7686 7.99728 32.7686C7.99728 32.7686 8.04482 32.7686 8.05851 32.9319C8.06576 33.0158 8.04159 33.1018 7.986 33.165C7.95539 33.1995 7.91591 33.227 7.86717 33.227H7.86677ZM8.38762 31.7199C8.24905 31.7211 8.07704 31.7105 7.99688 31.7199C8.02347 31.6165 8.0996 31.3032 8.12699 31.1957H8.45248C8.4992 31.1913 8.59709 31.3437 8.58259 31.4576C8.5701 31.55 8.44643 31.7195 8.38722 31.7195L8.38762 31.7199Z" fill="#FAFAFA"/>
<path d="M11.5007 31.3128C11.4753 31.3934 11.3693 31.6289 11.3395 31.7181C11.6038 31.712 12.0163 31.7084 12.5077 31.7181C12.3748 32.1478 12.3228 32.4291 12.1452 32.8937H10.8964L10.6144 33.2991C10.8501 33.2982 11.3722 33.3011 11.9841 33.2991C11.7017 33.8816 11.5111 34.3238 11.1804 34.8873L8.59387 34.8743C9.02731 34.126 9.42047 33.2593 9.77415 32.2775C10.1133 31.3395 10.3417 30.5028 10.4622 29.7659L12.9931 29.748C12.9279 30.2795 12.8272 30.7542 12.7087 31.3128C12.0876 31.2957 11.7146 31.3075 11.5003 31.3128H11.5007Z" fill="#FAFAFA"/>
<path d="M15.6957 32.2108C15.686 32.3267 15.6578 32.454 15.6119 32.5923C15.5474 32.7868 15.4838 32.9838 15.4218 33.1833C15.3497 33.3884 15.2634 33.5822 15.1652 33.7658C15 34.0771 14.7881 34.3365 14.5303 34.5433C14.2717 34.7508 14.0292 34.8546 13.802 34.8546L11.522 34.8481C11.8209 34.2932 12.0606 33.8866 12.3462 33.2996H13.8769C13.8874 33.2988 13.9172 33.2996 13.9575 33.2996C13.9841 33.3041 14.0381 33.2185 14.0381 33.2185L14.0783 33.1375V33.0969C14.0783 33.0564 14.0393 32.9437 13.9434 32.9482C13.75 32.949 13.4797 32.9502 13.1337 32.9506C12.8348 32.9567 12.7047 32.7743 12.743 32.4062C12.7567 32.2732 12.7925 32.12 12.8509 31.9449C12.9661 31.58 13.0539 31.2367 13.1152 30.9169C13.1764 30.5978 13.2864 30.3275 13.4459 30.1053C13.6352 29.8418 13.858 29.7117 14.1146 29.7129L15.9478 29.7024C15.8834 30.2545 15.7722 30.7085 15.6494 31.2724C15.193 31.2626 14.776 31.2659 14.4006 31.2724C14.3737 31.2724 14.3469 31.2859 14.32 31.3129C14.32 31.3129 14.3035 31.3826 14.2938 31.4134C14.2842 31.4443 14.2781 31.4678 14.2769 31.4844C14.2725 31.5334 14.3108 31.5565 14.3921 31.5513C14.6826 31.5501 14.9267 31.548 15.1225 31.5472C15.5422 31.5484 15.7339 31.7694 15.6953 32.2108H15.6957Z" fill="#FAFAFA"/>
<path d="M19.2619 29.8947C19.1564 29.763 19.0053 29.701 18.8083 29.7067L17.2035 29.7212C16.9436 29.7237 16.7225 29.8575 16.5388 30.1234C16.389 30.3342 16.2842 30.6005 16.2238 30.9219C16.1509 31.2997 16.0123 31.7781 15.8057 32.3577C15.6252 32.8681 15.4411 33.3306 15.2542 33.7453C15.1474 33.9816 15.0854 34.19 15.0701 34.3704C15.0383 34.7275 15.1829 34.9071 15.5043 34.9071H17.0923C17.3255 34.9071 17.5487 34.8313 17.7622 34.6805C18.0043 34.5115 18.1976 34.2638 18.3431 33.9371C18.8184 32.8803 19.1588 31.7927 19.3666 30.6767C19.3823 30.6001 19.392 30.5279 19.396 30.4598C19.4122 30.215 19.3674 30.0261 19.2627 29.8951L19.2619 29.8947ZM16.9138 33.0675C16.9163 33.0327 16.9283 32.9934 16.9489 32.9504C17.1547 32.4688 17.305 32.0136 17.3992 31.5843C17.4319 31.4303 17.4786 31.3533 17.5398 31.3524C17.5672 31.3569 17.6011 31.3577 17.6421 31.3549C17.6832 31.3528 17.7159 31.3516 17.7396 31.3516C17.8146 31.3508 17.8472 31.423 17.8359 31.5685C17.8242 31.727 17.7662 31.9532 17.6619 32.2459C17.5825 32.4838 17.5012 32.6922 17.419 32.8701C17.3163 33.0838 17.2184 33.1883 17.1261 33.1839C16.9783 33.1847 16.9074 33.1458 16.9134 33.0671L16.9138 33.0675Z" fill="#FAFAFA"/>
<path d="M21.0275 29.6855C20.8925 30.613 20.6992 31.4846 20.4482 32.2973C20.2029 33.0951 19.8649 33.9516 19.4327 34.8661L18.167 34.8669C18.9972 33.076 19.5362 31.3528 19.7924 29.6973L21.0275 29.6855Z" fill="#FAFAFA"/>
<path d="M24.8483 30.0716C24.8221 30.8466 24.6589 31.6866 24.356 32.5917C24.1022 33.3595 23.7719 34.1135 23.3659 34.8525C23.1629 34.8525 22.8716 34.8549 22.4917 34.8598C22.1123 34.8642 21.8146 34.8662 21.5991 34.8662C21.8073 33.8824 21.9375 33.1779 21.9902 32.7482C21.7336 33.469 21.4174 34.1751 21.0424 34.8662H19.7223C20.7028 32.9756 21.2261 31.2427 21.3054 29.6642L23.1459 29.6472C23.2893 30.4044 23.3679 31.0412 23.3816 31.5548C23.4714 31.07 23.5274 30.4319 23.5496 29.6431L24.8479 29.6313C24.8531 29.7757 24.8539 29.9224 24.8487 30.0716H24.8483Z" fill="#FAFAFA"/>
<path d="M35.5159 24.2511C35.2062 23.6123 34.7622 23.2981 34.1826 23.3078L28.1809 23.2981C28.0665 25.4133 27.5194 28.1892 26.5345 31.6438C25.5637 35.0614 24.5627 37.781 23.5315 39.79L29.7402 39.5148C30.3396 39.4868 30.9733 39.152 31.6411 38.5131C32.3058 37.8775 32.8383 37.0765 33.2408 36.1089C34.0267 34.277 34.6035 32.6799 34.9749 31.3093C35.3455 29.9449 35.6279 28.3786 35.8233 26.6095C35.928 25.6752 35.8257 24.89 35.5159 24.2511ZM31.8494 29.4986C31.7112 30.465 31.4945 31.4074 31.1984 32.3272C30.7988 33.562 30.3904 34.1879 29.9747 34.2L29.2383 34.2223C29.9751 32.2425 30.5104 30.3186 30.8476 28.4475C31.1453 28.4304 31.3769 28.4483 31.5429 28.4994C31.8325 28.576 31.9348 28.9088 31.8494 29.4986Z" fill="#FAFAFA"/>
<path d="M39.8918 28.3413C39.8334 28.5898 39.7706 28.8508 39.7025 29.1252C40.3716 29.1021 41.3223 29.1017 42.5481 29.1228C42.2512 30.433 41.9003 31.7938 41.4947 33.2069L38.6334 33.2875L38.4401 33.9041C39.0391 33.8859 40.1065 33.8538 41.6333 33.8076C40.9779 35.5811 40.2608 37.3291 39.4822 39.0519L32.8235 39.3283C33.876 36.9804 34.8086 34.273 35.6235 31.2068C36.4074 28.2711 36.9158 25.6468 37.1538 23.3232L43.595 23.3743C43.4705 25.0067 43.2824 26.676 43.0294 28.3822C41.4826 28.3364 40.4332 28.3226 39.8914 28.3417L39.8918 28.3413Z" fill="#FAFAFA"/>
<path d="M55.3833 24.3359C55.1146 23.7449 54.7239 23.4543 54.2107 23.464L48.9804 23.4575C48.7544 25.8731 48.269 28.5562 47.5201 31.5186C46.7656 34.5054 45.9628 36.9169 45.1112 38.7451L48.2887 38.5939C48.98 37.0085 49.56 35.4296 50.0301 33.8568C50.1599 34.3712 50.2034 35.0076 50.1603 35.7685C50.1204 36.4791 50.0019 37.3964 49.8042 38.5226L52.7448 38.3831C53.1178 37.0851 53.3321 35.9173 53.3881 34.8763C53.4219 34.2508 53.3978 33.6205 53.3164 32.9857C53.9972 32.5061 54.5567 31.5154 54.9962 30.0192C55.3108 28.975 55.5279 27.8128 55.6484 26.5306C55.7402 25.6574 55.6516 24.9262 55.3829 24.3359H55.3833ZM52.4608 28.3138C52.4568 28.3766 52.4817 28.7382 52.4608 28.8379C52.4072 29.0889 52.2042 29.1513 52.0701 29.1655C51.0936 29.1655 51.1 29.161 50.7681 29.1655C50.8378 28.889 50.9478 28.3 51.0283 27.9863C51.3695 27.9701 51.9307 27.9895 52.2002 27.9863C52.2775 27.9855 52.4697 28.1395 52.4604 28.3138H52.4608Z" fill="#FAFAFA"/>
<path d="M62.4545 24.0513C62.2305 23.6735 61.9083 23.4891 61.4865 23.4992L57.9964 23.4822C57.4216 23.4798 56.9326 23.862 56.5317 24.6318C56.2051 25.2443 55.9791 26.0186 55.8542 26.9533C55.706 28.0507 55.4123 29.4362 54.9728 31.1148C54.5885 32.5887 54.1954 33.9252 53.7925 35.1243C53.5629 35.8078 53.434 36.4077 53.4058 36.9221C53.351 37.94 53.6846 38.4321 54.4024 38.398L57.8832 38.2318C58.386 38.2075 58.8637 37.9757 59.3169 37.5366C59.8297 37.0478 60.2373 36.3449 60.5403 35.4291C61.5344 32.4659 62.2454 29.4159 62.6781 26.2727C62.7099 26.0567 62.7308 25.8528 62.7401 25.661C62.7731 24.9658 62.6781 24.4299 62.4549 24.0521L62.4545 24.0513ZM57.4482 33.089C57.4526 32.9909 57.4776 32.8786 57.5219 32.7549C57.9586 31.3799 58.2752 30.0816 58.4718 28.8557C58.5386 28.4155 58.6389 28.1946 58.7727 28.1929C58.8319 28.2047 58.906 28.2067 58.9954 28.1994C59.0849 28.1921 59.1558 28.1885 59.2069 28.1877C59.3697 28.1857 59.4414 28.392 59.4204 28.8055C59.3974 29.2566 59.2766 29.8983 59.0571 30.7322C58.8891 31.4075 58.7179 31.9993 58.5435 32.5056C58.3267 33.1129 58.1169 33.4137 57.9159 33.4072C57.5928 33.4169 57.4369 33.3115 57.4486 33.0894L57.4482 33.089Z" fill="#FAFAFA"/>
<path d="M70.0498 23.4881C69.8024 27.7968 69.1063 31.5501 67.9547 34.7541C67.6513 35.6098 67.2477 36.3196 66.7418 36.8847C66.2334 37.4522 65.7444 37.7473 65.2751 37.7696L61.9763 37.9261C61.3032 37.9581 60.9894 37.4846 61.0369 36.5065C61.0615 36.0058 61.182 35.4164 61.3975 34.7395C62.5641 31.049 63.3049 27.3103 63.6283 23.5088C64.1999 23.512 65.1139 23.4983 66.3631 23.4695C65.9635 27.1389 65.4523 30.1909 64.8291 32.6202C64.7433 32.934 64.7361 33.09 64.807 33.088L65.6924 33.0613C65.8406 33.0568 65.9712 32.8379 66.0823 32.4054C66.4344 31.0154 66.7172 29.5788 66.9311 28.0947C67.0854 26.9933 67.2521 25.4643 67.4306 23.51C67.9168 23.512 68.3776 23.5088 68.8135 23.4991C69.4326 23.4906 69.8439 23.4865 70.049 23.4881H70.0498Z" fill="#FAFAFA"/>
<path d="M76.4273 23.5542C76.4168 24.8279 76.238 26.3212 75.8904 28.0384C75.4847 28.0201 74.9248 28.0274 74.2094 28.0586C73.6865 30.8159 72.8063 33.947 71.5604 37.472L69.0065 37.5933C70.2552 33.8465 71.1314 30.7041 71.6458 28.1425C70.8933 28.1519 70.3088 28.1944 69.8951 28.2698C69.9954 27.5199 70.0945 26.7675 70.192 26.0144C70.2891 25.2624 70.3571 24.4205 70.3978 23.4897L76.4273 23.5546V23.5542Z" fill="#FAFAFA"/>
<path d="M79.0102 27.8813C78.9703 28.0969 78.9268 28.3235 78.8793 28.5619C79.3844 28.5437 80.1031 28.5441 81.0308 28.5643C80.8266 29.703 80.5824 30.8855 80.2976 32.1117L78.1381 32.1725L78.0019 32.7064C78.4531 32.6926 79.2584 32.6683 80.4112 32.6338C79.9432 34.1722 79.4296 35.6858 78.8688 37.1771L73.8637 37.3802C74.6162 35.3546 75.2736 33.0132 75.8376 30.3593C76.381 27.816 76.723 25.5391 76.8656 23.522L81.7337 23.5633C81.6648 24.9841 81.548 26.4366 81.3829 27.9206C80.2118 27.8789 79.4183 27.8655 79.0094 27.8813H79.0102Z" fill="#FAFAFA"/>
</svg>
