<svg width="127" height="65" viewBox="0 0 127 65" fill="none" xmlns="http://www.w3.org/2000/svg">
<g clip-path="url(#clip0_1568_309)">
<path d="M56.8051 47.4865C56.019 43.5296 54.8866 39.8818 53.3967 36.5456L45.0735 36.4936C44.9661 40.1338 44.2412 44.3346 42.9042 49.0953C41.5759 53.8278 39.9008 58.2305 37.8725 62.319L45.0011 61.9642C45.5975 60.7158 46.0598 59.8036 46.3874 59.2299L48.8068 59.1239C49.382 59.1189 50.1912 59.0932 51.2344 59.0474C51.1077 59.7095 51.0353 60.5823 51.0185 61.6645L57.2892 61.3528C58.006 57.364 57.8507 52.7588 56.8044 47.4859L56.8051 47.4865ZM50.3434 46.936C50.817 48.2476 51.1545 50.5926 51.2562 52.439L48.7213 52.5412C49.3128 50.7405 50.0976 48.3367 50.3441 46.936H50.3434Z" fill="#1C1514"/>
<path d="M84.2412 47.2746C84.5169 45.6237 84.5562 43.7741 84.3591 41.7164C84.2424 40.3038 83.8057 39.1156 83.0452 38.1507C82.2803 37.1808 81.3688 36.6992 80.3113 36.713L69.3939 36.676C69.9011 40.6574 69.971 45.0049 69.611 49.7192C69.2547 54.3827 68.5834 58.0888 67.594 60.8701L73.8802 60.5572C74.6695 58.154 75.2441 55.7439 75.6059 53.3218C76.0564 54.1106 76.3789 55.0861 76.5711 56.2473C76.7514 57.3264 76.8481 58.7145 76.8618 60.408L82.6184 60.1208C82.9117 58.1703 82.936 56.4041 82.6902 54.8228C82.5423 53.8648 82.2765 52.8986 81.8922 51.9218C83.0901 51.1694 83.8706 49.6239 84.2405 47.2746H84.2412ZM77.9767 45.9617C77.3996 45.9711 76.0682 46.0087 75.3907 46.0187C75.4294 45.5786 75.4443 44.5848 75.4924 44.0826C76.1849 44.0537 77.2748 44.0895 77.8245 44.0826C77.9817 44.0807 78.3317 44.3886 78.3903 44.9384C78.4009 45.0387 78.4109 45.1679 78.4047 45.3278C78.3872 45.7265 78.2456 45.9385 77.9767 45.9617Z" fill="#1C1514"/>
<path d="M98.4789 41.2894C98.4789 40.9439 98.4608 40.6166 98.4222 40.3088C98.283 39.1909 97.9324 38.3237 97.3684 37.7099C96.8007 37.0936 96.0919 36.792 95.2397 36.8058L88.1168 36.7607C86.9351 36.7538 86.0636 37.3795 85.5058 38.6366C85.0497 39.6341 84.8551 40.8887 84.9237 42.3947C84.9986 44.1515 84.8788 46.3516 84.5687 48.9925C84.3011 51.2885 83.9704 53.3532 83.578 55.1908C83.3546 56.2335 83.3041 57.1426 83.4239 57.9176C83.6603 59.4443 84.4782 60.1685 85.8751 60.0982L92.6094 59.7609C93.577 59.712 94.4336 59.3565 95.1823 58.6938C96.0333 57.954 96.6185 56.8962 96.9398 55.515C98.0216 50.9951 98.537 46.2626 98.4789 41.2875V41.2894ZM91.1807 52.4948C90.5462 52.5155 90.2031 52.355 90.1556 52.0145C90.1344 51.8634 90.1475 51.6917 90.1943 51.4998C90.6254 49.3687 90.8425 47.3398 90.8432 45.4105C90.8369 44.7133 90.9679 44.3641 91.2368 44.3597C91.3585 44.3779 91.5076 44.381 91.6848 44.3691C91.862 44.3578 92.0023 44.3509 92.1059 44.3497C92.4322 44.3453 92.6393 44.6719 92.7273 45.3246C92.8234 46.035 92.7828 47.0426 92.6044 48.3473C92.4827 49.3988 92.3274 50.3161 92.1402 51.0998C91.9 52.0365 91.5806 52.4998 91.1807 52.4942V52.4948Z" fill="#1C1514"/>
<path d="M111.301 46.4833C110.944 43.0092 110.302 39.8122 109.37 36.8936L103.016 36.8541C102.704 40.0316 101.886 43.7014 100.565 47.8633C99.2507 52.0039 97.691 55.8561 95.8836 59.433L101.345 59.1609C101.88 58.0662 102.291 57.2674 102.579 56.7639L104.437 56.6824C104.877 56.6812 105.5 56.663 106.302 56.6285C106.164 57.2104 106.054 57.9778 105.971 58.9308L110.809 58.69C111.611 55.1771 111.778 51.1211 111.301 46.4833ZM104.596 50.9104C105.161 49.3317 105.941 47.3479 106.218 46.1209C106.498 47.2727 106.967 49.1875 106.928 50.8089L104.596 50.9111L104.596 50.9104Z" fill="#1C1514"/>
<path d="M125.998 41.4235C125.964 40.152 125.658 39.0786 125.08 38.2015C124.498 37.3199 123.786 36.8836 122.943 36.8974L114.153 36.8685C114.487 39.789 114.346 43.5647 113.735 48.1793C113.149 52.656 112.368 56.1577 111.388 58.7145L120.011 58.3101C120.842 58.2681 121.656 57.8411 122.457 57.0292C123.257 56.2191 123.842 55.1946 124.213 53.9557C124.956 51.5901 125.456 49.5085 125.714 47.7078C125.972 45.9008 126.068 43.8086 125.998 41.4242V41.4235ZM119.212 51.5136L118.174 51.5462C118.79 48.9555 119.136 46.4099 119.211 43.9083C119.636 43.8857 119.974 43.9083 120.225 43.9779C120.658 44.0801 120.875 44.5259 120.88 45.3146C120.888 46.6005 120.778 47.8489 120.551 49.0608C120.245 50.6791 119.8 51.4942 119.212 51.5136Z" fill="#1C1514"/>
<path d="M42.3976 18.2835C42.3327 19.9161 42.2067 21.4955 42.0195 23.0241C41.5173 27.117 40.5783 31.1341 39.1883 35.086L30.4645 35.091C30.2112 30.1222 29.7888 26.0599 29.1992 22.8761C29.0245 23.8705 28.8162 24.8549 28.5716 25.8273C28.3264 26.8035 28.0369 27.8331 27.7044 28.9171C27.37 30.0056 27.0106 31.1084 26.6257 32.2251C26.2383 33.3474 25.9095 34.3041 25.6393 35.0935L16.019 35.0998C16.0664 32.447 15.9928 29.6475 15.7969 26.7026C15.6022 23.7746 15.2535 20.7952 14.7531 17.7599C14.254 14.7385 13.5502 11.6976 12.6406 8.63294C11.7328 5.57451 10.6167 2.69854 9.28845 -0.00062561L18.7011 0.932953C19.2925 2.0703 19.8247 3.20953 20.2982 4.35189C20.7705 5.49426 21.1873 6.63662 21.5485 7.78024C21.9097 8.92448 22.2167 10.0255 22.4725 11.0813C22.5174 9.48563 22.5149 6.21403 22.4662 1.30601L30.2187 2.07469C32.484 7.15514 34.088 11.0261 35.0332 13.6946C35.0058 12.0801 34.861 10.3929 34.5984 8.63168C34.337 6.8755 33.9171 4.79266 33.34 2.38379L41.0144 3.14432C41.4081 4.90928 41.7163 6.64289 41.9403 8.34766C42.1655 10.0568 42.3146 11.7321 42.3864 13.3736C42.4594 15.0225 42.4637 16.6583 42.3988 18.2835H42.3976Z" fill="#1C1514"/>
<path d="M59.0217 24.9928C58.9406 27.7503 58.8202 30.0005 58.6574 31.7329C58.6075 32.2545 58.4808 33.4308 58.2743 35.2659C56.5755 35.2547 55.1954 35.2465 54.1423 35.2415C53.0804 35.2365 52.0978 35.2321 51.1963 35.2302C50.2879 35.2283 49.377 35.2258 48.4637 35.2239C47.5447 35.2208 46.0692 35.2145 44.0222 35.2039C44.3915 32.052 44.5269 28.5503 44.4352 24.7019C44.3441 20.8892 44.0571 17.1035 43.5742 13.3378C43.0945 9.59661 42.4637 6.20024 41.6801 3.13492C43.0271 3.27474 44.3104 3.40703 45.5326 3.53117C46.7467 3.65469 47.8947 3.76943 48.9796 3.87789C50.0564 3.98511 51.0129 4.07978 51.8526 4.16317C52.6874 4.24593 53.9427 4.37635 55.6084 4.55378C56.0302 6.00274 56.3546 7.14761 56.5817 7.98902C56.81 8.83106 57.0309 9.71636 57.2461 10.6468C57.462 11.5773 57.7322 12.8406 58.0584 14.4388C56.3477 14.2501 55.0345 14.1128 54.1292 14.0262C53.2183 13.9397 52.2906 13.8645 51.3454 13.7999C51.3629 13.9755 51.3872 14.2012 51.4196 14.4777C51.4521 14.7548 51.4814 15.0432 51.507 15.3448C53.4005 15.4639 55.4294 15.6169 57.5862 15.8025C57.8925 18.3756 58.1196 21.0322 58.2643 23.7771L52.2245 23.5558L52.3024 24.8499C53.0823 24.8756 53.7455 24.8919 54.292 24.9C54.8367 24.9082 55.4238 24.9195 56.0533 24.9339C56.6797 24.9483 57.6729 24.9677 59.0224 24.9928H59.0217Z" fill="#1C1514"/>
<path d="M84.1083 23.6762C84.0203 21.9827 83.8275 20.2785 83.5306 18.5631C83.2342 16.8539 82.8044 14.9373 82.2429 12.8137C81.9577 11.7478 81.551 10.7559 81.0207 9.83487C80.4904 8.91383 79.8983 8.17274 79.2432 7.61221C78.5863 7.04981 77.9299 6.73569 77.2742 6.67048C75.012 6.46797 71.5619 6.13755 66.8397 5.66856C67.4124 7.44355 67.9184 9.52263 68.3588 11.9127C68.8012 14.3109 69.1618 16.8207 69.4419 19.4459C69.7239 22.0855 69.9061 24.643 69.9903 27.1214C70.0745 29.6162 70.0471 31.7962 69.9073 33.6571C69.8543 34.3675 69.8088 34.8741 69.7695 35.1775C70.8494 35.1826 71.877 35.1857 72.854 35.1876C73.8241 35.1895 74.7269 35.1907 75.5616 35.1895C76.3914 35.1882 77.122 35.1876 77.7559 35.1863C78.3879 35.1863 79.28 35.1913 80.428 35.2014C81.4087 35.2001 82.2504 34.6571 82.956 33.5787C83.656 32.5097 84.0484 31.1247 84.1364 29.425C84.2075 27.2907 84.1981 25.3759 84.1089 23.6755L84.1083 23.6762ZM74.9334 15.4044C75.5379 15.4464 75.9597 15.5091 76.203 15.5937C76.5162 15.6959 76.762 15.8953 76.9411 16.1931C77.1207 16.4909 77.2717 16.9047 77.3946 17.4333C77.6186 18.3756 77.8145 19.4766 77.9836 20.7369C78.1526 21.9996 78.2119 23.0636 78.157 23.9288C78.0853 25.0988 77.7939 25.6775 77.2861 25.6612L76.0002 25.6192C75.9952 24.3696 75.9616 23.2241 75.9017 22.1808C75.8418 21.1394 75.7326 20.071 75.5741 18.9775C75.4156 17.886 75.2017 16.6947 74.9334 15.4037V15.4044Z" fill="#1C1514"/>
<path d="M97.7708 30.2971C97.6198 24.937 96.8999 19.3612 95.6159 13.5466C95.3807 12.4726 95.0563 11.5434 94.6445 10.7572C94.2327 9.97029 93.7611 9.36023 93.232 8.92511C92.7005 8.48998 92.1359 8.24232 91.5375 8.18338L84.9693 7.5332C83.6522 7.40279 82.936 8.28433 82.8293 10.1866C82.7738 11.1891 82.8961 12.3754 83.1993 13.746C83.5143 15.1636 83.7914 16.7831 84.0297 18.6057C84.2692 20.4353 84.4589 22.298 84.5974 24.1947C84.7384 26.1001 84.8183 27.7076 84.8389 29.0149C84.8644 30.1309 85.0011 31.163 85.2463 32.1091C85.4927 33.0571 85.8701 33.8264 86.378 34.4164C86.8852 35.0051 87.5066 35.2992 88.2409 35.2979L94.7119 35.2879C95.2547 35.2866 95.7513 35.1343 96.2024 34.8296C96.6528 34.5267 97.0197 34.0521 97.3035 33.405C97.5862 32.7611 97.7415 31.9517 97.7702 30.9774C97.7783 30.6852 97.7783 30.4589 97.7702 30.2977L97.7708 30.2971ZM91.3298 18.0866C91.5775 19.0628 91.7628 20.1907 91.8875 21.4723C92.0136 22.7576 92.0753 23.8009 92.0741 24.6028C92.0466 25.3063 91.9899 25.7533 91.905 25.9421C91.8189 26.1314 91.701 26.2236 91.5519 26.2192C91.1501 26.1835 90.855 26.0957 90.6666 25.9552C90.4788 25.8154 90.3703 25.4781 90.3409 24.9477C90.2286 22.4009 89.9466 20.0008 89.4931 17.7386C89.4026 17.2339 89.3589 16.9386 89.3633 16.8508C89.3714 16.6602 89.4538 16.5542 89.6079 16.5317L90.422 16.5868C90.7808 16.6113 91.0834 17.1104 91.3298 18.0872V18.0866Z" fill="#1C1514"/>
<path d="M112.206 32.5812C112.199 33.6747 112.183 34.4841 112.156 35.0076C111.385 35.0076 110.395 35.0189 109.18 35.0415C107.953 35.0641 106.905 35.0753 106.039 35.0753C105 29.8933 104.234 26.3878 103.736 24.5301C104.008 27.6055 104.119 30.5303 104.066 33.3041C104.052 34.0816 104.033 34.6741 104.013 35.0772L99.1203 35.081C99.2002 32.0827 99.1515 29.161 98.9756 26.3089C98.8002 23.4768 98.4452 20.5807 97.9131 17.6151C97.384 14.6651 96.6366 11.6594 95.6702 8.59218L102.529 9.27057C103.194 10.6731 103.755 11.8832 104.212 12.9027C104.671 13.9209 105.104 14.9285 105.513 15.9241C105.923 16.921 106.3 17.8972 106.646 18.8528C106.13 16.4884 105.234 13.3203 103.96 9.35208L108.492 9.80163C109.189 11.697 109.779 13.6306 110.262 15.6044C110.745 17.5831 111.132 19.5462 111.421 21.4949C111.711 23.4517 111.917 25.3452 112.037 27.176C112.159 29.0162 112.216 30.8181 112.206 32.5812Z" fill="#1C1514"/>
<path d="M116.06 18.2377C116.06 18.7399 116.033 19.7531 115.978 21.2798C115.062 21.2134 114.351 21.1644 113.849 21.1312C113.344 21.0986 112.619 21.0453 111.67 20.972C111.712 20.2666 111.736 19.5462 111.74 18.8108C111.735 15.1655 111.34 12.2017 110.556 9.88878L114.737 10.3063C115.617 12.5077 116.057 15.1442 116.059 18.2377H116.06Z" fill="#1C1514"/>
<path d="M125.393 26.8537C125.633 29.445 125.795 32.1787 125.877 35.0597L121.819 35.0641C121.716 32.9442 121.6 30.9999 121.469 29.2268C121.338 27.4625 121.172 25.7302 120.968 24.0285C120.765 22.3338 120.509 20.5851 120.2 18.7825C119.142 18.7123 118.208 18.7079 117.401 18.7725C117.327 18.4584 117.179 17.8339 116.962 16.8985C116.745 15.9649 116.567 15.2169 116.429 14.6545C116.29 14.0921 116.124 13.467 115.93 12.7823C115.735 12.0964 115.5 11.3171 115.226 10.4418C115.847 10.5133 116.614 10.5979 117.521 10.6957C118.422 10.7916 119.309 10.8832 120.183 10.9697C121.051 11.0562 121.784 11.1296 122.384 11.1917C122.981 11.2531 123.871 11.3478 125.045 11.4732C125.826 13.6971 126.467 16.2527 126.968 19.15C126.521 19.0779 126.042 19.0246 125.53 18.9901C125.364 18.9882 125.156 18.9838 124.906 18.9769C124.656 18.9688 124.452 18.9675 124.294 18.9706C124.786 21.6541 125.153 24.2812 125.392 26.8556L125.393 26.8537Z" fill="#1C1514"/>
<path d="M23.5518 36.871C23.5555 37.1218 23.5699 37.4284 23.5518 37.6861C23.4582 39.031 23.1787 40.374 22.4912 41.9496C21.911 43.2894 21.0282 44.7215 20.1204 46.025C19.6831 46.0312 19.4048 46.0218 18.5825 46.0413C17.7584 46.0607 17.1101 46.0726 16.6385 46.0789C17.1445 44.3371 17.6754 42.4562 17.812 41.6988C17.215 42.9728 16.2773 44.8632 15.4175 46.0965L12.494 46.136C14.7662 42.7534 16.009 39.6849 16.2642 36.898H20.2595C20.5291 38.224 20.554 39.7978 20.5571 40.6956C20.7742 39.8486 21.0381 38.2736 21.1255 36.898L23.5518 36.871Z" fill="#1C1514"/>
<path d="M27.1635 39.7445C27.1186 39.8862 26.9744 40.2254 26.9208 40.3821C27.5016 40.3721 28.0313 40.3646 29.1044 40.3821C28.8773 41.1383 28.7394 41.4436 28.4181 42.2631H26.4217L26.0218 42.9433C26.5427 42.9383 27.0998 42.9302 28.4381 42.9176C27.9047 43.949 27.3145 44.9672 26.6687 45.9717L21.5822 46.0275C22.45 44.6763 23.2087 43.1202 23.8569 41.364C24.4764 39.6924 24.8651 38.2071 25.026 36.8973L29.8905 36.9086C29.8256 37.8391 29.7052 38.7952 29.5274 39.7765C28.1723 39.7451 27.6333 39.7338 27.1635 39.7439V39.7445Z" fill="#1C1514"/>
<path d="M33.4311 39.7169C33.3905 39.8573 33.2707 40.2887 33.2221 40.4448C33.7911 40.4348 34.166 40.4285 35.2185 40.4448C35.0114 41.1941 34.8916 41.4518 34.5946 42.2631H32.6606L32.3804 42.885C32.8908 42.88 33.3674 42.8719 34.6807 42.8593C34.1797 43.8813 33.6232 44.8895 33.0106 45.8839L28.284 46.0005C29.1075 44.6638 29.8175 43.1227 30.4146 41.384C30.9867 39.7288 31.3354 38.2567 31.4652 36.9601L35.9772 36.9086C35.9335 37.8309 35.8349 38.7777 35.6821 39.7489C34.3526 39.7181 33.8921 39.7069 33.4317 39.7163L33.4311 39.7169Z" fill="#1C1514"/>
<path d="M42.8905 37.4077C42.6103 37.061 42.2416 36.8911 41.7831 36.898L37.4651 36.972C37.4683 38.1074 37.165 39.604 36.5474 41.4775C35.9372 43.3415 35.2697 44.8281 34.5485 45.9259L39.0467 45.808C39.5233 45.8011 40.0143 45.6225 40.5172 45.2738C41.0194 44.9265 41.4062 44.4832 41.6814 43.9453C42.2185 42.9296 42.6004 42.0436 42.8275 41.2856C43.0527 40.5313 43.1968 39.6686 43.2592 38.6962C43.2935 38.1845 43.1712 37.7557 42.8898 37.4083L42.8905 37.4077ZM38.4028 42.8524C38.8926 41.7659 39.2245 40.7132 39.4017 39.6912C39.635 39.683 39.8184 39.6931 39.9526 39.7219C40.1847 39.7645 40.2814 39.947 40.2427 40.2699C40.1809 40.7997 40.0543 41.3163 39.8634 41.8217C39.6057 42.5013 39.3118 42.8437 38.9831 42.8468L38.4028 42.8518V42.8524Z" fill="#1C1514"/>
</g>
<defs>
<clipPath id="clip0_1568_309">
<rect width="127" height="65" fill="white"/>
</clipPath>
</defs>
</svg>
