<svg width="128" height="65" viewBox="0 0 128 65" fill="none" xmlns="http://www.w3.org/2000/svg">
<path d="M39.407 28.569C39.3246 22.1738 38.1431 15.4862 35.8611 8.44793C35.4392 7.14179 34.8387 6.00251 34.0596 5.02823C33.2774 4.05082 32.3707 3.28043 31.3369 2.71581C30.2981 2.14806 29.1845 1.80364 27.9917 1.68445L14.6831 0.355712C11.9661 0.084696 10.4437 1.11481 10.1501 3.46236C9.99478 4.6995 10.2061 6.17629 10.7833 7.89022C11.3838 9.66249 11.8963 11.6763 12.3188 13.9366C12.7439 16.2014 13.064 18.5019 13.279 20.84C13.4966 23.1863 13.6003 25.1631 13.5909 26.7679C13.6022 28.1386 13.843 29.4072 14.3121 30.5709C14.7818 31.7346 15.5276 32.6794 16.545 33.4046C17.5574 34.1267 18.8131 34.4875 20.304 34.4887L33.2321 34.5C34.2973 34.5013 35.2776 34.3193 36.1749 33.9586C37.0659 33.5985 37.7997 33.0339 38.377 32.2641C38.9523 31.4994 39.2856 30.5376 39.3799 29.3777C39.4076 29.0289 39.4164 28.7591 39.4076 28.5684L39.407 28.569ZM27.1906 13.6769C27.6471 14.8733 27.9741 16.2472 28.1734 17.8024C28.3728 19.3607 28.4558 20.6242 28.4224 21.5935C28.3401 22.4423 28.2099 22.9806 28.0319 23.2064C27.854 23.4323 27.615 23.5402 27.3164 23.5301C26.5146 23.4762 25.9273 23.362 25.5564 23.1863C25.1847 23.01 24.9791 22.5991 24.9408 21.9536C24.815 18.8601 24.339 15.9323 23.5153 13.1594C23.3518 12.5408 23.2757 12.1788 23.2864 12.0728C23.3109 11.8419 23.4794 11.7158 23.7926 11.6976L25.4306 11.8099C26.1481 11.8595 26.7341 12.4818 27.1906 13.6775V13.6769Z" fill="url(#paint0_linear_1534_941)"/>
<path d="M66.4567 31.4391C66.4008 32.7001 66.3391 33.633 66.2687 34.2365C64.8633 34.2346 63.0492 34.2434 60.8126 34.2641C58.5426 34.2854 56.5921 34.2942 54.9767 34.2917C53.233 28.2146 51.9314 24.0828 51.0662 21.8839C51.4567 25.5088 51.5491 28.9473 51.3385 32.2039C51.2793 33.1173 51.2227 33.8112 51.1687 34.2854L41.8285 34.2704C42.1039 30.7127 42.1253 27.2422 41.8964 23.8476C41.6687 20.4737 41.0978 17.0113 40.1829 13.4492C39.2692 9.89586 37.9299 6.24969 36.1598 2.49937L49.3835 3.8187C50.5895 5.52321 51.6051 6.98934 52.4288 8.21895C53.2506 9.44542 54.0266 10.655 54.7547 11.8476C55.4823 13.0376 56.15 14.2008 56.7568 15.3363C55.8878 12.5408 54.3359 8.77353 52.0936 4.01757L60.5567 4.86387C61.769 7.11983 62.7782 9.4059 63.5862 11.7277C64.3949 14.0502 65.0243 16.3432 65.4733 18.6117C65.9222 20.8858 66.2209 23.0809 66.3687 25.1989C66.5158 27.3262 66.5454 29.4053 66.4561 31.4391H66.4567Z" fill="url(#paint1_linear_1534_941)"/>
<path d="M99.7618 34.3005C98.6595 34.2986 97.2384 34.3068 95.4897 34.325C93.7178 34.3444 92.198 34.3526 90.9404 34.3501C89.3602 28.99 88.1956 25.3438 87.4417 23.4046C87.88 26.6054 88.0787 29.6386 88.0372 32.5119C88.0259 33.3162 88.0076 33.9272 87.9825 34.3463L80.7645 34.3344C80.8406 31.2095 80.7248 28.1587 80.4199 25.1732C80.1162 22.2045 79.544 19.1556 78.7014 16.0207C77.8607 12.8921 76.6879 9.68633 75.1801 6.3921L85.4578 7.41719C86.4608 8.91782 87.3053 10.2095 87.9925 11.293C88.6792 12.3739 89.3287 13.4404 89.9406 14.4937C90.5524 15.5439 91.1164 16.5709 91.6314 17.5747C90.8498 15.0998 89.4991 11.7673 87.575 7.56462L94.2202 8.22961C95.2539 10.2277 96.1286 12.256 96.8479 14.3168C97.5667 16.3783 98.1426 18.4147 98.5778 20.4304C99.0129 22.4511 99.3267 24.4009 99.5178 26.2823C99.7096 28.17 99.8077 30.0163 99.8096 31.82C99.8115 32.9385 99.7951 33.7647 99.7631 34.2999L99.7618 34.3005Z" fill="url(#paint2_linear_1534_941)"/>
<path d="M105.083 20.3187C103.782 20.2296 102.769 20.1619 102.051 20.1148C101.331 20.069 100.292 19.9975 98.9293 19.8977C98.9833 19.1719 99.0104 18.4304 99.0097 17.6731C98.9682 13.9115 98.3696 10.8338 97.2133 8.40652L103.225 9.01004C104.497 11.3105 105.146 14.0339 105.173 17.2064C105.178 17.7215 105.148 18.7578 105.083 20.3187Z" fill="url(#paint3_linear_1534_941)"/>
<path d="M123.657 28.308C123.007 26.1637 122.224 24.0176 121.308 21.8658C120.389 19.7114 119.409 17.6531 118.367 15.6895C117.321 13.7196 116.294 11.9536 115.286 10.3921L108.409 9.70703C108.795 11.3143 109.094 13.0853 109.305 15.0245C109.518 16.9711 109.64 19.0113 109.673 21.1493C109.741 25.7077 109.403 30.1129 108.647 34.3796L114.74 34.3896C114.776 33.9868 114.94 33.0941 115.228 31.7158C115.702 31.7221 116.375 31.7359 117.242 31.7566C118.103 31.7779 118.776 31.7911 119.265 31.7974C119.353 32.4931 119.531 33.3595 119.801 34.3977L124.992 34.4059C124.752 32.4868 124.308 30.4548 123.657 28.3087L123.657 28.308ZM115.611 25.2572C115.619 24.9762 115.631 24.4003 115.611 23.5339C115.584 22.3839 115.396 20.4235 115.306 19.6813C115.696 20.372 116.48 22.0477 116.83 22.926C117.181 23.803 117.53 24.5979 117.744 25.2578H115.61L115.611 25.2572Z" fill="url(#paint4_linear_1534_941)"/>
<path d="M25.3929 36.4141L20.3474 36.3996C19.8758 39.2384 18.6093 42.2961 16.5582 45.5784C17.0204 45.5722 17.497 45.5703 17.9862 45.5715C18.4742 45.5734 18.8929 45.5715 19.2425 45.5678C20.0424 44.4686 20.6907 43.4435 21.1843 42.4919C22.0275 42.4787 22.6626 42.4668 23.0908 42.4561C24.2654 42.441 25.1149 41.9078 25.6425 40.852C26.1839 39.7466 26.5065 38.825 26.6046 38.086C26.7548 36.9699 26.3518 36.4109 25.3935 36.4141H25.3929ZM23.6555 39.2271C23.6649 39.4103 23.624 39.5922 23.5423 39.756C23.4863 39.9078 23.3392 40.0602 23.1361 40.0602C22.8079 40.0602 22.1728 40.0521 21.9168 40.0602C22.0005 39.8614 22.2665 39.1054 22.323 38.9448C22.5243 38.9448 22.9682 38.9423 23.2933 38.9435C23.4379 38.9442 23.5706 39.0213 23.6429 39.1462V39.1474C23.6498 39.1587 23.6536 39.1882 23.6555 39.2271Z" fill="url(#paint5_linear_1534_941)"/>
<path d="M32.5775 36.4498L29.343 36.4335C28.823 37.6989 27.9886 39.1631 26.8429 40.8243C25.7016 42.4799 24.471 44.0182 23.1499 45.4404L25.9192 45.4072C26.3185 44.968 26.6203 44.6468 26.8246 44.4461L27.7792 44.436C28.0036 44.441 28.3237 44.441 28.7393 44.4373C28.6004 44.6738 28.4539 44.9881 28.3011 45.3783L30.8282 45.3469C31.6513 43.9053 32.2053 42.2371 32.4876 40.3363C32.6983 38.9222 32.7285 37.6261 32.5769 36.4498H32.5775ZM28.623 42.0878C29.0946 41.4523 29.763 40.4536 30.046 39.9586C30.0573 40.4272 29.9473 41.4285 29.741 42.0878H28.623Z" fill="url(#paint6_linear_1534_941)"/>
<path d="M36.932 39.5609C36.9188 39.6468 36.9949 39.6863 37.1615 39.6794C37.7532 39.6782 38.2481 39.6775 38.6455 39.6775C39.4918 39.6838 39.8515 40.0659 39.7257 40.8231C39.693 41.0207 39.6232 41.2378 39.5164 41.4718C39.3667 41.8011 39.2208 42.1336 39.0775 42.4693C38.9127 42.8131 38.7241 43.1374 38.5115 43.4435C38.1556 43.9617 37.7148 44.3927 37.1873 44.7371C36.6597 45.0828 36.1724 45.2585 35.7222 45.2635L31.1363 45.3093C31.7595 44.3783 32.3751 43.4134 32.9837 42.4128L35.9907 42.3927C36.0108 42.3927 36.0611 42.3996 36.1409 42.4128C36.195 42.4197 36.2384 42.4166 36.2717 42.4015C36.3044 42.3865 36.3365 42.3457 36.3673 42.2798C36.3956 42.2353 36.4107 42.2026 36.4138 42.1807C36.4258 42.1079 36.3346 42.0753 36.1416 42.0834C35.7492 42.0853 35.2015 42.0897 34.4973 42.0935C33.8867 42.1048 33.6283 41.7936 33.7251 41.1575C33.7597 40.9285 33.8421 40.6619 33.9722 40.3563C34.2294 39.7177 34.4312 39.1136 34.5778 38.5458C34.723 37.9768 34.9707 37.4931 35.3185 37.0947C35.7329 36.6223 36.2095 36.3908 36.7452 36.4015L40.5243 36.4316C40.3269 37.4172 40.0722 38.4028 39.7591 39.3871C38.8391 39.3658 37.9972 39.3589 37.2319 39.367C37.1778 39.3601 37.1231 39.3557 37.0684 39.3557C37.0269 39.3557 36.9955 39.3833 36.9729 39.4366C36.9502 39.4906 36.937 39.532 36.932 39.5602V39.5609Z" fill="url(#paint7_linear_1534_941)"/>
<path d="M14.8265 46.0734L11.3543 46.1161C11.3348 46.256 11.3134 46.4053 11.292 46.5652C11.1505 47.5772 10.777 48.8344 10.1639 50.3438C9.56846 51.8099 8.95789 53.0195 8.3316 53.9655L11.8724 53.9856C12.654 53.9918 13.279 53.5828 13.7462 52.7616C14.1568 52.0376 14.3681 51.6606 14.3832 51.6274C14.6039 51.1945 14.7341 50.8262 14.7712 50.522C14.8007 50.2848 14.7774 50.0665 14.7032 49.8701C15.117 49.5069 15.3924 49.0872 15.5276 48.6098C15.6364 48.2252 15.7093 47.8846 15.7452 47.5866C15.8703 46.5565 15.5634 46.0533 14.8265 46.0728V46.0734ZM12.3641 51.4153H11.6529C11.7322 51.2572 11.8856 50.8507 11.9579 50.7058C12.2069 50.6976 12.444 50.7058 12.5678 50.7058C12.5678 50.7058 12.642 50.7058 12.6634 50.9586C12.6747 51.0885 12.637 51.2215 12.5502 51.3193C12.5024 51.3727 12.4408 51.4153 12.3647 51.4153H12.3641ZM13.1771 49.0834C12.9608 49.0853 12.6923 49.069 12.5672 49.0834C12.6087 48.9235 12.7276 48.4385 12.7703 48.2723H13.2784C13.3513 48.2654 13.5041 48.5013 13.4815 48.6775C13.462 48.8206 13.2689 49.0828 13.1765 49.0828L13.1771 49.0834Z" fill="url(#paint8_linear_1534_941)"/>
<path d="M17.9825 48.5358C17.9428 48.6606 17.8988 48.7911 17.8523 48.9291C18.2648 48.9197 18.8552 48.9228 19.6224 48.9385C19.4149 49.6035 19.1734 50.2949 18.8955 51.0138L17.1191 51.0201L16.9889 51.3306C17.3568 51.3294 18.017 51.3275 18.9728 51.3243C18.532 52.2259 18.0523 53.1136 17.536 53.9856L13.4985 53.9655C14.1751 52.8074 14.7888 51.4661 15.3409 49.9467C15.8703 48.495 16.2268 47.2001 16.4149 46.0596L20.3656 46.032C20.2637 46.8545 20.1216 47.6976 19.9368 48.5627C18.9672 48.5364 18.3157 48.5282 17.9818 48.5364L17.9825 48.5358Z" fill="url(#paint9_linear_1534_941)"/>
<path d="M24.5849 49.8425C24.5698 50.022 24.5258 50.219 24.4541 50.4329C24.3535 50.734 24.2541 51.0389 24.1573 51.3476C24.0447 51.665 23.9102 51.9649 23.7567 52.2491C23.4989 52.7309 23.1682 53.1324 22.7657 53.4523C22.3621 53.7735 21.9835 53.9341 21.6289 53.9341L18.0699 53.9241C18.5364 53.0652 18.9923 52.1813 19.4388 51.2729L21.7433 51.266C21.7597 51.2647 21.798 51.2723 21.8609 51.2854C21.9024 51.2924 21.9364 51.2886 21.9615 51.2754C21.9867 51.2622 22.0106 51.2246 22.0319 51.165C22.0521 51.1242 22.0621 51.0941 22.0646 51.074C22.0715 51.0082 21.9999 50.9774 21.8502 50.9849C21.5484 50.9862 21.1265 50.9881 20.5863 50.9887C20.1197 50.9981 19.9166 50.7158 19.9764 50.1462C19.9978 49.9404 20.0537 49.7033 20.1449 49.4323C20.3247 48.8676 20.4618 48.3363 20.5574 47.8413C20.653 47.3476 20.8246 46.9291 21.0736 46.5853C21.3692 46.1775 21.7169 45.9762 22.1174 45.978L24.9791 45.9617C24.8785 46.8162 24.7314 47.6813 24.539 48.554C23.8265 48.5389 23.1782 48.537 22.5922 48.5471C22.5507 48.5408 22.5086 48.5376 22.4671 48.5376C22.4356 48.5376 22.4124 48.5621 22.3966 48.6098C22.3815 48.6575 22.3721 48.6939 22.3702 48.7196C22.3633 48.7955 22.423 48.8312 22.5501 48.8231C23.0034 48.8212 23.3845 48.8181 23.6901 48.8168C24.3453 48.8187 24.6446 49.1606 24.5842 49.8438L24.5849 49.8425Z" fill="url(#paint10_linear_1534_941)"/>
<path d="M30.1516 46.2585C29.9869 46.0546 29.7511 45.9586 29.4436 45.9674L26.9384 45.99C26.5329 45.9937 26.1877 46.2008 25.9009 46.6123C25.667 46.9385 25.5035 47.3507 25.4092 47.8482C25.2954 48.4329 25.0791 49.1732 24.7565 50.0703C24.4748 50.8601 24.1874 51.5759 23.8957 52.2177C23.729 52.5834 23.6322 52.9059 23.6083 53.1851C23.5586 53.7378 23.7844 54.0157 24.2862 54.0157H26.7649C27.129 54.0157 27.4773 53.8984 27.8106 53.665C28.1885 53.4034 28.4903 53.0201 28.7173 52.5144C29.4593 50.8789 29.9906 49.1957 30.3151 47.4686C30.3396 47.3501 30.3547 47.2384 30.361 47.133C30.3862 46.7541 30.3164 46.4617 30.1529 46.2591L30.1516 46.2585ZM26.4863 51.1688C26.4901 51.1148 26.509 51.054 26.541 50.9875C26.8624 50.2422 27.0969 49.5376 27.244 48.8733C27.295 48.6349 27.3679 48.5157 27.4635 48.5144C27.5062 48.5213 27.5591 48.5226 27.6232 48.5182C27.6873 48.5151 27.7383 48.5132 27.7754 48.5132C27.8923 48.5119 27.9433 48.6236 27.9257 48.8488C27.9074 49.0941 27.8169 49.4442 27.654 49.8971C27.5301 50.2654 27.4031 50.5878 27.2749 50.8632C27.1145 51.1939 26.9617 51.3557 26.8177 51.3488C26.5869 51.3501 26.4763 51.2898 26.4857 51.1681L26.4863 51.1688Z" fill="url(#paint11_linear_1534_941)"/>
<path d="M32.9077 45.9354C32.697 47.3708 32.3952 48.7196 32.0034 49.9774C31.6205 51.212 31.0929 52.5376 30.4182 53.953L28.4425 53.9542C29.7385 51.1826 30.5798 48.5157 30.9797 45.9536L32.9077 45.9354Z" fill="url(#paint12_linear_1534_941)"/>
<path d="M38.8719 46.5326C38.831 47.7321 38.5763 49.032 38.1035 50.4329C37.7073 51.6211 37.1917 52.788 36.5579 53.9316C36.241 53.9316 35.7863 53.9354 35.1934 53.9429C34.601 53.9498 34.1364 53.953 33.7999 53.953C34.125 52.4304 34.3281 51.34 34.4105 50.675C34.01 51.7905 33.5164 52.8833 32.9309 53.953H30.8704C32.4009 51.027 33.2177 48.345 33.3415 45.9021L36.2145 45.8758C36.4384 47.0477 36.561 48.0333 36.5824 48.8281C36.7226 48.0778 36.81 47.0903 36.8446 45.8695L38.8712 45.8513C38.8794 46.0747 38.8807 46.3018 38.8725 46.5326H38.8719Z" fill="url(#paint13_linear_1534_941)"/>
<path d="M55.5231 37.5245C55.0396 36.5358 54.3466 36.0496 53.4418 36.0646L44.0733 36.0496C43.8947 39.3231 43.0408 43.6192 41.5034 48.9655C39.988 54.2547 38.4254 58.4636 36.8157 61.5728L46.5074 61.1468C47.443 61.1035 48.4321 60.5853 49.4747 59.5966C50.5122 58.6129 51.3435 57.3733 51.9717 55.8758C53.1985 53.0408 54.0989 50.569 54.6787 48.4479C55.2572 46.3363 55.6979 43.9122 56.0029 41.1744C56.1664 39.7284 56.0067 38.5132 55.5231 37.5245ZM49.7998 45.6456C49.5841 47.1412 49.2458 48.5998 48.7836 50.0232C48.1599 51.9341 47.5223 52.9028 46.8733 52.9216L45.7239 52.9561C46.874 49.8921 47.7097 46.9147 48.236 44.0188C48.7006 43.9925 49.0622 44.0201 49.3213 44.0991C49.7734 44.2177 49.9331 44.7328 49.7998 45.6456Z" fill="url(#paint14_linear_1534_941)"/>
<path d="M62.3544 43.8538C62.2633 44.2384 62.1652 44.6424 62.0589 45.0671C63.1033 45.0314 64.5873 45.0307 66.5007 45.0634C66.0373 47.091 65.4896 49.197 64.8564 51.3839L60.3901 51.5088L60.0882 52.463C61.0233 52.4348 62.6896 52.3852 65.0727 52.3137C64.0497 55.0583 62.9304 57.7635 61.7149 60.4297L51.3209 60.8576C52.9639 57.224 54.4196 53.0339 55.6917 48.2886C56.9153 43.7453 57.7089 39.6838 58.0805 36.0878L68.135 36.1669C67.9407 38.6932 67.6471 41.2767 67.2522 43.9172C64.8376 43.8463 63.1995 43.825 62.3538 43.8545L62.3544 43.8538Z" fill="url(#paint15_linear_1534_941)"/>
<path d="M86.5362 37.655C86.1168 36.7403 85.5069 36.2905 84.7058 36.3055L76.5414 36.2955C76.1887 40.0339 75.431 44.1863 74.262 48.771C73.0843 53.3934 71.8311 57.1255 70.5018 59.9548L75.4618 59.7208C76.5408 57.2673 77.4463 54.8237 78.1801 52.3896C78.3826 53.1857 78.4505 54.1706 78.3832 55.3482C78.3209 56.4479 78.1361 57.8676 77.8273 59.6104L82.4176 59.3946C82.9999 57.3858 83.3344 55.5784 83.4218 53.9674C83.4746 52.9994 83.4369 52.0238 83.3099 51.0414C84.3725 50.2993 85.2459 48.766 85.932 46.4504C86.423 44.8344 86.762 43.0358 86.95 41.0514C87.0933 39.7001 86.955 38.5684 86.5356 37.655H86.5362ZM81.9743 43.8112C81.968 43.9084 82.007 44.468 81.9743 44.6223C81.8906 45.0107 81.5737 45.1073 81.3643 45.1292C79.8401 45.1292 79.8502 45.1223 79.3321 45.1292C79.4408 44.7014 79.6125 43.7898 79.7383 43.3043C80.2709 43.2792 81.1468 43.3093 81.5674 43.3043C81.6882 43.303 81.9881 43.5414 81.9737 43.8112H81.9743Z" fill="url(#paint16_linear_1534_941)"/>
<path d="M97.5742 37.2152C97.2246 36.6305 96.7216 36.345 96.0632 36.3607L90.6153 36.3344C89.718 36.3306 88.9546 36.9222 88.3289 38.1136C87.819 39.0615 87.4662 40.2597 87.2713 41.7064C87.0399 43.4046 86.5815 45.5489 85.8955 48.1468C85.2956 50.4279 84.6819 52.4962 84.0531 54.3519C83.6947 55.4097 83.4935 56.3381 83.4494 57.1343C83.3639 58.7095 83.8846 59.4711 85.0051 59.4184L90.4386 59.1612C91.2233 59.1236 91.9691 58.7647 92.6765 58.0853C93.4769 57.3287 94.1133 56.2409 94.5861 54.8237C96.138 50.2378 97.2479 45.5176 97.9232 40.6531C97.9729 40.3187 98.0056 40.0031 98.02 39.7064C98.0716 38.6305 97.9232 37.8011 97.5748 37.2164L97.5742 37.2152ZM89.7595 51.2014C89.7664 51.0496 89.8054 50.8758 89.8745 50.6844C90.5562 48.5565 91.0504 46.5471 91.3573 44.6499C91.4616 43.9686 91.6182 43.6267 91.827 43.6242C91.9194 43.6424 92.0351 43.6455 92.1747 43.6343C92.3143 43.623 92.425 43.6173 92.5048 43.6161C92.7589 43.6129 92.8708 43.9322 92.8381 44.5721C92.8022 45.2704 92.6136 46.2635 92.2709 47.554C92.0087 48.5991 91.7415 49.5151 91.4692 50.2986C91.1309 51.2384 90.8033 51.7039 90.4895 51.6939C89.9852 51.7089 89.7419 51.5458 89.7601 51.202L89.7595 51.2014Z" fill="url(#paint17_linear_1534_941)"/>
<path d="M109.43 36.3432C109.044 43.0113 107.958 48.82 106.16 53.7785C105.686 55.1029 105.056 56.2014 104.267 57.0759C103.473 57.9542 102.71 58.4109 101.977 58.4454L96.8278 58.6876C95.7771 58.7371 95.2872 58.0044 95.3614 56.4906C95.3998 55.7158 95.5878 54.8036 95.9242 53.756C97.7452 48.0445 98.9016 42.2585 99.4065 36.3752C100.299 36.3802 101.726 36.3589 103.675 36.3143C103.052 41.9931 102.254 46.7164 101.281 50.4762C101.147 50.9617 101.136 51.2033 101.246 51.2001L102.628 51.1587C102.86 51.1518 103.064 50.8131 103.237 50.1437C103.787 47.9925 104.228 45.7691 104.562 43.4724C104.803 41.7679 105.063 39.4015 105.342 36.377C106.101 36.3802 106.82 36.3752 107.5 36.3601C108.467 36.3469 109.109 36.3407 109.429 36.3432H109.43Z" fill="url(#paint18_linear_1534_941)"/>
<path d="M119.385 36.4454C119.368 38.4166 119.089 40.7277 118.547 43.3852C117.913 43.357 117.039 43.3683 115.923 43.4166C115.106 47.6838 113.733 52.5295 111.788 57.9849L107.801 58.1725C109.75 52.3739 111.118 47.5107 111.921 43.5464C110.746 43.5609 109.834 43.6267 109.188 43.7434C109.345 42.5828 109.499 41.4184 109.652 40.2528C109.803 39.0891 109.909 37.7861 109.973 36.3457L119.385 36.4461V36.4454Z" fill="url(#paint19_linear_1534_941)"/>
<path d="M123.417 43.1424C123.355 43.4762 123.287 43.8269 123.213 44.1957C124.001 44.1675 125.123 44.1681 126.571 44.1995C126.253 45.9617 125.871 47.7917 125.427 49.6895L122.056 49.7836L121.843 50.6098C122.548 50.5885 123.805 50.5508 125.604 50.4975C124.874 52.8783 124.072 55.2208 123.197 57.5289L115.384 57.8432C116.558 54.7083 117.585 51.0847 118.465 46.9774C119.313 43.0414 119.847 39.5176 120.07 36.3959L127.669 36.4599C127.561 38.6587 127.379 40.9065 127.121 43.2033C125.293 43.1386 124.054 43.1179 123.416 43.1424H123.417Z" fill="url(#paint20_linear_1534_941)"/>
<path d="M25.6922 40.8269C25.1646 41.8858 24.3591 42.4875 23.1713 42.5006C22.7387 42.5107 22.0753 42.4887 21.2221 42.5006C20.7234 43.458 20.0405 44.4567 19.2313 45.5646C18.8766 45.569 18.4516 45.5703 17.9561 45.5684C17.4593 45.5665 16.9758 45.5684 16.506 45.574C18.5855 42.266 19.8626 39.1951 20.3336 36.3519L25.4212 36.3808C26.387 36.3808 26.7951 36.941 26.6499 38.0571C26.5537 38.7961 26.2342 39.7196 25.6922 40.8256V40.8269ZM26.2418 38.4385C26.3223 37.9831 26.2776 37.6292 26.1072 37.377C25.9368 37.1242 25.662 36.9969 25.2841 36.9937L20.7637 36.963C20.553 38.2365 20.0971 39.6738 19.3979 41.2729C18.7898 42.6763 18.0875 44.0157 17.2895 45.2923C17.5486 45.2892 17.8661 45.2898 18.2415 45.2923C18.6163 45.2955 18.9288 45.2961 19.1784 45.293C19.9739 44.2089 20.5958 43.1769 21.0435 42.1976C21.4472 42.1882 22.2156 42.1775 23.3449 42.165C24.2805 42.1537 24.942 41.7497 25.3325 40.9523C25.8016 39.9956 26.1047 39.1575 26.2411 38.4385H26.2418ZM23.9856 39.5364C23.9743 39.5671 23.958 39.6123 23.936 39.6732C23.7769 40.1299 23.4864 40.3576 23.0638 40.3582C22.5746 40.3582 22.1458 40.3632 21.7785 40.3708C21.8974 40.1186 22.0747 39.6531 22.3124 38.9724C22.7324 38.958 23.1764 38.9517 23.6436 38.9523C23.7674 38.9523 23.8636 38.9987 23.9328 39.0903C24.0014 39.1819 24.0278 39.2923 24.0114 39.4222C24.0058 39.468 23.9969 39.5063 23.9863 39.5364H23.9856ZM23.4713 39.5816C23.4832 39.5433 23.4769 39.5038 23.4537 39.4611C23.4298 39.4191 23.3996 39.3977 23.3631 39.3977C23.0563 39.3977 22.7632 39.4009 22.4834 39.4078C22.4268 39.5684 22.3577 39.7478 22.2747 39.946C22.5318 39.9385 22.8249 39.9348 23.1537 39.9348C23.2776 39.9348 23.3675 39.8588 23.4229 39.7058L23.4713 39.5803V39.5816Z" fill="#1C1514"/>
<path d="M32.6033 36.4153C32.7631 37.5916 32.6876 38.9084 32.4883 40.325C32.2198 42.2321 31.6777 43.9078 30.8628 45.3582L28.2646 45.3865C28.4162 44.9931 28.5671 44.6838 28.7048 44.4454C28.2879 44.4492 28.0232 44.4442 27.7974 44.4385L26.8391 44.4479C26.6348 44.6506 26.3329 44.9737 25.9336 45.4166L23.1474 45.4492C24.4723 44.0144 25.7022 42.4674 26.8398 40.8049C27.9791 39.1393 28.8054 37.6744 29.3185 36.4103L32.6033 36.4159V36.4153ZM32.2179 36.9806L29.6411 36.963C29.2034 38.0408 28.43 39.3908 27.322 41.0138C26.2355 42.596 25.1602 43.9661 24.0938 45.1255L25.9412 45.1048C26.1518 44.9065 26.4606 44.5872 26.8668 44.1468L29.4361 44.1236C29.3977 44.2484 29.3235 44.4065 29.2135 44.5972C29.0934 44.8105 29.0123 44.9686 28.9701 45.0709L30.7892 45.0508C31.447 43.8821 31.8972 42.4348 32.1399 40.7014C32.3361 39.3024 32.3619 38.0615 32.2166 36.9806H32.2179ZM30.5692 38.8626C30.5805 39.5038 30.5428 40.1393 30.4566 40.7698C30.3654 41.436 30.2252 42.0232 30.0359 42.5307L28.1256 42.5414C29.1248 41.3319 29.914 40.106 30.4943 38.8626H30.5685H30.5692ZM29.8857 40.3607C29.6058 40.857 29.2317 41.4241 28.7633 42.0627L29.6021 42.059C29.8052 41.3971 29.8995 40.8306 29.8857 40.3607Z" fill="#1C1514"/>
<path d="M40.5262 36.4435C40.3395 37.4228 40.0741 38.4467 39.7717 39.4266C38.8499 39.4034 37.8224 39.4266 37.0678 39.3639C36.8867 39.3488 37.1206 39.3639 37.0678 39.3639C37.0263 39.3639 37.0194 39.372 36.998 39.426C36.976 39.4799 36.9628 39.5207 36.959 39.5489C36.9458 39.6355 37.0232 39.675 37.1904 39.6675C37.784 39.6675 38.2802 39.6681 38.6788 39.6688C39.5277 39.6769 39.8924 40.059 39.7748 40.8137C39.744 41.0113 39.6761 41.2271 39.5723 41.4611C39.4258 41.7898 39.2825 42.1223 39.1422 42.458C38.98 42.8005 38.7939 43.1248 38.5832 43.4316C38.2311 43.9492 37.7922 44.3802 37.2653 44.7258C36.7383 45.0715 36.2642 45.2566 35.8109 45.2616L31.0948 45.3243C31.7174 44.3908 32.3757 43.3777 32.9813 42.3758H36.0385C36.0592 42.3758 36.1253 42.3758 36.1881 42.3758H36.251L36.3139 42.313C36.3504 42.2767 36.3736 42.2095 36.3768 42.1876C36.3875 42.1142 36.3824 42.1167 36.1881 42.1248C35.7939 42.1267 35.1362 42.1217 34.4275 42.1248C33.8132 42.1349 33.5811 41.8187 33.6729 41.1838C33.7063 40.9548 33.8597 40.6092 33.9873 40.3055C34.2407 39.6675 34.4426 39.0979 34.5847 38.532C34.7268 37.9649 34.9708 37.4837 35.316 37.0891C35.7285 36.6192 36.2039 36.3908 36.7402 36.4028L40.5262 36.4448V36.4435ZM40.1232 36.9762L36.6616 36.9523C36.3013 36.9498 35.9857 37.0979 35.7165 37.3971C35.4468 37.6964 35.2525 38.0866 35.1343 38.5671C34.9859 39.1575 34.7771 39.7804 34.5092 40.4354C34.4005 40.707 34.3332 40.9348 34.3068 41.1186C34.2445 41.5508 34.4206 41.766 34.8356 41.7641C35.2085 41.7629 35.7555 41.7604 36.4768 41.7578C36.8742 41.7566 37.0571 41.8582 37.0263 42.0634C37.0131 42.1512 36.9723 42.2654 36.9037 42.4046C36.7956 42.6242 36.6648 42.7679 36.5113 42.8344C36.4019 42.8789 36.2202 42.9021 35.9662 42.9034C35.2783 42.9065 34.3879 42.9109 33.2925 42.9166C32.8253 43.7039 32.3902 44.3946 31.9865 44.9893L36.0913 44.9442C36.4397 44.9404 36.8301 44.7967 37.2634 44.5132C37.696 44.2302 38.0569 43.8739 38.3462 43.4435C38.7304 42.8814 39.0442 42.2465 39.2888 41.5383C39.3485 41.3701 39.3887 41.2202 39.4089 41.0885C39.4988 40.5025 39.2252 40.2051 38.587 40.1982C38.1984 40.1982 37.7098 40.1982 37.1207 40.1982C36.749 40.2058 36.578 40.1041 36.6094 39.894C36.6226 39.8068 36.6522 39.6982 36.6994 39.5671C36.7868 39.3494 36.9012 39.2039 37.0427 39.1317C37.1383 39.0885 37.3068 39.0665 37.5476 39.0671C38.3091 39.0615 38.9989 39.0634 39.6176 39.0715C39.8182 38.4335 39.9867 37.7346 40.1238 36.9749L40.1232 36.9762Z" fill="#1C1514"/>
<path d="M15.5792 48.6361C15.4452 49.1167 15.1686 49.5402 14.7498 49.9053C14.8277 50.1035 14.8535 50.3225 14.8259 50.5621C14.7906 50.8689 14.6624 51.2397 14.441 51.675C14.4266 51.7089 14.2134 52.0885 13.8015 52.8168C13.3331 53.6437 12.6974 54.0558 11.8975 54.0496L8.26935 54.0307C8.90004 53.0772 9.51249 51.8576 10.1054 50.3795C10.716 48.857 11.0857 47.5885 11.2184 46.5665L11.2775 46.1129L14.8347 46.0772C15.5892 46.059 15.9087 46.5665 15.7917 47.6048C15.7577 47.9046 15.6873 48.2484 15.5804 48.6355L15.5792 48.6361ZM15.498 47.6512C15.5502 47.2729 15.5056 46.9912 15.3641 46.8043C15.2226 46.6173 15.0126 46.5251 14.7341 46.527L11.6485 46.5489L11.6108 46.8501C11.5026 47.7083 11.1543 48.8908 10.562 50.4059C9.99226 51.8764 9.45653 52.9987 8.95663 53.7654L12.117 53.7629C12.4226 53.7698 12.6772 53.7146 12.8816 53.5991C13.147 53.4567 13.3828 53.1982 13.5903 52.8262C13.7437 52.5496 13.8971 52.271 14.0505 51.9912C14.2033 51.712 14.3341 51.4454 14.4417 51.1907C14.4857 51.0834 14.514 50.9705 14.5278 50.8501C14.5492 50.6637 14.5316 50.4925 14.4762 50.3363C14.4209 50.1807 14.331 50.0765 14.2059 50.0238C14.2109 50.0238 14.2115 50.0207 14.2071 50.0138C14.4354 49.9398 14.6561 49.7804 14.8692 49.5345C15.0824 49.2892 15.2214 49.0351 15.2874 48.7716C15.349 48.5483 15.4194 48.1744 15.498 47.6512ZM12.9583 51.0301C12.9451 51.0508 12.9256 51.0841 12.8992 51.1311C12.671 51.5502 12.4276 51.761 12.1704 51.7616C11.9919 51.7616 11.7196 51.7591 11.3536 51.7535C11.5944 51.2867 11.7887 50.8789 11.9365 50.5295C11.973 50.5295 12.2471 50.5282 12.7596 50.5264C12.9589 50.5195 13.0464 50.623 13.0206 50.8381C13.013 50.899 12.9923 50.963 12.9583 51.0301ZM12.5697 51.1223C12.5961 51.0759 12.6112 51.0389 12.6144 51.0119C12.6156 50.9586 12.598 50.9316 12.5615 50.9322C12.4358 50.9322 12.2471 50.9366 11.9956 50.9442C11.9252 51.091 11.8516 51.2447 11.7743 51.4053L12.2453 51.404C12.3647 51.4103 12.4729 51.3162 12.5697 51.1223ZM13.7632 48.7258C13.7563 48.739 13.75 48.7723 13.7437 48.825C13.7123 49.0031 13.6399 49.1449 13.5255 49.2509C13.4117 49.357 13.2815 49.4103 13.1356 49.4109C12.7867 49.4122 12.5213 49.4335 12.3396 49.4737C12.4672 49.0646 12.576 48.643 12.6647 48.2102C12.769 48.2033 13.0445 48.1951 13.4915 48.1857C13.5852 48.1857 13.6594 48.2371 13.7141 48.3419C13.7695 48.4467 13.7852 48.5747 13.7626 48.7258H13.7632ZM13.2954 48.5878L12.8124 48.5903C12.7716 48.7578 12.7728 48.8639 12.7326 49.0251C12.859 49.0113 12.891 49.0251 13.1099 49.0251C13.201 49.0251 13.2356 49.0251 13.3614 48.8996C13.4243 48.7742 13.3683 48.5803 13.2947 48.5878H13.2954Z" fill="#1C1514"/>
<path d="M20.4046 45.9668C20.309 46.8024 20.1443 47.707 19.9644 48.5866C18.9772 48.5583 18.3553 48.5784 18.0151 48.5866C17.9755 48.7133 17.9359 48.7604 17.8894 48.9003C18.31 48.8915 18.8942 48.904 19.6758 48.9203C19.4714 49.596 19.2319 50.2986 18.9564 51.0282L17.148 51.0339L17.0719 51.2842C17.4467 51.2829 18.112 51.2867 19.0841 51.2842C18.6439 52.2001 18.1201 53.1593 17.6033 54.0445L13.4878 53.9818C14.1656 52.8055 14.7781 51.4862 15.3245 49.941C15.8489 48.4649 16.1998 47.1481 16.379 45.9868L20.4046 45.9668ZM20.2147 46.436L16.8368 46.4599C16.6877 47.4078 16.367 48.5922 15.8715 50.0188C15.3503 51.5069 14.8145 52.7353 14.2662 53.6982L17.7114 53.6957C18.1044 53.0232 18.4446 52.3877 18.7326 51.788C17.8542 51.7942 17.2027 51.7949 16.7789 51.7892C16.9393 51.3796 17.0776 51.0213 17.1933 50.7139L18.9753 50.7083C19.1526 50.2428 19.3061 49.7986 19.4362 49.3764C18.7986 49.3576 18.2 49.3526 17.6404 49.362C17.7793 48.9448 17.9013 48.5659 18.0057 48.2233C18.4679 48.2077 19.1124 48.2146 19.9393 48.2434C20.0499 47.687 20.1417 47.0847 20.214 46.436H20.2147Z" fill="#1C1514"/>
<path d="M24.9948 45.9511C24.8999 46.8131 24.7578 47.6844 24.5691 48.564C23.8429 48.5477 23.1801 48.5445 22.5827 48.5546C22.54 48.5483 22.4972 48.5452 22.4545 48.5452C22.4224 48.5452 22.3985 48.5696 22.3834 48.6173C22.3683 48.665 22.3595 48.702 22.3576 48.7277C22.3507 48.8049 22.5387 48.7811 22.6683 48.7735C23.1317 48.771 23.4241 48.7748 23.7372 48.7735C24.4063 48.7767 24.6829 49.1744 24.6282 49.862C24.6138 50.0427 24.571 50.2409 24.4993 50.4561C24.3987 50.7591 24.3006 51.0665 24.205 51.3777C24.0919 51.6964 23.9586 51.9987 23.8039 52.2842C23.5454 52.7691 23.2122 53.1725 22.8047 53.495C22.396 53.8181 22.0112 53.9799 21.649 53.9799L18.0132 53.9711C18.4811 53.106 19.0137 52.1355 19.4607 51.2196H21.7244C21.7408 51.2196 21.7873 51.2196 21.8502 51.2196H21.9759C22.0017 51.2064 21.8917 51.2804 21.9131 51.2196C21.9332 51.1788 21.9477 51.1512 21.9759 51.0941C22.0061 51.0333 21.9998 51.0019 21.8477 51.0094C21.5389 51.0107 21.1082 51.0119 20.5561 51.0132C20.0795 51.0213 19.8456 50.7277 19.9009 50.1531C19.921 49.9467 19.999 49.6725 20.0895 49.4003C20.2675 48.83 20.4033 48.3388 20.4964 47.8394C20.5888 47.3413 20.7605 46.9197 21.0114 46.5728C21.31 46.1619 21.6641 45.9586 22.0728 45.9617L24.9942 45.9498L24.9948 45.9511ZM24.7087 46.4222L22.0149 46.441C21.7376 46.4429 21.5006 46.5753 21.3031 46.8381C21.1051 47.1016 20.968 47.4448 20.8913 47.8676C20.7944 48.3902 20.6511 48.9448 20.4618 49.5307C20.3851 49.7754 20.3386 49.9799 20.3228 50.1455C20.2857 50.537 20.4291 50.7321 20.7536 50.7309C21.0453 50.7296 21.4754 50.7284 22.0439 50.7265C22.3583 50.7252 22.5073 50.8193 22.4909 51.0075C22.484 51.0885 22.4557 51.1932 22.4067 51.3212C22.3293 51.5238 22.2306 51.6562 22.1111 51.7177C22.0256 51.7585 21.8823 51.7792 21.681 51.7798C21.1365 51.7798 20.4354 51.7804 19.5783 51.7811C19.2306 52.5044 18.9043 53.1418 18.5987 53.6939L21.8533 53.6913C22.1331 53.6913 22.4419 53.559 22.7796 53.2949C23.1166 53.0314 23.3926 52.6976 23.6064 52.2949C23.89 51.771 24.112 51.1813 24.2742 50.5276C24.3138 50.3726 24.3384 50.2353 24.3484 50.1142C24.3912 49.5784 24.1585 49.3099 23.6511 49.3049C23.343 49.3061 22.9569 49.308 22.4935 49.3099C22.2017 49.3181 22.064 49.2271 22.081 49.0383C22.0879 48.9599 22.1074 48.8626 22.1394 48.7453C22.1998 48.5502 22.2834 48.4203 22.3916 48.3551C22.4645 48.3156 22.5953 48.2955 22.784 48.2949C23.3813 48.2854 23.9252 48.2823 24.4151 48.2861C24.5421 47.7139 24.6402 47.0922 24.71 46.4216L24.7087 46.4222Z" fill="#1C1514"/>
<path d="M30.4163 47.463C30.0963 49.2001 29.5631 50.8915 28.8129 52.5345C28.584 53.0427 28.2765 53.4279 27.8898 53.6901C27.549 53.9253 27.1912 54.0427 26.8158 54.0427L24.2616 54.0439C23.7435 54.0439 23.5083 53.7654 23.5542 53.2095C23.5775 52.9291 23.6737 52.6048 23.8422 52.2365C24.1384 51.591 24.4283 50.8708 24.7119 50.0765C25.0357 49.1731 25.2533 48.4285 25.3646 47.8394C25.4582 47.3388 25.6236 46.9241 25.8607 46.5947C26.1531 46.1813 26.5077 45.9737 26.9259 45.9705L29.5077 45.9517C29.8246 45.9429 30.0686 46.0408 30.239 46.2459C30.4101 46.4511 30.4843 46.7447 30.461 47.1267C30.4547 47.2321 30.4396 47.3444 30.4163 47.4636V47.463ZM30.1145 47.6299C30.1315 47.5307 30.1422 47.4354 30.1478 47.3432C30.1849 46.7258 29.9403 46.4197 29.4153 46.4235L26.8542 46.441C26.2939 46.4448 25.9242 46.9241 25.7437 47.8827C25.6274 48.4906 25.4061 49.2572 25.0784 50.1857C24.7967 50.9987 24.5069 51.7346 24.2076 52.3927C24.0617 52.7058 23.9806 52.9686 23.963 53.18C23.9321 53.5634 24.0956 53.7547 24.454 53.7547L26.9818 53.7528C27.6741 53.7528 28.1998 53.357 28.5551 52.569C29.2795 50.9718 29.7982 49.3243 30.1139 47.6299H30.1145ZM28.2262 48.8952C28.1206 49.5841 27.9011 50.2804 27.5685 50.9837C27.3113 51.527 27.0233 51.7961 26.7052 51.7898C26.6278 51.7898 26.5429 51.7898 26.4492 51.7898C26.2185 51.7898 26.1116 51.675 26.1285 51.4442C26.1374 51.3218 26.1789 51.1694 26.2524 50.9868C26.5612 50.271 26.7844 49.596 26.9221 48.9605C26.9711 48.7271 27.0579 48.5389 27.1824 48.3952C27.3063 48.2522 27.4421 48.18 27.5886 48.1794C27.6157 48.1794 27.7194 48.1757 27.8993 48.1681C28.0458 48.1675 28.1451 48.2296 28.1967 48.3557C28.2482 48.4818 28.2583 48.6612 28.2262 48.8946V48.8952ZM27.7722 48.5113C27.7339 48.5113 27.6823 48.5132 27.6169 48.5169C27.5515 48.5207 27.4974 48.5194 27.4541 48.5125C27.356 48.5125 27.2824 48.633 27.2334 48.8726C27.0881 49.5408 26.8548 50.2491 26.5335 50.9987C26.5014 51.0665 26.4832 51.1274 26.4794 51.1813C26.4706 51.303 26.5838 51.3639 26.8202 51.3632C26.968 51.3695 27.1221 51.207 27.2824 50.8745C27.4113 50.5972 27.5377 50.2735 27.6616 49.9034C27.8238 49.4473 27.9131 49.096 27.9301 48.8494C27.9452 48.623 27.893 48.51 27.7735 48.5107L27.7722 48.5113Z" fill="#1C1514"/>
<path d="M32.9177 45.8921C32.7127 47.3356 32.4134 48.6907 32.0204 49.9542C31.6368 51.1945 31.1049 52.5245 30.4239 53.946L28.3947 53.9473C29.7033 51.1631 30.5471 48.4831 30.9382 45.9065L32.9177 45.8921ZM32.6335 46.4197L31.3155 46.4291C30.9728 48.7679 30.2327 51.1976 29.0858 53.7196L30.4339 53.7183C31.5608 51.2955 32.2914 48.8614 32.6341 46.4197H32.6335Z" fill="#1C1514"/>
<path d="M38.8819 45.8256C38.892 46.0514 38.8939 46.2811 38.8876 46.5144C38.8542 47.7271 38.6059 49.0395 38.1393 50.4542C37.7482 51.6531 37.2376 52.8306 36.6075 53.9856C36.2894 53.9856 35.8316 53.9893 35.2342 53.9969C34.6381 54.0044 34.137 53.9818 33.7974 53.9818C34.115 52.4435 34.3457 51.3695 34.4237 50.697C34.0276 51.8237 33.5384 52.9279 32.9555 54.0082L30.8414 53.9812C32.3631 51.0232 33.2038 48.3394 33.3107 45.867L36.207 45.8457C36.4403 47.032 36.5711 48.0289 36.5968 48.8319C36.7333 48.074 36.815 47.0747 36.8415 45.8413L38.8807 45.8262L38.8819 45.8256ZM38.6147 46.3576L37.2187 46.3676C37.1986 47.2942 37.1263 48.0809 37.0018 48.724C36.8691 49.431 36.6333 50.1957 36.2938 51.0194L36.2604 51.0402C36.3032 50.6154 36.3309 50.2258 36.3434 49.8714C36.3799 48.8607 36.2655 47.6945 36.0033 46.3764L33.7239 46.3927C33.6276 48.6004 32.9045 51.0402 31.5394 53.7183L32.9586 53.7171C33.8616 52.0314 34.4872 50.3394 34.84 48.6449L34.8808 48.6349C34.9173 49.0627 34.9267 49.4925 34.9085 49.9235C34.8758 50.7215 34.6847 51.9818 34.3319 53.7164C34.579 53.7114 34.9488 53.707 35.4411 53.702C35.9335 53.697 36.3095 53.6945 36.5686 53.6939C37.1087 52.7026 37.5595 51.6455 37.923 50.5245C38.355 49.1957 38.5845 47.9962 38.6153 46.9241C38.621 46.7321 38.621 46.5433 38.6153 46.3582L38.6147 46.3576Z" fill="#1C1514"/>
<path d="M56.0601 41.1142C55.7558 43.8645 55.3138 46.3018 54.7346 48.4253C54.1524 50.5583 53.2481 53.0471 52.0157 55.9009C51.3837 57.4097 50.5481 58.66 49.5043 59.6524C48.4554 60.6499 47.4594 61.1738 46.5175 61.2202L36.7541 61.6706C38.3783 58.5339 39.954 54.2917 41.4814 48.9642C43.0301 43.5841 43.8884 39.2654 44.0689 35.9755L53.4858 35.9837C54.3938 35.9674 55.0899 36.4555 55.5772 37.4479C56.0639 38.4391 56.2243 39.66 56.0608 41.1135L56.0601 41.1142ZM55.3634 41.894C55.4992 40.665 55.3691 39.6481 54.9717 38.8413C54.5743 38.0345 54.0178 37.6286 53.3028 37.628L44.8662 37.6198C44.5455 40.8927 43.7237 44.8482 42.3919 49.5069C41.0915 54.0144 39.7258 57.8112 38.294 60.8864L46.9891 60.473C47.7279 60.4592 48.5246 60.042 49.3772 59.2252C50.2261 58.4122 50.9235 57.3783 51.4693 56.1242C52.6558 53.3764 53.5248 50.9868 54.0813 48.9467C54.6359 46.9147 55.0629 44.564 55.3634 41.8946V41.894ZM51.0398 45.5439C50.7392 47.6901 50.1507 49.8494 49.271 52.0257C48.5881 53.7447 47.7644 54.6136 46.7985 54.6267C46.3276 54.643 45.6271 54.6575 44.6958 54.6688C45.6535 52.271 46.3188 50.4197 46.696 49.1066C47.145 47.5659 47.5411 45.6531 47.8851 43.3708C48.3366 43.3657 49.0427 43.3375 50.0004 43.2848C50.3934 43.2597 50.687 43.4592 50.8813 43.8814C51.075 44.3043 51.1278 44.8582 51.0392 45.5445L51.0398 45.5439ZM49.7658 45.7811C49.8991 44.8639 49.7388 44.3463 49.2842 44.2271C49.0226 44.1474 48.7271 44.1054 48.2605 44.1317C47.7317 47.0445 46.9652 49.8294 45.8082 52.9147H46.7514C47.4053 52.894 48.136 51.9529 48.7635 50.0289C49.2282 48.5966 49.5495 47.2842 49.7658 45.7804V45.7811Z" fill="#1C1514"/>
<path d="M68.1708 36.111C67.9797 38.6462 67.6873 41.239 67.2943 43.8902C64.8715 43.8218 63.2272 43.803 62.3783 43.8338C62.2878 44.2196 62.1891 44.6255 62.0828 45.0527C63.1316 45.0163 64.6213 45.0132 66.5422 45.0433C66.0788 47.0809 65.5318 49.197 64.8986 51.3959L60.4127 51.5289L60.1455 52.4128C61.0843 52.3827 62.7198 52.3632 65.113 52.2873C64.0874 55.0496 62.9707 57.8149 61.752 60.4994L51.3001 60.9536C52.952 57.2923 54.4133 53.0721 55.6891 48.2986C56.9159 43.7315 57.7114 39.6506 58.0817 36.0389L68.1708 36.111ZM67.5031 37.6092L58.9344 37.601C58.6219 40.5602 57.8824 44.2478 56.7116 48.6826C55.4798 53.3005 54.1901 57.1205 52.8419 60.1305L61.6854 59.7095C62.6261 57.6531 63.436 55.7139 64.117 53.8896C61.9155 53.9799 60.2687 54.0339 59.1878 54.0508C59.567 52.7917 59.8933 51.6901 60.1668 50.7453L64.6577 50.6205C65.0715 49.2058 65.4286 47.8563 65.7286 46.5709C64.1358 46.5351 62.6292 46.5402 61.2106 46.5866C61.5357 45.3036 61.82 44.1361 62.0627 43.0816C63.2335 43.0282 64.8545 43.042 66.9164 43.1217C67.1622 41.4285 67.3578 39.591 67.5037 37.6085L67.5031 37.6092Z" fill="#1C1514"/>
<path d="M86.967 40.9862C86.7827 42.9762 86.4476 44.7811 85.9596 46.4021C85.2786 48.7277 84.4071 50.2673 83.3432 51.0144C83.4727 52 83.5123 52.9793 83.462 53.9529C83.3778 55.5709 83.0464 57.3871 82.4673 59.4072L77.8135 59.6274C78.1204 57.8752 78.2562 56.4668 78.3166 55.3614C78.3813 54.1788 78.3952 53.212 78.1908 52.4128C77.4595 54.8601 76.5697 57.2811 75.4907 59.7509L70.5138 59.9962C71.8437 57.1481 73.095 53.3946 74.2696 48.7491C75.4335 44.1437 76.1862 39.9755 76.5333 36.2265L84.7096 36.2296C85.5107 36.2139 86.1212 36.6644 86.5438 37.5803C86.9657 38.4956 87.1066 39.6292 86.967 40.9849V40.9862ZM86.4218 41.5583C86.5394 40.4122 86.4243 39.4686 86.076 38.7252C85.727 37.9812 85.2422 37.6085 84.6203 37.6085C83.6834 37.6274 81.2631 37.6349 77.3117 37.6317C77.0225 40.8225 76.3346 44.5684 75.243 48.8871C74.1382 53.3005 73.0277 56.7051 71.9116 59.0866L75.414 58.9203C76.3754 56.7246 77.2507 54.2001 78.0405 51.3507C78.1782 51.3275 78.4511 51.3087 78.8592 51.2961C79.2868 52.2785 79.4559 53.5809 79.3685 55.2064C79.3157 56.1876 79.1711 57.3689 78.9359 58.7528L82.2742 58.5947C82.6314 57.3488 82.842 56.1123 82.9062 54.8833C82.9722 53.6173 82.8691 52.2327 82.5968 50.7271C83.7978 50.421 84.6957 49.2371 85.2937 47.1813C85.8716 45.2309 86.2476 43.357 86.4224 41.5583H86.4218ZM82.4239 44.6481C82.1761 45.8231 81.7033 46.4178 81.0053 46.4316C80.4174 46.4429 79.6968 46.4536 78.8416 46.4624C79.0724 45.591 79.3616 44.4021 79.7106 42.8984C80.6167 42.8476 81.3417 42.8187 81.8875 42.8124C82.0931 42.8099 82.2572 42.9203 82.378 43.143C82.4987 43.3657 82.5503 43.6518 82.532 44.0031C82.527 44.101 82.4905 44.3162 82.4239 44.6481ZM81.7976 44.4768C81.8303 44.3212 81.8492 44.1957 81.8542 44.0985C81.8687 43.8275 81.8158 43.6926 81.6951 43.6939C81.2738 43.6995 80.7965 43.7158 80.2633 43.7422C80.1382 44.2302 80.0219 44.6888 79.9137 45.1186C80.4337 45.1098 80.9148 45.1023 81.3587 45.0947C81.5687 45.0721 81.7146 44.8664 81.797 44.4768H81.7976Z" fill="#1C1514"/>
<path d="M97.9414 40.6098C97.2799 45.4868 96.1833 50.2221 94.644 54.8269C94.1749 56.2509 93.5417 57.3438 92.7419 58.1054C92.0357 58.7892 91.2893 59.1512 90.504 59.1901L85.0604 59.4605C83.9368 59.5163 83.3287 58.7635 83.4111 57.1801C83.4526 56.3802 83.6834 55.4203 84.0399 54.357C84.6662 52.4931 85.2679 50.4366 85.8634 48.1462C86.5444 45.5389 87.0185 43.3877 87.2468 41.6844C87.4386 40.2334 87.8316 39.0251 88.3396 38.074C88.9634 36.8796 89.7249 36.2861 90.6234 36.2892L96.0707 36.3112C96.7285 36.2955 97.2321 36.5803 97.5836 37.1669C97.9339 37.7522 98.0848 38.5834 98.0364 39.6606C98.0232 39.958 97.9917 40.2742 97.9427 40.6092L97.9414 40.6098ZM97.3208 41.1788C97.356 40.9003 97.3799 40.6305 97.3912 40.3701C97.4705 38.6261 96.963 37.7547 95.8645 37.7535L90.4122 37.7491C89.1967 37.7478 88.4 39.1299 88.0259 41.9021C87.7844 43.655 87.3185 45.8645 86.6255 48.5376C86.0301 50.8758 85.4145 52.9937 84.7775 54.8896C84.4669 55.7923 84.2952 56.5452 84.2644 57.1474C84.2084 58.2365 84.5725 58.7622 85.3554 58.7246L90.7869 58.4649C92.247 58.3952 93.3443 57.2503 94.0818 55.0389C95.5853 50.5552 96.6618 45.9385 97.3208 41.1788ZM93.4417 44.9454C93.2223 46.894 92.7658 48.8626 92.0684 50.8551C91.5295 52.3946 90.9215 53.1688 90.2436 53.1732C90.0795 53.1788 89.8972 53.1857 89.6978 53.1926C89.2036 53.2102 88.9722 52.8927 89.0043 52.2397C89.0213 51.894 89.1074 51.4605 89.2627 50.9391C89.9142 48.8971 90.3826 46.9718 90.6693 45.1612C90.7718 44.4956 90.9548 43.9573 91.2189 43.5464C91.4824 43.1361 91.771 42.9297 92.0841 42.926C92.142 42.9253 92.3621 42.9134 92.7444 42.8902C93.0556 42.8865 93.2663 43.0634 93.3757 43.4197C93.4851 43.7767 93.5071 44.2848 93.4417 44.9454ZM92.4055 43.6876C92.3244 43.6888 92.2143 43.6951 92.0747 43.7064C91.9351 43.7177 91.4994 43.825 91.3962 44.5088C91.0944 46.4115 90.565 48.5841 89.8871 50.7196C89.8186 50.9128 89.7689 51.0056 89.7614 51.1587C89.7444 51.5031 89.9487 51.6769 90.453 51.6606C90.7681 51.6694 91.0498 51.3356 91.3868 50.3921C91.6572 49.6048 91.9219 48.6863 92.181 47.6368C92.5205 46.3419 92.7073 45.3457 92.7406 44.6462C92.7714 44.0038 92.6595 43.6844 92.4055 43.6876Z" fill="#1C1514"/>
<path d="M109.506 36.2271C109.144 42.904 107.996 48.6945 106.216 53.67C105.748 54.9987 105.121 56.1023 104.334 56.9812C103.544 57.8645 102.818 58.5245 102.086 58.5609L96.8668 58.6863C95.8154 58.7384 95.2872 58.1361 95.3577 56.6161C95.3935 55.8381 95.5897 54.6568 95.9236 53.6048C97.7283 47.872 98.9242 42.1317 99.4122 36.2371C100.303 36.2409 101.729 36.2189 103.676 36.1719C103.071 41.8601 102.29 46.5947 101.329 50.3658C101.196 50.8538 101.186 51.096 101.297 51.0922L102.678 51.0483C102.91 51.0408 103.112 50.7014 103.284 50.0295C103.826 47.8714 104.26 45.6424 104.585 43.34C104.82 41.6324 105.072 39.2616 105.34 36.2334C106.098 36.2365 106.816 36.2302 107.495 36.2152C108.459 36.2014 109.186 36.2259 109.505 36.2271H109.506ZM108.87 37.7371L107.489 37.7359C106.833 37.7177 106.369 37.7077 106.098 37.7077C105.652 42.729 104.989 47.0038 104.109 50.5282C103.977 51.0502 103.77 51.5188 103.489 51.9354C103.208 52.3526 102.928 52.5665 102.652 52.5759L101.27 52.6242C100.89 52.6374 100.712 52.3927 100.734 51.8902C100.746 51.6117 100.812 51.2472 100.932 50.798C101.881 47.1098 102.621 42.7528 103.155 37.7315L100.116 37.8394C99.9045 40.345 99.4782 43.1462 98.8349 46.2516C98.2414 49.1863 97.5616 51.8576 96.7945 54.2654C96.5147 55.16 96.3612 55.8996 96.3342 56.4843C96.2864 57.5226 96.6285 58.0245 97.3573 57.99L102.497 57.7466C103.073 57.7189 103.684 57.3425 104.331 56.6173C104.974 55.8946 105.493 54.9818 105.887 53.8783C107.538 49.2735 108.527 43.8959 108.871 37.7365L108.87 37.7371Z" fill="#1C1514"/>
<path d="M119.441 36.4153C119.433 38.3877 119.074 40.7635 118.544 43.4241C117.912 43.3971 117.041 43.4084 115.927 43.4592C115.129 47.734 113.777 52.5916 111.855 58.0665L107.808 58.1844C109.734 52.3651 111.109 47.5395 111.895 43.5671C110.722 43.5828 109.772 43.6374 109.128 43.7553C109.281 42.5928 109.509 41.4661 109.657 40.298C109.804 39.1317 109.889 37.7942 109.946 36.3526L119.441 36.4153ZM118.881 37.7459L110.688 37.739C110.654 38.6123 110.576 39.5132 110.455 40.4417C110.338 41.2647 110.221 42.0979 110.102 42.9404C110.708 42.9153 111.634 42.8777 112.877 42.8262C112.059 47.1763 110.767 52.037 108.986 57.4366L111.757 57.3055C113.597 52.0885 114.897 47.2465 115.674 42.7528C116.15 42.6939 117.041 42.6662 118.341 42.6688C118.698 40.6173 118.877 38.978 118.881 37.7459Z" fill="#1C1514"/>
<path d="M127.606 36.473C127.51 38.6725 127.339 40.921 127.092 43.2189C125.27 43.1562 124.101 43.1656 123.465 43.1913C123.404 43.5251 123.285 43.8256 123.214 44.1951C124 44.1656 125.165 44.1656 126.609 44.1951C126.299 45.9592 125.866 47.8131 125.432 49.7146L122.072 49.8143L121.894 50.5941C122.596 50.5715 123.873 50.5257 125.667 50.4686C124.948 52.8545 124.106 55.2585 123.244 57.5728L115.354 57.8714C116.514 54.7252 117.574 51.1343 118.435 47.0182C119.265 43.0753 119.826 39.5395 120.036 36.4159L127.607 36.4737L127.606 36.473ZM127.13 37.7271L120.701 37.7215C120.523 40.2811 120.04 43.4686 119.248 47.298C118.416 51.2811 117.526 54.5703 116.578 57.1587L123.177 56.845C123.843 55.0728 124.414 53.4003 124.891 51.8243C123.242 51.8934 122.009 51.9335 121.201 51.9442C121.461 50.8576 121.684 49.9072 121.871 49.0916L125.235 48.9981C125.519 47.7748 125.762 46.6073 125.963 45.495C124.767 45.4605 123.637 45.4611 122.574 45.4987C122.794 44.3896 122.984 43.3796 123.146 42.4674C124.023 42.4228 125.24 42.4366 126.791 42.5082C126.944 41.0408 127.057 39.4479 127.13 37.7284L127.13 37.7271Z" fill="#1C1514"/>
<path d="M39.4088 28.5891C39.4183 28.7804 39.4088 29.0508 39.3793 29.4002C39.2825 30.5634 38.9467 31.5282 38.3701 32.2949C37.7903 33.0659 37.0559 33.6317 36.1636 33.9918C35.2663 34.3538 34.286 34.5351 33.2214 34.5339L20.3128 34.5144C18.825 34.5119 17.5731 34.1506 16.5645 33.4272C15.5515 32.7008 14.8101 31.7541 14.3442 30.5885C13.8776 29.4228 13.6406 28.1524 13.6318 26.7811C13.6443 25.1731 13.5444 23.1932 13.3331 20.8438C13.1218 18.4944 12.808 16.1989 12.3893 13.9304C11.9711 11.6669 11.4656 9.64993 10.8701 7.87641C10.2979 6.15997 10.0904 4.68067 10.2469 3.44165C10.5456 1.09034 12.0654 0.0558307 14.7756 0.32371L28.0596 1.6355C29.2506 1.75345 30.3635 2.09724 31.4004 2.66499C32.4317 3.23023 33.3365 4.00251 34.1162 4.98118C34.8941 5.95796 35.4914 7.09975 35.9096 8.40903C38.1751 15.4674 39.3422 22.175 39.4088 28.5885V28.5891ZM38.3028 27.9166C38.2707 24.835 37.9777 21.6757 37.4262 18.431C36.8767 15.1982 36.0183 11.7823 34.8513 8.17566C34.3262 6.54768 33.5264 5.27791 32.4493 4.36261C31.3671 3.44291 30.1334 2.91593 28.7437 2.78293L15.4547 1.51254C13.6104 1.33626 12.581 2.05583 12.3811 3.67754C12.2572 4.68005 12.4547 5.90966 12.9728 7.36386C13.5752 9.15307 14.0864 11.2139 14.5077 13.5508C14.9296 15.8933 15.2497 18.2064 15.4672 20.4925C15.6854 22.7867 15.7999 24.8381 15.8106 26.6455C15.8106 28.4241 16.2055 29.8413 16.994 30.8896C17.7806 31.9354 18.9445 32.463 20.4769 32.4743L33.3397 32.569C34.7287 32.579 35.8687 32.2114 36.7641 31.4699C37.6532 30.7334 38.1651 29.5483 38.3028 27.9166ZM30.4113 21.5577C30.3 22.7164 30.0567 23.5408 29.6807 24.0282C29.3034 24.5176 28.7274 24.7509 27.9508 24.7277L26.6153 24.6869C24.7905 24.6311 23.8297 23.4969 23.7486 21.2905C23.7071 19.7051 23.5945 18.3093 23.4109 17.0997C23.2273 15.8921 22.899 14.4805 22.4268 12.8651C22.257 12.3105 22.2011 11.7698 22.2583 11.2447C22.3727 10.1895 22.9663 9.70263 24.0334 9.78168C24.6735 9.82873 25.2005 9.85445 25.6161 9.85884C26.3442 9.9128 26.9957 10.2227 27.5723 10.7873C28.147 11.3513 28.6048 12.1041 28.9462 13.0483C29.5543 14.6744 29.9586 16.0941 30.1604 17.3087C30.3623 18.5251 30.4459 19.9404 30.4107 21.5577H30.4113ZM28.3828 21.5972C28.418 20.6261 28.3375 19.3588 28.142 17.7967C27.9471 16.2384 27.6226 14.8614 27.1699 13.6625C26.7165 12.4636 26.1323 11.84 25.4155 11.7911L23.7806 11.6794C23.4681 11.6982 23.299 11.8237 23.2744 12.0558C23.2631 12.1619 23.3386 12.5251 23.5002 13.1449C24.317 15.9241 24.7854 18.8576 24.9049 21.958C24.9414 22.6048 25.1457 23.0169 25.5167 23.1932C25.8871 23.3689 26.4738 23.4843 27.2742 23.5383C27.5723 23.5483 27.8112 23.4398 27.9898 23.2133C28.1678 22.9868 28.2992 22.4479 28.3834 21.5972H28.3828Z" fill="#1C1514"/>
<path d="M66.2398 34.2892C64.8294 34.2854 63.0103 34.2936 60.7673 34.313C58.4911 34.3331 56.5368 34.3413 54.9176 34.3375C53.1865 28.2378 51.8924 24.091 51.0322 21.8833C51.4139 25.5213 51.4976 28.9718 51.2787 32.2403C51.2177 33.1562 51.1593 33.8532 51.1033 34.3287L41.7555 34.308C42.0385 30.7403 42.0681 27.2591 41.848 23.8544C41.6285 20.4705 41.0651 16.9969 40.1584 13.4241C39.2535 9.85947 37.9224 6.20325 36.1592 2.44228L49.3917 3.74905C50.5965 5.45859 51.6095 6.92973 52.432 8.16373C53.2525 9.3946 54.0266 10.6085 54.7541 11.8055C55.4804 13 56.1457 14.1675 56.7518 15.308C55.8878 12.5019 54.3416 8.71894 52.1069 3.94541L60.5881 4.78481C61.7979 7.05018 62.8047 9.34692 63.6095 11.6788C64.415 14.0113 65.0388 16.3149 65.4834 18.5935C65.9285 20.8783 66.2228 23.0828 66.3643 25.2108C66.5064 27.3475 66.5303 29.436 66.4354 31.4787C66.3762 32.7453 66.3109 33.6826 66.2392 34.2879L66.2398 34.2892ZM65.4211 32.4762C65.5211 31.4021 65.5802 30.6656 65.5997 30.2647C65.7141 27.872 65.6248 25.2905 65.3343 22.5169C65.0451 19.7566 64.4892 16.9203 63.6667 14.0019C62.8455 11.0878 61.7489 8.33563 60.3725 5.7365L54.5183 5.17565C55.6483 7.57339 56.5481 9.6813 57.219 11.5012C57.8899 13.3212 58.3999 15.1092 58.7495 16.8682C59.1004 18.6305 59.311 20.542 59.3827 22.6079L59.2702 22.6763C58.4364 20.4943 57.5642 18.4843 56.6525 16.6437C55.7388 14.8005 54.7227 12.9843 53.6015 11.1938C52.4766 9.39773 51.0392 7.26285 49.2829 4.78293L38.7895 3.78105C39.9226 6.18883 40.8532 8.63613 41.5839 11.1267C42.3152 13.6198 42.8679 16.0721 43.242 18.4862C43.6174 20.9078 43.8438 23.2873 43.9211 25.6286C43.9985 27.9805 43.9545 30.2415 43.7878 32.4109L50.1953 32.463C50.25 32.0972 50.3022 31.5458 50.3525 30.8099C50.494 28.7309 50.4934 26.5966 50.3519 24.404C50.2104 22.2208 49.9746 20.1807 49.6451 18.281C49.3162 16.3852 48.932 14.6744 48.4931 13.1462L48.6812 13.1223C50.3689 15.8977 51.7132 18.6292 52.7206 21.325C53.7273 24.0201 54.8849 27.7459 56.196 32.5119C57.4517 32.5094 58.542 32.5063 59.4708 32.5012C60.3938 32.4962 61.3157 32.4918 62.2356 32.4868C63.1505 32.4824 64.2132 32.4787 65.4211 32.4768V32.4762Z" fill="#1C1514"/>
<path d="M99.7215 34.3061C98.6111 34.3036 97.1805 34.3112 95.4193 34.3287C93.6354 34.3469 92.1055 34.3544 90.8397 34.3519C89.2658 28.9592 88.2491 25.569 87.497 23.6173C87.9284 26.8369 88.1139 29.6374 88.0629 32.5257C88.0485 33.335 88.0258 33.9247 88.0001 34.345L80.606 34.3287C80.6915 31.1882 80.5846 28.1211 80.2865 25.1198C79.9898 22.1342 79.4226 19.0696 78.5856 15.9178C77.75 12.7723 76.581 9.54955 75.0738 6.23901L85.4044 7.25909C86.4086 8.76724 87.2543 10.0659 87.9428 11.1556C88.6301 12.2434 89.2803 13.3162 89.8934 14.3751C90.5058 15.4322 91.0699 16.4655 91.5861 17.4749C90.807 14.9856 89.4576 11.633 87.5335 7.40589L94.2202 8.06775C95.2545 10.0784 96.1298 12.1192 96.8473 14.1938C97.5654 16.2685 98.1395 18.3187 98.5708 20.3475C99.0028 22.3808 99.3128 24.3432 99.4996 26.2371C99.6869 28.138 99.7794 29.9956 99.7762 31.8105C99.7744 32.9354 99.7555 33.7679 99.7203 34.3055L99.7215 34.3061ZM99.1386 32.7629C99.1795 31.8093 99.2003 31.155 99.2015 30.798C99.2072 28.6713 99.0462 26.3752 98.7186 23.9078C98.3929 21.4511 97.854 18.9266 97.1013 16.33C96.3499 13.7371 95.3872 11.2905 94.2101 8.98431L89.5922 8.54203C90.5656 10.6669 91.3478 12.5358 91.9401 14.1506C92.5325 15.7654 92.9971 17.3526 93.3354 18.9153C93.6744 20.4805 93.9089 22.1788 94.0391 24.0138L93.9535 24.0753C93.221 22.1405 92.4639 20.3588 91.6823 18.729C90.8995 17.0966 90.0374 15.4893 89.0942 13.9059C88.1484 12.3181 86.9462 10.4329 85.483 8.24529L77.2853 7.46235C78.2543 9.58406 79.0686 11.7422 79.7288 13.941C80.3897 16.1418 80.9103 18.3068 81.2914 20.4391C81.6731 22.5772 81.9378 24.6775 82.0849 26.744C82.2327 28.8187 82.2824 30.8118 82.2339 32.724L87.2134 32.7641C87.2423 32.441 87.2631 31.9542 87.2757 31.3036C87.3096 29.4661 87.231 27.579 87.0399 25.6405C86.8493 23.7089 86.5909 21.9034 86.2639 20.2221C85.9376 18.5439 85.5754 17.0301 85.1761 15.6782L85.3214 15.6556C86.7399 18.106 87.89 20.5201 88.7747 22.9046C89.6595 25.2892 90.6995 28.5859 91.8974 32.8024C92.8802 32.7992 93.7341 32.7955 94.4616 32.7898C95.1854 32.7848 95.9085 32.7798 96.6316 32.7748C97.3503 32.7698 98.186 32.766 99.1367 32.7629H99.1386Z" fill="#1C1514"/>
<path d="M105.066 20.2992C103.755 20.2095 102.734 20.1418 102.012 20.0954C101.285 20.0489 100.239 19.9768 98.8664 19.8783C98.923 19.1474 98.9519 18.4009 98.9544 17.6386C98.9236 13.8526 98.3306 10.7535 97.1724 8.31054L103.23 8.9128C104.505 11.229 105.149 13.9705 105.168 17.1656C105.171 17.6851 105.137 18.7277 105.066 20.2999V20.2992ZM104.345 18.766C104.373 17.9699 104.387 17.3764 104.385 16.9837C104.343 14.0734 103.804 11.6631 102.765 9.73149L98.8727 9.35696C99.2864 10.2277 99.5914 11.1606 99.7888 12.1575C99.9863 13.1556 100.11 14.0332 100.158 14.7905C100.206 15.5489 100.263 16.7685 100.327 18.4529C102.302 18.6179 103.634 18.7215 104.345 18.7654L104.345 18.766Z" fill="#1C1514"/>
<path d="M125.113 34.4944L119.818 34.4711C119.55 33.4253 119.338 32.5376 119.252 31.8363C118.758 31.83 118.164 31.8425 117.295 31.8212C116.42 31.7999 115.741 31.7861 115.264 31.7798C114.967 33.1675 114.8 34.0671 114.762 34.4718L108.615 34.458C109.391 30.1619 109.686 25.6989 109.631 21.1085C109.606 18.9548 109.462 16.9216 109.254 14.9605C109.047 13.0075 108.758 11.3099 108.374 9.69071L115.392 10.2942C116.405 11.867 117.435 13.6455 118.485 15.6305C119.531 17.6098 120.514 19.6838 121.434 21.8551C122.353 24.0238 123.137 26.1869 123.785 28.3482C124.435 30.5119 124.877 32.559 125.112 34.4944H125.113ZM124.553 33.0671C124.364 31.4611 123.961 29.6807 123.343 27.7215C122.726 25.7635 121.98 23.7735 121.105 21.7478C120.228 19.7196 119.309 17.793 118.345 15.968C117.38 14.138 116.447 12.5201 115.548 11.1154L110.035 10.5891C110.363 11.9912 110.616 13.6104 110.795 15.4498C110.975 17.2967 111.079 19.2353 111.107 21.2698C111.135 23.3808 111.081 25.4492 110.944 27.4749C110.807 29.5151 110.587 31.3413 110.284 32.9517L114.346 32.9849C114.385 32.6167 114.474 32.1568 114.615 31.6048C114.756 31.0546 114.842 30.6104 114.873 30.2704C116.202 30.3156 118.027 30.3601 120.327 30.4034C120.444 30.7428 120.536 31.1951 120.605 31.7603C120.673 32.3262 120.744 32.7522 120.815 33.037L124.552 33.0671H124.553ZM119.189 26.212L115.137 26.0671C115.252 24.8871 115.296 23.5954 115.269 22.1907C115.227 19.9881 115.031 17.9768 114.681 16.1493L114.841 16.1612C115.771 17.8563 116.63 19.5834 117.419 21.345C118.207 23.1041 118.797 24.7258 119.189 26.2114V26.212ZM117.743 25.2484C117.528 24.5828 117.238 23.8639 116.863 22.99C116.485 22.1117 116.185 21.4272 115.794 20.7315C115.882 21.4793 115.93 22.3432 115.953 23.5013C115.97 24.3752 115.974 24.9536 115.965 25.2371L117.744 25.2484H117.743Z" fill="#1C1514"/>
<defs>
<linearGradient id="paint0_linear_1534_941" x1="24.7553" y1="34.5" x2="24.7553" y2="0.313678" gradientUnits="userSpaceOnUse">
<stop offset="0.17" stop-color="#E6E83C"/>
<stop offset="0.69" stop-color="#EF381F"/>
</linearGradient>
<linearGradient id="paint1_linear_1534_941" x1="51.334" y1="34.2917" x2="51.334" y2="2.49937" gradientUnits="userSpaceOnUse">
<stop offset="0.18" stop-color="#E6E83C"/>
<stop offset="0.7" stop-color="#EF381F"/>
</linearGradient>
<linearGradient id="paint2_linear_1534_941" x1="87.4945" y1="34.3501" x2="87.4945" y2="6.39147" gradientUnits="userSpaceOnUse">
<stop offset="0.16" stop-color="#E6E83C"/>
<stop offset="0.68" stop-color="#EF381F"/>
</linearGradient>
<linearGradient id="paint3_linear_1534_941" x1="101.194" y1="23.096" x2="101.194" y2="7.01819" gradientUnits="userSpaceOnUse">
<stop stop-color="#E6E83C"/>
<stop offset="0.43" stop-color="#EF381F"/>
</linearGradient>
<linearGradient id="paint4_linear_1534_941" x1="116.7" y1="34.4059" x2="116.7" y2="9.70703" gradientUnits="userSpaceOnUse">
<stop offset="0.13" stop-color="#E6E83C"/>
<stop offset="0.72" stop-color="#EF381F"/>
</linearGradient>
<linearGradient id="paint5_linear_1534_941" x1="21.5962" y1="23.5289" x2="21.5962" y2="61.5979" gradientUnits="userSpaceOnUse">
<stop offset="0.32" stop-color="#E6E83C"/>
<stop offset="0.8" stop-color="#EF381F"/>
</linearGradient>
<linearGradient id="paint6_linear_1534_941" x1="27.9112" y1="23.7528" x2="27.9112" y2="62.0383" gradientUnits="userSpaceOnUse">
<stop offset="0.31" stop-color="#E6E83C"/>
<stop offset="0.79" stop-color="#EF381F"/>
</linearGradient>
<linearGradient id="paint7_linear_1534_941" x1="35.8297" y1="24.1092" x2="35.8297" y2="61.8726" gradientUnits="userSpaceOnUse">
<stop offset="0.3" stop-color="#E6E83C"/>
<stop offset="0.8" stop-color="#EF381F"/>
</linearGradient>
<linearGradient id="paint8_linear_1534_941" x1="12.0516" y1="23.995" x2="12.0516" y2="61.4887" gradientUnits="userSpaceOnUse">
<stop offset="0.33" stop-color="#E6E83C"/>
<stop offset="0.81" stop-color="#EF381F"/>
</linearGradient>
<linearGradient id="paint9_linear_1534_941" x1="16.933" y1="23.7484" x2="16.933" y2="61.596" gradientUnits="userSpaceOnUse">
<stop offset="0.31" stop-color="#E6E83C"/>
<stop offset="0.8" stop-color="#EF381F"/>
</linearGradient>
<linearGradient id="paint10_linear_1534_941" x1="21.5245" y1="23.6173" x2="21.5245" y2="61.7698" gradientUnits="userSpaceOnUse">
<stop offset="0.31" stop-color="#E6E83C"/>
<stop offset="0.79" stop-color="#EF381F"/>
</linearGradient>
<linearGradient id="paint11_linear_1534_941" x1="26.9831" y1="23.8551" x2="26.9831" y2="61.9291" gradientUnits="userSpaceOnUse">
<stop offset="0.31" stop-color="#E6E83C"/>
<stop offset="0.79" stop-color="#EF381F"/>
</linearGradient>
<linearGradient id="paint12_linear_1534_941" x1="30.9621" y1="23.9875" x2="30.5465" y2="61.7071" gradientUnits="userSpaceOnUse">
<stop offset="0.31" stop-color="#E6E83C"/>
<stop offset="0.79" stop-color="#EF381F"/>
</linearGradient>
<linearGradient id="paint13_linear_1534_941" x1="35.0456" y1="23.9862" x2="34.7984" y2="61.7585" gradientUnits="userSpaceOnUse">
<stop offset="0.31" stop-color="#E6E83C"/>
<stop offset="0.8" stop-color="#EF381F"/>
</linearGradient>
<linearGradient id="paint14_linear_1534_941" x1="46.4407" y1="24.3099" x2="46.4407" y2="62.3187" gradientUnits="userSpaceOnUse">
<stop offset="0.3" stop-color="#F4DB00"/>
<stop offset="0.8" stop-color="#EF381F"/>
</linearGradient>
<linearGradient id="paint15_linear_1534_941" x1="59.7286" y1="24.3488" x2="59.7286" y2="62.1493" gradientUnits="userSpaceOnUse">
<stop offset="0.31" stop-color="#F4DB00"/>
<stop offset="0.8" stop-color="#EF381F"/>
</linearGradient>
<linearGradient id="paint16_linear_1534_941" x1="78.7536" y1="24.889" x2="78.7536" y2="62.2146" gradientUnits="userSpaceOnUse">
<stop offset="0.3" stop-color="#E6E83C"/>
<stop offset="0.82" stop-color="#EF381F"/>
</linearGradient>
<linearGradient id="paint17_linear_1534_941" x1="90.7347" y1="25.2039" x2="90.7347" y2="62.1512" gradientUnits="userSpaceOnUse">
<stop offset="0.29" stop-color="#E6E83C"/>
<stop offset="0.82" stop-color="#EF381F"/>
</linearGradient>
<linearGradient id="paint18_linear_1534_941" x1="102.392" y1="25.2403" x2="102.392" y2="62.537" gradientUnits="userSpaceOnUse">
<stop offset="0.29" stop-color="#E6E83C"/>
<stop offset="0.82" stop-color="#EF381F"/>
</linearGradient>
<linearGradient id="paint19_linear_1534_941" x1="113.593" y1="25.271" x2="113.593" y2="62.4831" gradientUnits="userSpaceOnUse">
<stop offset="0.29" stop-color="#E6E83C"/>
<stop offset="0.84" stop-color="#EF381F"/>
</linearGradient>
<linearGradient id="paint20_linear_1534_941" x1="121.528" y1="25.5985" x2="121.528" y2="62.8325" gradientUnits="userSpaceOnUse">
<stop offset="0.28" stop-color="#E6E83C"/>
<stop offset="0.83" stop-color="#EF381F"/>
</linearGradient>
</defs>
</svg>
