<svg width="65" height="41" viewBox="0 0 65 41" fill="none" xmlns="http://www.w3.org/2000/svg">
<path d="M22.4329 30.9426H23.5764V31.1561H22.7067V31.812H23.51V32.023H22.7067V32.9162H22.4329V30.9426Z" fill="white"/>
<path d="M24.1903 31.9412C24.1903 31.774 24.1872 31.6307 24.1775 31.4989H24.4203L24.43 31.7771H24.4428C24.5122 31.5867 24.6789 31.4666 24.8652 31.4666C24.8968 31.4666 24.9187 31.4696 24.9437 31.4751V31.7179C24.9151 31.7118 24.8871 31.7094 24.8493 31.7094C24.654 31.7094 24.5152 31.8472 24.4775 32.04C24.4714 32.0754 24.4647 32.1163 24.4647 32.1602V32.9155H24.1909V31.94L24.1903 31.9412Z" fill="white"/>
<path d="M26.3641 32.9167L26.3422 32.7379H26.3325C26.2473 32.849 26.0836 32.949 25.8663 32.949C25.5578 32.949 25.4001 32.7471 25.4001 32.5421C25.4001 32.1992 25.7276 32.012 26.3173 32.015V31.9857C26.3173 31.8686 26.2826 31.6575 25.971 31.6575C25.8292 31.6575 25.6813 31.6984 25.5742 31.763L25.5109 31.5934C25.6369 31.5172 25.8194 31.4678 26.0118 31.4678C26.4779 31.4678 26.5917 31.7637 26.5917 32.0473V32.5775C26.5917 32.7007 26.5978 32.8203 26.6167 32.9173H26.3647L26.3641 32.9167ZM26.3233 32.1931C26.0209 32.187 25.6777 32.2371 25.6777 32.5122C25.6777 32.6794 25.7975 32.7581 25.9393 32.7581C26.1377 32.7581 26.2637 32.6409 26.3081 32.5207C26.3179 32.4945 26.3239 32.4652 26.3239 32.439V32.1931H26.3233Z" fill="white"/>
<path d="M27.3536 31.8826C27.3536 31.7362 27.3506 31.616 27.3408 31.4989H27.5867L27.6025 31.7332H27.6086C27.6841 31.5983 27.8605 31.4666 28.1125 31.4666C28.3237 31.4666 28.6511 31.5837 28.6511 32.0699V32.9161H28.3736V32.0992C28.3736 31.871 28.2823 31.6807 28.0206 31.6807C27.838 31.6807 27.6962 31.8009 27.6488 31.9442C27.636 31.9766 27.6299 32.0205 27.6299 32.0644V32.9167H27.3524V31.8826H27.3536Z" fill="white"/>
<path d="M30.5036 32.8643C30.4311 32.8997 30.2705 32.9461 30.0654 32.9461C29.6053 32.9461 29.3059 32.6563 29.3059 32.2225C29.3059 31.7888 29.6272 31.4697 30.125 31.4697C30.2887 31.4697 30.4336 31.5075 30.5096 31.5429L30.4464 31.7418C30.38 31.7064 30.276 31.6747 30.125 31.6747C29.7751 31.6747 29.5865 31.9151 29.5865 32.2103C29.5865 32.5386 29.8134 32.7405 30.1159 32.7405C30.2735 32.7405 30.3776 32.7027 30.4561 32.6703L30.5036 32.8637V32.8643Z" fill="white"/>
<path d="M31.1432 30.8376H31.4207V31.7222H31.4268C31.4712 31.649 31.54 31.5844 31.6252 31.5404C31.7073 31.4965 31.8047 31.4672 31.9088 31.4672C32.1138 31.4672 32.4413 31.5844 32.4413 32.0736V32.9174H32.1637V32.1035C32.1637 31.8748 32.0725 31.682 31.8108 31.682C31.6313 31.682 31.4895 31.7991 31.4389 31.9394C31.4231 31.9748 31.4201 32.0126 31.4201 32.0627V32.918H31.1426V30.8389L31.1432 30.8376Z" fill="white"/>
<path d="M33.3609 32.2548C33.367 32.6031 33.6068 32.7465 33.8837 32.7465C34.0821 32.7465 34.2019 32.7141 34.306 32.6733L34.3535 32.8575C34.2561 32.8984 34.0888 32.9454 33.8459 32.9454C33.3767 32.9454 33.0962 32.658 33.0962 32.231C33.0962 31.8039 33.367 31.4666 33.8113 31.4666C34.3091 31.4666 34.4411 31.8735 34.4411 32.134C34.4411 32.1864 34.435 32.2279 34.4314 32.2541H33.3603L33.3609 32.2548ZM34.174 32.0705C34.177 31.9064 34.1015 31.652 33.7893 31.652C33.5088 31.652 33.3859 31.8924 33.364 32.0705H34.174Z" fill="white"/>
<path d="M35.8311 32.0291V32.2194H35.0527V32.0291H35.8311Z" fill="white"/>
<path d="M38.0077 32.8521C37.9067 32.8991 37.7053 32.9461 37.4466 32.9461C36.8478 32.9461 36.3975 32.5947 36.3975 31.9474C36.3975 31.3001 36.8478 30.9109 37.5063 30.9109C37.771 30.9109 37.9377 30.9634 38.0102 30.9987L37.9438 31.2068C37.8398 31.1598 37.6919 31.125 37.5154 31.125C37.0176 31.125 36.6865 31.4209 36.6865 31.9395C36.6865 32.4226 36.9859 32.7332 37.5026 32.7332C37.6694 32.7332 37.8398 32.7008 37.9499 32.6514L38.0065 32.8533L38.0077 32.8521Z" fill="white"/>
<path d="M40.0021 32.1963C40.0021 32.7204 39.6114 32.9491 39.2426 32.9491C38.83 32.9491 38.5117 32.6679 38.5117 32.2201C38.5117 31.7455 38.8458 31.4673 39.2682 31.4673C39.6905 31.4673 40.0021 31.7632 40.0021 32.1963ZM38.7923 32.211C38.7923 32.5215 38.9846 32.7557 39.2554 32.7557C39.5262 32.7557 39.7185 32.5245 39.7185 32.2055C39.7185 31.9651 39.5895 31.6607 39.2615 31.6607C38.9335 31.6607 38.7923 31.9419 38.7923 32.211Z" fill="white"/>
<path d="M40.6666 31.8827C40.6666 31.7363 40.6635 31.6161 40.6538 31.499H40.8966L40.9094 31.7278H40.9191C41.0043 31.593 41.1461 31.4673 41.3981 31.4673C41.6062 31.4673 41.7638 31.5844 41.8295 31.7516H41.8356C41.8831 31.6723 41.9427 31.6113 42.006 31.5673C42.0973 31.5027 42.1983 31.4679 42.3432 31.4679C42.5446 31.4679 42.844 31.5911 42.844 32.0828V32.9174H42.5732V32.1152C42.5732 31.8431 42.4661 31.679 42.2422 31.679C42.0845 31.679 41.9616 31.7876 41.9147 31.9132C41.902 31.9486 41.8928 31.995 41.8928 32.042V32.9174H41.622V32.0682C41.622 31.8425 41.5149 31.679 41.3038 31.679C41.1303 31.679 41.0043 31.8077 40.9605 31.9364C40.9447 31.9742 40.9386 32.0182 40.9386 32.0621V32.9174H40.6678V31.8833L40.6666 31.8827Z" fill="white"/>
<path d="M43.9303 31.092V31.499H44.3271V31.6954H43.9303V32.4598C43.9303 32.6355 43.9838 32.7349 44.1384 32.7349C44.2108 32.7349 44.2644 32.7264 44.2991 32.7173L44.3118 32.9106C44.2583 32.9314 44.1731 32.946 44.066 32.946C43.937 32.946 43.8329 32.9082 43.7666 32.8374C43.6881 32.7612 43.6595 32.6355 43.6595 32.4683V31.6954H43.4233V31.499H43.6595V31.1591L43.9303 31.092Z" fill="white"/>
<path d="M45.0897 32.2548C45.0958 32.6031 45.3355 32.7465 45.6124 32.7465C45.8108 32.7465 45.9307 32.7141 46.0348 32.6733L46.0822 32.8575C45.9843 32.8984 45.8175 32.9454 45.5747 32.9454C45.1055 32.9454 44.825 32.658 44.825 32.231C44.825 31.8039 45.0958 31.4666 45.54 31.4666C46.0378 31.4666 46.1699 31.8735 46.1699 32.134C46.1699 32.1864 46.1638 32.2279 46.1601 32.2541H45.0891L45.0897 32.2548ZM45.9027 32.0705C45.9058 31.9064 45.8303 31.652 45.5181 31.652C45.2376 31.652 45.1146 31.8924 45.0927 32.0705H45.9027Z" fill="white"/>
<path d="M6.89818 28.8256H55.8339C55.8607 28.8256 55.8863 28.8176 55.9082 28.8024L56.7279 28.2271C56.7431 28.2167 56.7602 28.2094 56.7784 28.2057C56.8679 28.1899 57.2008 28.2924 57.0048 28.3772C56.7547 28.4864 56.1413 28.9238 56.0007 28.9824C55.9849 28.9891 55.9684 28.9921 55.952 28.9921L6.89879 29.0842C6.82759 29.0842 6.76978 29.0263 6.76978 28.9549C6.76978 28.8835 6.82759 28.8256 6.89879 28.8256H6.89818Z" fill="white"/>
<path d="M8.76645 20.7357C8.74454 20.3227 8.71776 19.8261 8.72202 19.4576H8.70864C8.60701 19.8047 8.48347 20.1738 8.33376 20.5819L7.80857 22.0186H7.51768L7.03691 20.6088C6.89573 20.1915 6.77645 19.809 6.69307 19.4576H6.68395C6.67482 19.8267 6.65291 20.3233 6.62674 20.7668L6.54702 22.0363H6.18066L6.38818 19.0757H6.87808L7.38562 20.5075C7.50916 20.8723 7.61079 21.1969 7.68564 21.5044H7.69903C7.77388 21.2054 7.87977 20.8809 8.01244 20.5075L8.54189 19.0757H9.03178L9.21678 22.0363H8.84191L8.76706 20.7363L8.76645 20.7357Z" fill="white"/>
<path d="M10.3677 21.0431C10.3768 21.5659 10.7115 21.7813 11.0998 21.7813C11.3779 21.7813 11.5453 21.7331 11.6907 21.6715L11.757 21.9484C11.6201 22.0101 11.3864 22.0802 11.0468 22.0802C10.3896 22.0802 9.99707 21.6495 9.99707 21.0083C9.99707 20.3672 10.3762 19.862 10.9988 19.862C11.6956 19.862 11.8812 20.4727 11.8812 20.8637C11.8812 20.9431 11.8721 21.0041 11.8678 21.0437H10.3677V21.0431ZM11.5057 20.7661C11.51 20.5203 11.4041 20.1378 10.9677 20.1378C10.5752 20.1378 10.403 20.4977 10.3719 20.7661H11.5057ZM11.5982 18.9915L11.0602 19.6198H10.7821L11.1704 18.9915H11.5982Z" fill="white"/>
<path d="M13.1601 19.2988V19.9095H13.7158V20.2036H13.1601V21.3499C13.1601 21.6134 13.235 21.7629 13.451 21.7629C13.5527 21.7629 13.6275 21.7495 13.6762 21.7366L13.6939 22.0264C13.619 22.0569 13.4997 22.0789 13.35 22.0789C13.1693 22.0789 13.0238 22.0215 12.9307 21.9166C12.8206 21.8025 12.781 21.6134 12.781 21.3633V20.2036H12.45V19.9095H12.781V19.4001L13.1601 19.2988Z" fill="white"/>
<path d="M14.9161 19.3124C14.9203 19.4442 14.8236 19.5497 14.669 19.5497C14.5321 19.5497 14.4353 19.4442 14.4353 19.3124C14.4353 19.1806 14.5369 19.0708 14.6781 19.0708C14.8193 19.0708 14.9161 19.1763 14.9161 19.3124ZM14.484 22.0357V19.9096H14.8723V22.0357H14.484Z" fill="white"/>
<path d="M16.063 21.0431C16.0721 21.566 16.4068 21.7813 16.7951 21.7813C17.0732 21.7813 17.2406 21.7331 17.386 21.6715L17.4523 21.9485C17.3154 22.0101 17.0817 22.0803 16.7422 22.0803C16.0849 22.0803 15.6924 21.6495 15.6924 21.0084C15.6924 20.3672 16.0715 19.8621 16.6941 19.8621C17.3909 19.8621 17.5765 20.4727 17.5765 20.8638C17.5765 20.9431 17.5674 21.0041 17.5631 21.0438H16.063V21.0431ZM17.201 20.7662C17.2053 20.5203 17.0994 20.1378 16.663 20.1378C16.2705 20.1378 16.0983 20.4977 16.0673 20.7662H17.201Z" fill="white"/>
<path d="M18.3878 20.5727C18.3878 20.3225 18.3835 20.1072 18.3701 19.9095H18.7097L18.7231 20.3268H18.7407C18.8375 20.0413 19.0718 19.8613 19.3316 19.8613C19.3755 19.8613 19.4065 19.8656 19.4418 19.8747V20.2396C19.4022 20.231 19.3627 20.2261 19.3097 20.2261C19.0365 20.2261 18.8424 20.4323 18.7894 20.7227C18.7803 20.7752 18.7718 20.8368 18.7718 20.9027V22.0362H18.3878V20.5733V20.5727Z" fill="white"/>
<path d="M20.1088 21.6403C20.2233 21.7147 20.4265 21.794 20.6206 21.794C20.903 21.794 21.0351 21.6537 21.0351 21.478C21.0351 21.2938 20.9249 21.1925 20.6383 21.0869C20.2543 20.9509 20.0736 20.7398 20.0736 20.4854C20.0736 20.1426 20.3517 19.8613 20.8105 19.8613C21.0266 19.8613 21.2164 19.9229 21.3357 19.9931L21.2389 20.2743C21.155 20.2219 21.0004 20.1511 20.802 20.1511C20.5726 20.1511 20.4448 20.2829 20.4448 20.4409C20.4448 20.6166 20.5726 20.6959 20.8507 20.8008C21.2213 20.9411 21.4112 21.126 21.4112 21.442C21.4112 21.8154 21.1203 22.0789 20.6127 22.0789C20.379 22.0789 20.163 22.0216 20.0127 21.9337L20.1101 21.6397L20.1088 21.6403Z" fill="white"/>
<path d="M25.3497 18.917V21.4866C25.3497 21.6757 25.354 21.8904 25.3674 22.0356H25.0187L25.001 21.6666H24.9919C24.8726 21.9039 24.6128 22.0838 24.2641 22.0838C23.748 22.0838 23.3506 21.6489 23.3506 21.0034C23.3464 20.2963 23.7876 19.8614 24.3079 19.8614C24.6341 19.8614 24.855 20.0151 24.9517 20.1865H24.9609V18.917H25.3491H25.3497ZM24.9615 20.7753C24.9615 20.7271 24.9572 20.6612 24.9438 20.613C24.8866 20.3671 24.6748 20.1652 24.3833 20.1652C23.9817 20.1652 23.7437 20.5166 23.7437 20.9863C23.7437 21.417 23.9555 21.7727 24.3748 21.7727C24.6353 21.7727 24.8732 21.6013 24.9438 21.3115C24.9572 21.259 24.9615 21.206 24.9615 21.1443V20.7753Z" fill="white"/>
<path d="M28.1114 21.4561C28.1114 21.6757 28.1157 21.8691 28.1291 22.0356H27.7852L27.7633 21.6885H27.7542C27.6526 21.8599 27.428 22.0838 27.0482 22.0838C26.7129 22.0838 26.3113 21.8996 26.3113 21.1522V19.9089H26.6995V21.0864C26.6995 21.4902 26.8231 21.7629 27.176 21.7629C27.4365 21.7629 27.6173 21.583 27.6878 21.4115C27.7098 21.3542 27.7231 21.284 27.7231 21.2139V19.9089H28.1114V21.4554V21.4561Z" fill="white"/>
<path d="M32.8709 20.7357C32.849 20.3227 32.8223 19.8261 32.8265 19.4576H32.8131C32.7115 19.8047 32.588 20.1738 32.4383 20.5819L31.9131 22.0186H31.6222L31.1414 20.6088C31.0002 20.1915 30.8809 19.809 30.7976 19.4576H30.7884C30.7793 19.8267 30.7574 20.3233 30.7312 20.7668L30.6515 22.0363H30.2852L30.4927 19.0757H30.9826L31.4901 20.5075C31.6137 20.8723 31.7153 21.1969 31.7901 21.5044H31.8035C31.8784 21.2054 31.9843 20.8809 32.1169 20.5075L32.6464 19.0757H33.1363L33.3213 22.0363H32.9464L32.8716 20.7363L32.8709 20.7357Z" fill="white"/>
<path d="M36.0301 21.4561C36.0301 21.6757 36.0344 21.8691 36.0478 22.0356H35.7039L35.682 21.6885H35.6729C35.5713 21.8599 35.3467 22.0838 34.967 22.0838C34.6316 22.0838 34.23 21.8996 34.23 21.1522V19.9089H34.6182V21.0864C34.6182 21.4902 34.7418 21.7629 35.0947 21.7629C35.3552 21.7629 35.536 21.583 35.6066 21.4115C35.6285 21.3542 35.6418 21.284 35.6418 21.2139V19.9089H36.0301V21.4554V21.4561Z" fill="white"/>
<path d="M37.0049 18.917H37.3931V22.0356H37.0049V18.917Z" fill="white"/>
<path d="M38.8446 19.2988V19.9095H39.4002V20.2036H38.8446V21.3499C38.8446 21.6134 38.9194 21.7629 39.1355 21.7629C39.2371 21.7629 39.312 21.7495 39.3607 21.7366L39.3783 22.0264C39.3034 22.0569 39.1842 22.0789 39.0345 22.0789C38.8537 22.0789 38.7083 22.0215 38.6152 21.9166C38.505 21.8025 38.4648 21.6134 38.4648 21.3633V20.2036H38.1338V19.9095H38.4648V19.4001L38.844 19.2988H38.8446Z" fill="white"/>
<path d="M40.6004 19.3124C40.6047 19.4442 40.5079 19.5497 40.3533 19.5497C40.2164 19.5497 40.1196 19.4442 40.1196 19.3124C40.1196 19.1806 40.2213 19.0708 40.3624 19.0708C40.5036 19.0708 40.601 19.1763 40.601 19.3124H40.6004ZM40.1683 22.0357V19.9096H40.5566V22.0357H40.1683Z" fill="white"/>
<path d="M41.5308 20.4849C41.5308 20.2653 41.5266 20.0853 41.5132 19.9096H41.8528L41.8704 20.2525H41.8838C42.0031 20.0506 42.2015 19.8615 42.5544 19.8615C42.8459 19.8615 43.0662 20.0371 43.1587 20.2873H43.1673C43.2336 20.1689 43.317 20.0762 43.4058 20.0103C43.5336 19.9139 43.6748 19.8608 43.8781 19.8608C44.1604 19.8608 44.5797 20.0451 44.5797 20.7833V22.0351H44.2006V20.8315C44.2006 20.4227 44.0509 20.1769 43.7375 20.1769C43.5172 20.1769 43.345 20.3391 43.2786 20.5283C43.261 20.5807 43.2476 20.6515 43.2476 20.7216V22.0351H42.8685V20.7613C42.8685 20.4233 42.7187 20.1769 42.423 20.1769C42.1802 20.1769 42.0037 20.3702 41.9422 20.5636C41.9203 20.621 41.9112 20.6869 41.9112 20.7528V22.0357H41.532V20.4849H41.5308Z" fill="white"/>
<path d="M45.7573 21.0431C45.7659 21.5659 46.1012 21.7813 46.4894 21.7813C46.7675 21.7813 46.9349 21.7331 47.0804 21.6715L47.1467 21.9484C47.0098 22.0101 46.7761 22.0802 46.4365 22.0802C45.7792 22.0802 45.3867 21.6495 45.3867 21.0083C45.3867 20.3672 45.7659 19.862 46.3884 19.862C47.0852 19.862 47.2708 20.4727 47.2708 20.8637C47.2708 20.9431 47.2623 21.0041 47.2574 21.0437H45.7573V21.0431ZM46.8953 20.7661C46.8996 20.5203 46.7937 20.1378 46.3574 20.1378C45.9649 20.1378 45.7926 20.4977 45.7616 20.7661H46.8953ZM46.9878 18.9915L46.4499 19.6198H46.1718L46.56 18.9915H46.9878Z" fill="white"/>
<path d="M49.9267 18.917V21.4866C49.9267 21.6757 49.9309 21.8904 49.9443 22.0356H49.5956L49.5779 21.6666H49.5688C49.4495 21.9039 49.1897 22.0838 48.841 22.0838C48.3249 22.0838 47.9275 21.6489 47.9275 21.0034C47.9233 20.2963 48.3645 19.8614 48.8848 19.8614C49.211 19.8614 49.4319 20.0151 49.5286 20.1865H49.5372V18.917H49.9254H49.9267ZM49.5384 20.7753C49.5384 20.7271 49.5341 20.6612 49.5207 20.613C49.4635 20.3671 49.2518 20.1652 48.9603 20.1652C48.5586 20.1652 48.3207 20.5166 48.3207 20.9863C48.3207 21.417 48.5324 21.7727 48.9517 21.7727C49.2122 21.7727 49.4501 21.6013 49.5207 21.3115C49.5341 21.259 49.5384 21.206 49.5384 21.1443V20.7753Z" fill="white"/>
<path d="M51.3335 19.3124C51.3378 19.4442 51.241 19.5497 51.0865 19.5497C50.9495 19.5497 50.8528 19.4442 50.8528 19.3124C50.8528 19.1806 50.9544 19.0708 51.0956 19.0708C51.2368 19.0708 51.3342 19.1763 51.3342 19.3124H51.3335ZM50.9015 22.0357V19.9096H51.2897V22.0357H50.9015Z" fill="white"/>
<path d="M53.4466 22.0356L53.4156 21.7678H53.4022C53.2829 21.9349 53.0535 22.0838 52.7492 22.0838C52.3171 22.0838 52.0962 21.7806 52.0962 21.4731C52.0962 20.9594 52.5551 20.6782 53.3803 20.6825V20.6385C53.3803 20.4628 53.3316 20.1462 52.8952 20.1462C52.6968 20.1462 52.4893 20.2078 52.3396 20.3042L52.2514 20.0492C52.4279 19.9351 52.6835 19.8601 52.953 19.8601C53.606 19.8601 53.7649 20.3036 53.7649 20.7301V21.525C53.7649 21.7092 53.7734 21.8898 53.8002 22.0344H53.4472L53.4466 22.0356ZM53.3894 20.9503C52.9658 20.9418 52.4851 21.0162 52.4851 21.4292C52.4851 21.6793 52.6524 21.7983 52.8514 21.7983C53.1295 21.7983 53.306 21.6226 53.3675 21.4426C53.3809 21.403 53.3894 21.359 53.3894 21.3194V20.9503Z" fill="white"/>
<path d="M6.46363 25.4355C6.47276 25.9583 6.80747 26.1737 7.19573 26.1737C7.47385 26.1737 7.6412 26.1255 7.78665 26.0638L7.85298 26.3408C7.71605 26.4024 7.48237 26.4726 7.14279 26.4726C6.48554 26.4726 6.09302 26.0419 6.09302 25.4007C6.09302 24.7595 6.47215 24.2544 7.09471 24.2544C7.79152 24.2544 7.97713 24.8651 7.97713 25.2561C7.97713 25.3354 7.968 25.3964 7.96374 25.4361H6.46363V25.4355ZM7.60165 25.1585C7.60591 24.9127 7.50001 24.5301 7.06368 24.5301C6.67115 24.5301 6.49893 24.8901 6.46789 25.1585H7.60165Z" fill="white"/>
<path d="M9.25634 23.6914V24.3021H9.81195V24.5961H9.25634V25.7424C9.25634 26.006 9.33119 26.1555 9.54723 26.1555C9.64886 26.1555 9.72371 26.142 9.7724 26.1292L9.79005 26.419C9.71519 26.4495 9.59591 26.4715 9.44621 26.4715C9.26546 26.4715 9.12002 26.4141 9.02691 26.3092C8.91676 26.1951 8.8772 26.006 8.8772 25.7559V24.5961H8.54614V24.3021H8.8772V23.7927L9.25634 23.6914Z" fill="white"/>
<path d="M13.6896 23.3096V25.8792C13.6896 26.0683 13.6938 26.283 13.7072 26.4282H13.3585L13.3409 26.0591H13.3318C13.2125 26.2964 12.9526 26.4764 12.6039 26.4764C12.0879 26.4764 11.6905 26.0414 11.6905 25.396C11.6862 24.6889 12.1274 24.254 12.6477 24.254C12.9739 24.254 13.1948 24.4077 13.2916 24.5791H13.3007V23.3096H13.689H13.6896ZM13.3013 25.1678C13.3013 25.1196 13.2971 25.0537 13.2837 25.0056C13.2265 24.7597 13.0147 24.5578 12.7232 24.5578C12.3215 24.5578 12.0836 24.9092 12.0836 25.3789C12.0836 25.8096 12.2954 26.1653 12.7147 26.1653C12.9751 26.1653 13.2131 25.9939 13.2837 25.7041C13.2971 25.6516 13.3013 25.5985 13.3013 25.5369V25.1678Z" fill="white"/>
<path d="M14.8806 25.4355C14.8898 25.9583 15.2245 26.1737 15.6127 26.1737C15.8908 26.1737 16.0582 26.1255 16.2036 26.0638L16.27 26.3408C16.133 26.4024 15.8994 26.4726 15.5598 26.4726C14.9025 26.4726 14.51 26.0419 14.51 25.4007C14.51 24.7595 14.8891 24.2544 15.5117 24.2544C16.2085 24.2544 16.3941 24.8651 16.3941 25.2561C16.3941 25.3354 16.385 25.3964 16.3807 25.4361H14.8806V25.4355ZM16.0186 25.1585C16.0229 24.9127 15.917 24.5301 15.4807 24.5301C15.0881 24.5301 14.9159 24.8901 14.8849 25.1585H16.0186Z" fill="white"/>
<path d="M18.4717 23.3096H18.8599V26.4282H18.4717V23.3096Z" fill="white"/>
<path d="M20.3602 23.4192C20.2586 23.7883 20.0693 24.258 19.9458 24.4606L19.6987 24.4911C19.7955 24.2318 19.9105 23.7749 19.9592 23.4588L20.3608 23.4192H20.3602Z" fill="white"/>
<path d="M21.5117 23.4675V26.4282H21.1277V23.4675H21.5117Z" fill="white"/>
<path d="M22.5438 24.8774C22.5438 24.6578 22.5395 24.4778 22.5261 24.3021H22.87L22.8919 24.6535H22.901C23.0069 24.4516 23.254 24.2539 23.6069 24.2539C23.9027 24.2539 24.3615 24.4296 24.3615 25.1586V26.4282H23.9733V25.2026C23.9733 24.8597 23.8455 24.5742 23.4791 24.5742C23.2229 24.5742 23.0245 24.7542 22.9588 24.9695C22.9412 25.0177 22.932 25.0836 22.932 25.1495V26.4276H22.5438V24.8768V24.8774Z" fill="white"/>
<path d="M25.7727 23.6914V24.3021H26.3283V24.5961H25.7727V25.7424C25.7727 26.006 25.8475 26.1555 26.0636 26.1555C26.1652 26.1555 26.2401 26.142 26.2888 26.1292L26.3064 26.419C26.2315 26.4495 26.1123 26.4715 25.9626 26.4715C25.7818 26.4715 25.6364 26.4141 25.5433 26.3092C25.4331 26.1951 25.3936 26.006 25.3936 25.7559V24.5961H25.0625V24.3021H25.3936V23.7927L25.7727 23.6914Z" fill="white"/>
<path d="M27.2861 25.4355C27.2953 25.9583 27.63 26.1737 28.0182 26.1737C28.2964 26.1737 28.4637 26.1255 28.6092 26.0638L28.6755 26.3408C28.5386 26.4024 28.3049 26.4726 27.9653 26.4726C27.3081 26.4726 26.9155 26.0419 26.9155 25.4007C26.9155 24.7595 27.2947 24.2544 27.9172 24.2544C28.614 24.2544 28.7996 24.8651 28.7996 25.2561C28.7996 25.3354 28.7905 25.3964 28.7862 25.4361H27.2861V25.4355ZM28.4242 25.1585C28.4284 24.9127 28.3225 24.5301 27.8862 24.5301C27.4937 24.5301 27.3214 24.8901 27.2904 25.1585H28.4242Z" fill="white"/>
<path d="M29.6109 24.9652C29.6109 24.7151 29.6067 24.4998 29.5933 24.3021H29.9328L29.9462 24.7194H29.9639C30.0606 24.4339 30.2949 24.2539 30.5548 24.2539C30.5986 24.2539 30.6296 24.2582 30.6649 24.2673V24.6321C30.6254 24.6236 30.5858 24.6187 30.5329 24.6187C30.2596 24.6187 30.0655 24.8249 30.0126 25.1153C30.0034 25.1678 29.9949 25.2294 29.9949 25.2953V26.4288H29.6109V24.9659V24.9652Z" fill="white"/>
<path d="M31.4019 24.8774C31.4019 24.6578 31.3977 24.4778 31.3843 24.3021H31.7281L31.75 24.6535H31.7592C31.865 24.4516 32.1121 24.2539 32.4651 24.2539C32.7608 24.2539 33.2197 24.4296 33.2197 25.1586V26.4282H32.8314V25.2026C32.8314 24.8597 32.7036 24.5742 32.3373 24.5742C32.0811 24.5742 31.8827 24.7542 31.817 24.9695C31.7993 25.0177 31.7902 25.0836 31.7902 25.1495V26.4276H31.4019V24.8768V24.8774Z" fill="white"/>
<path d="M34.3972 25.4355C34.4064 25.9583 34.7411 26.1737 35.1293 26.1737C35.4074 26.1737 35.5748 26.1255 35.7202 26.0638L35.7866 26.3408C35.6496 26.4024 35.416 26.4726 35.0764 26.4726C34.4191 26.4726 34.0266 26.0419 34.0266 25.4007C34.0266 24.7595 34.4057 24.2544 35.0283 24.2544C35.7251 24.2544 35.9107 24.8651 35.9107 25.2561C35.9107 25.3354 35.9016 25.3964 35.8973 25.4361H34.3972V25.4355ZM35.5352 25.1585C35.5395 24.9127 35.4336 24.5301 34.9973 24.5301C34.6047 24.5301 34.4325 24.8901 34.4015 25.1585H35.5352Z" fill="white"/>
<path d="M37.1899 23.6914V24.3021H37.7455V24.5961H37.1899V25.7424C37.1899 26.006 37.2648 26.1555 37.4808 26.1555C37.5825 26.1555 37.6573 26.142 37.706 26.1292L37.7236 26.419C37.6488 26.4495 37.5295 26.4715 37.3798 26.4715C37.1991 26.4715 37.0536 26.4141 36.9605 26.3092C36.8504 26.1951 36.8108 26.006 36.8108 25.7559V24.5961H36.4797V24.3021H36.8108V23.7927L37.1899 23.6914Z" fill="white"/>
<path d="M47.8666 3.62436C48.5263 3.59508 49.2608 4.1722 49.2474 4.88902C49.2347 5.5485 48.5951 6.04387 48.0291 6.09207C47.384 6.14698 46.6191 5.6394 46.5941 4.91953C46.5704 4.22771 47.2422 3.65181 47.8666 3.62375V3.62436Z" fill="#1974BA"/>
<path d="M49.2474 7.80584V15.7123C49.2474 15.7123 48.9504 16.3803 47.9134 16.3803C46.8764 16.3803 46.6543 15.7568 46.6543 15.7568V7.20798C46.6543 7.20798 46.9647 6.43136 47.9201 6.44601C47.9469 6.44601 47.9731 6.44723 47.9986 6.44906C48.7052 6.49054 49.2474 7.09633 49.2474 7.80523V7.80584Z" fill="white"/>
<path d="M44.3137 10.0289V15.0796C44.3137 15.7678 43.78 16.354 43.0935 16.3791C43.0674 16.3803 43.0412 16.3803 43.0138 16.3803C42.9542 16.3797 42.8964 16.376 42.841 16.3699C42.188 16.2985 41.6987 15.7354 41.6987 15.0772V10.2296C41.6987 10.046 41.6622 9.86356 41.5849 9.69702C41.3756 9.24557 40.8078 8.49519 39.3503 8.50617C37.8928 8.51715 37.2288 9.28217 36.9282 9.76595C36.801 9.97093 36.7353 10.2076 36.7353 10.4486V15.0778C36.7353 15.7824 36.176 16.3632 35.4731 16.3791C35.4409 16.3797 35.4074 16.3803 35.3733 16.3797C35.3338 16.3797 35.2954 16.3784 35.2577 16.3772C34.5609 16.3534 34.0107 15.7751 34.0107 15.0766V10.2198C34.0107 10.0521 33.9803 9.88553 33.9158 9.73057C33.7247 9.27119 33.1636 8.49458 31.5528 8.50617C29.8372 8.51776 29.3181 9.44933 29.166 9.91298C29.1246 10.0399 29.1051 10.1729 29.1051 10.3059V14.1029C29.1051 14.827 28.5148 15.4121 27.7924 15.4048L27.6543 15.4036C26.9429 15.3956 26.3696 14.8155 26.3696 14.1017V9.77632C26.3696 9.51278 26.4487 9.25594 26.5978 9.03876C27.1571 8.22737 28.7491 6.33373 31.4426 6.30933C33.2087 6.29347 34.1897 6.69733 34.7258 7.09326C35.1518 7.40744 35.7275 7.42636 36.1748 7.1439C36.8217 6.73637 37.8538 6.30018 39.3022 6.30872C42.0109 6.32458 44.2498 8.22432 44.3125 10.0289H44.3137Z" fill="white"/>
<path d="M24.3347 10.0289V15.0796C24.3347 15.7678 23.801 16.354 23.1145 16.3791C23.0884 16.3803 23.0622 16.3803 23.0348 16.3803C22.9752 16.3797 22.9174 16.376 22.862 16.3699C22.209 16.2985 21.7197 15.7354 21.7197 15.0772V10.2296C21.7197 10.046 21.6832 9.86356 21.6059 9.69702C21.3966 9.24557 20.8288 8.49519 19.3713 8.50617C17.9491 8.51715 17.2498 9.28217 16.9492 9.76595C16.822 9.97093 16.7563 10.2076 16.7563 10.4486V15.0778C16.7563 15.7824 16.197 16.3632 15.4941 16.3791C15.4619 16.3797 15.4284 16.3803 15.3943 16.3797C15.3548 16.3797 15.3164 16.3784 15.2787 16.3772C14.5819 16.3534 14.0317 15.7751 14.0317 15.0766V10.2198C14.0317 10.0521 14.0013 9.88553 13.9368 9.73057C13.7457 9.27119 13.1846 8.49458 11.5738 8.50617C9.85822 8.51776 9.33911 9.44933 9.18697 9.91298C9.14559 10.0399 9.12612 10.1729 9.12612 10.3059V14.1029C9.12612 14.827 8.53581 15.4121 7.81344 15.4048L7.6753 15.4036C6.96389 15.3956 6.39062 14.8155 6.39062 14.1017V9.77632C6.39062 9.51278 6.42531 9.42493 6.61884 9.03876C7.06065 8.15782 8.77011 6.33373 11.4636 6.30933C13.2297 6.29347 14.2107 6.69733 14.7468 7.09326C15.1728 7.40744 15.7485 7.42636 16.1958 7.1439C16.8427 6.73637 17.8748 6.30018 19.3232 6.30872C22.0319 6.32458 24.2708 8.22432 24.3335 10.0289H24.3347Z" fill="white"/>
<path d="M27.6829 13.0841C28.3633 13.0548 29.1204 13.6313 29.1057 14.3481C29.093 15.0076 28.4333 15.5024 27.8503 15.5506C27.1857 15.6055 26.397 15.0985 26.3715 14.3786C26.3471 13.6868 27.0397 13.1115 27.6829 13.0835V13.0841Z" fill="#DA0B3D"/>
<path d="M7.70625 13.0833C8.38541 13.0541 9.14064 13.6312 9.12664 14.348C9.11386 15.0075 8.45539 15.5029 7.87361 15.5511C7.21027 15.606 6.42279 15.0984 6.39784 14.3785C6.3735 13.6867 7.06483 13.1108 7.70686 13.0827L7.70625 13.0833Z" fill="#F5BD45"/>
<path d="M6.82926 30.1073C6.92602 30.1031 7.03374 30.1854 7.03191 30.2879C7.03009 30.3819 6.93637 30.4526 6.853 30.4593C6.75806 30.4673 6.64608 30.3947 6.64243 30.2922C6.63878 30.1934 6.73737 30.111 6.82926 30.1073Z" fill="#F5BD45"/>
<path d="M45.0275 30.6459C45.1778 30.5892 45.2934 30.8637 45.5381 30.8582C45.7553 30.8533 45.8533 30.6325 45.9762 30.6862C46.0566 30.7216 46.0931 30.8503 46.0736 30.9455C46.0328 31.1504 45.7231 31.2633 45.4882 31.2578C45.2393 31.2517 44.9228 31.1077 44.9027 30.8954C44.8936 30.8021 44.9405 30.6782 45.0275 30.6459Z" fill="#FF0000"/>
<path d="M6.63696 30.9712H7.03801L6.99541 32.9167H6.63696V30.9712Z" fill="white"/>
<path d="M7.73901 31.1761H8.19848V32.1571C8.19848 32.4597 8.36462 32.6104 8.69811 32.6104C8.84599 32.6104 8.96344 32.5701 9.04925 32.489C9.13567 32.4079 9.17887 32.2974 9.17887 32.1565V31.1755H9.63347V32.2157C9.63347 32.4335 9.54462 32.6129 9.36692 32.7538C9.18922 32.8941 8.96162 32.9649 8.68533 32.9649C8.40904 32.9649 8.17535 32.8947 8.0013 32.7538C7.82665 32.6129 7.73962 32.4298 7.73962 32.2029V31.1755L7.73901 31.1761Z" fill="white"/>
<path d="M13.0366 30.7974L14.7205 32.3695V30.8803H15.0315V33.0448L13.3476 31.4794V32.9485H13.0366V30.7974Z" fill="white"/>
<path d="M15.6589 32.2738C15.6589 32.0908 15.7387 31.9285 15.8975 31.7858C16.0563 31.6436 16.2395 31.5723 16.4452 31.5723C16.6509 31.5723 16.8426 31.6424 17.0014 31.7827C17.1597 31.923 17.2394 32.0866 17.2394 32.2738C17.2394 32.4611 17.1615 32.6283 17.0063 32.7717C16.8511 32.915 16.671 32.987 16.4671 32.987C16.2492 32.987 16.06 32.9162 15.8993 32.7741C15.7393 32.6326 15.6589 32.4654 15.6589 32.2738ZM16.9387 32.2745C16.9387 32.1604 16.8913 32.0615 16.7957 31.9773C16.7002 31.8932 16.587 31.8511 16.4562 31.8511C16.3253 31.8511 16.2054 31.8938 16.1087 31.9786C16.0119 32.0634 15.9632 32.1652 15.9632 32.2836C15.9632 32.402 16.0125 32.4953 16.1105 32.5795C16.2085 32.6637 16.3241 32.7064 16.4562 32.7064C16.5882 32.7064 16.6978 32.6631 16.7939 32.5764C16.8907 32.4898 16.9387 32.3891 16.9387 32.2738V32.2745Z" fill="white"/>
<path d="M18.193 31.6094V31.8851C18.2623 31.7747 18.3299 31.6948 18.3956 31.6453C18.4619 31.5959 18.5477 31.5715 18.6542 31.5715C18.6841 31.5715 18.7267 31.5782 18.7827 31.5911L18.6877 31.8735C18.6281 31.8625 18.5885 31.857 18.5697 31.857C18.465 31.857 18.3767 31.89 18.3061 31.9571C18.2349 32.0236 18.1996 32.1066 18.1996 32.206V32.9478H17.8887V31.6081H18.1923L18.193 31.6094Z" fill="white"/>
<path d="M20.5774 30.8413H20.8848V32.9485H20.5811V32.6691C20.4344 32.8801 20.2421 32.9857 20.0048 32.9857C19.8125 32.9857 19.6482 32.9161 19.5106 32.7764C19.3731 32.6367 19.3049 32.469 19.3049 32.2731C19.3049 32.0773 19.3749 31.9169 19.5143 31.779C19.6536 31.6411 19.8204 31.5722 20.0139 31.5722C20.1295 31.5722 20.2379 31.6014 20.3377 31.66C20.4381 31.7186 20.5178 31.7948 20.5774 31.8888V30.8413ZM20.6133 32.2768C20.6133 32.1566 20.5653 32.0523 20.4685 31.9644C20.3717 31.876 20.2567 31.8321 20.1228 31.8321C19.989 31.8321 19.8672 31.8754 19.7711 31.9614C19.6749 32.0474 19.6269 32.1529 19.6269 32.2774C19.6269 32.4019 19.6755 32.5007 19.7735 32.5898C19.8715 32.6788 19.9853 32.724 20.1155 32.724C20.2543 32.724 20.3717 32.6807 20.4685 32.594C20.5653 32.5074 20.6133 32.4019 20.6133 32.2774V32.2768Z" fill="white"/>
<path d="M10.8306 30.1799V30.7906H11.3862V31.0847H10.8306V32.231C10.8306 32.4945 10.9054 32.644 11.1214 32.644C11.2231 32.644 11.2979 32.6306 11.3466 32.6177L11.3643 32.9075C11.2894 32.938 11.1701 32.96 11.0204 32.96C10.8397 32.96 10.6942 32.9026 10.6011 32.7977C10.491 32.6836 10.4514 32.4945 10.4514 32.2444V31.0847H10.1204V30.7906H10.4514V30.2812L10.8306 30.1799Z" fill="white"/>
<path d="M11.3461 32.6134C11.432 32.6098 11.5275 32.6805 11.5257 32.7684C11.5238 32.8495 11.4405 32.9099 11.3668 32.916C11.2829 32.9227 11.1831 32.8605 11.18 32.772C11.177 32.6872 11.2646 32.6165 11.3455 32.6134H11.3461Z" fill="#1974BA"/>
<path d="M9.3962 30.9577C9.50939 30.9522 9.63537 31.0541 9.63293 31.1804C9.6305 31.2963 9.52096 31.3836 9.4242 31.3921C9.31344 31.4019 9.1826 31.3122 9.17834 31.1859C9.17408 31.0639 9.2897 30.9626 9.39681 30.9577H9.3962Z" fill="#FF0000"/>
</svg>
