<svg width="127" height="65" viewBox="0 0 127 65" fill="none" xmlns="http://www.w3.org/2000/svg">
<path d="M39.0161 28.5759C38.9344 22.1807 37.7621 15.4931 35.498 8.45483C35.0794 7.14868 34.4836 6.00941 33.7106 5.03513C32.9345 4.05771 32.0348 3.28733 31.0091 2.72271C29.9785 2.15495 28.8736 1.81054 27.69 1.69134L14.4848 0.363235C11.789 0.0922186 10.2786 1.12233 9.98721 3.46988C9.83311 4.70702 10.0427 6.18381 10.6155 7.89774C11.2113 9.67001 11.7197 11.6838 12.139 13.9442C12.5607 16.2089 12.8783 18.5094 13.0917 20.8476C13.3075 23.1939 13.4105 25.1706 13.4011 26.7754C13.4124 28.1462 13.6513 29.4147 14.1167 30.5784C14.5828 31.7422 15.3227 32.687 16.3322 33.4122C17.3366 34.1343 18.5825 34.495 20.0618 34.4962L32.8889 34.5075C33.9458 34.5088 34.9184 34.3269 35.8087 33.9661C36.6928 33.606 37.4208 33.0414 37.9936 32.2716C38.5644 31.5069 38.8951 30.5452 38.9887 29.3852C39.0161 29.0364 39.0249 28.7666 39.0161 28.5759ZM26.8946 13.6844C27.3475 14.8808 27.672 16.2547 27.8697 17.8099C28.0675 19.3683 28.1499 20.6317 28.1168 21.601C28.0351 22.4498 27.9059 22.9881 27.7294 23.2139C27.5528 23.4398 27.3157 23.5477 27.0194 23.5376C26.2239 23.4837 25.6412 23.3695 25.2731 23.1938C24.9044 23.0176 24.7004 22.6066 24.6623 21.9611C24.5375 18.8676 24.0653 15.9398 23.248 13.1669C23.0857 12.5483 23.0103 12.1863 23.0209 12.0803C23.0452 11.8494 23.2124 11.7233 23.5231 11.7051L25.1483 11.8174C25.8602 11.867 26.4416 12.4893 26.8946 13.6851V13.6844Z" fill="#1C1514"/>
<path d="M65.8539 31.446C65.7984 32.707 65.7373 33.6399 65.6674 34.2434C64.273 34.2415 62.4731 34.2503 60.2539 34.271C58.0017 34.2923 56.0664 34.3011 54.4636 34.2986C52.7336 28.2215 51.4421 24.0897 50.5836 21.8908C50.9711 25.5157 51.0628 28.9542 50.8538 32.2108C50.7951 33.1242 50.739 33.8181 50.6853 34.2923L41.4181 34.2773C41.6914 30.7196 41.7126 27.2491 41.4855 23.8545C41.2596 20.4805 40.6931 17.0182 39.7854 13.4561C38.8789 9.90276 37.55 6.25659 35.7937 2.50627L48.9141 3.82559C50.1107 5.53011 51.1183 6.99623 51.9356 8.22584C52.751 9.45232 53.5209 10.6619 54.2434 11.8545C54.9652 13.0445 55.6278 14.2077 56.2298 15.3432C55.3676 12.5477 53.8279 8.78042 51.6031 4.02446L60 4.87076C61.2028 7.12672 62.2042 9.4128 63.0059 11.7346C63.8082 14.0571 64.4327 16.3501 64.8782 18.6186C65.3236 20.8927 65.62 23.0878 65.7666 25.2058C65.9126 27.3331 65.9419 29.4122 65.8533 31.446H65.8539Z" fill="#1C1514"/>
<path d="M98.8994 34.3074C97.8058 34.3055 96.3958 34.3137 94.6607 34.3319C92.9026 34.3513 91.3947 34.3595 90.1469 34.357C88.5791 28.9969 87.4236 25.3507 86.6756 23.4115C87.1104 26.6123 87.3076 29.6455 87.2664 32.5188C87.2552 33.3231 87.2371 33.9341 87.2121 34.3532L80.0505 34.3413C80.126 31.2164 80.0112 28.1656 79.7086 25.18C79.4073 22.2114 78.8396 19.1625 78.0035 16.0276C77.1694 12.899 76.0059 9.69322 74.5098 6.39899L84.7072 7.42409C85.7023 8.92472 86.5402 10.2164 87.2221 11.2999C87.9034 12.3808 88.5479 13.4473 89.1549 14.5006C89.762 15.5508 90.3216 16.5778 90.8326 17.5816C90.0571 15.1066 88.717 11.7742 86.8079 7.57152L93.4011 8.23651C94.4268 10.2346 95.2946 12.2629 96.0083 14.3237C96.7214 16.3852 97.2929 18.4216 97.7247 20.4373C98.1564 22.458 98.4677 24.4078 98.6574 26.2892C98.8477 28.1769 98.945 30.0232 98.9469 31.8269C98.9487 32.9454 98.9325 33.7716 98.9007 34.3068L98.8994 34.3074Z" fill="#1C1514"/>
<path d="M104.179 20.3262C102.888 20.2371 101.883 20.1694 101.171 20.1223C100.456 20.0765 99.426 20.005 98.0734 19.9053C98.1271 19.1794 98.1539 18.4379 98.1533 17.6807C98.1121 13.9191 97.5182 10.8413 96.3708 8.41405L102.336 9.01756C103.598 11.3181 104.241 14.0414 104.269 17.2139C104.274 17.729 104.244 18.7654 104.179 20.3262Z" fill="#1C1514"/>
<path d="M122.608 28.3156C121.963 26.1713 121.186 24.0251 120.277 21.8733C119.365 19.7189 118.393 17.6606 117.359 15.697C116.322 13.7271 115.302 11.9611 114.302 10.3996L107.479 9.71455C107.862 11.3218 108.159 13.0928 108.368 15.032C108.579 16.9787 108.701 19.0188 108.733 21.1568C108.801 25.7152 108.465 30.1205 107.716 34.3871L113.761 34.3971C113.797 33.9944 113.959 33.1016 114.245 31.7233C114.715 31.7296 115.383 31.7434 116.243 31.7641C117.098 31.7854 117.765 31.7986 118.251 31.8049C118.337 32.5006 118.515 33.367 118.782 34.4053L123.932 34.4134C123.695 32.4944 123.254 30.4624 122.608 28.3162L122.608 28.3156ZM114.624 25.2647C114.632 24.9837 114.644 24.4078 114.624 23.5414C114.598 22.3915 114.411 20.431 114.321 19.6888C114.709 20.3795 115.486 22.0552 115.834 22.9335C116.182 23.8105 116.528 24.6054 116.741 25.2654H114.623L114.624 25.2647Z" fill="#1C1514"/>
<path d="M25.1109 36.4216L20.1048 36.4072C19.6369 39.2459 18.3804 42.3036 16.3453 45.5859C16.8038 45.5797 17.2767 45.5778 17.7621 45.579C18.2462 45.5809 18.6618 45.579 19.0086 45.5753C19.8022 44.4762 20.4455 43.4511 20.9352 42.4994C21.7718 42.4862 22.402 42.4743 22.8268 42.4636C23.9923 42.4486 24.8351 41.9153 25.3586 40.8595C25.8957 39.7541 26.2158 38.8325 26.3131 38.0935C26.4622 36.9774 26.0623 36.4184 25.1115 36.4216H25.1109ZM23.3877 39.234C23.3971 39.4172 23.3565 39.5991 23.2754 39.7629C23.2199 39.9147 23.0739 40.0671 22.8724 40.0671C22.5467 40.0671 21.9166 40.059 21.6627 40.0671C21.7456 39.8683 22.0095 39.1123 22.0657 38.9517C22.2653 38.9517 22.7058 38.9492 23.0283 38.9504C23.1718 38.9511 23.3035 39.0282 23.3752 39.1531V39.1543C23.3821 39.1656 23.3858 39.1951 23.3877 39.234Z" fill="#1C1514"/>
<path d="M32.2394 36.4567L29.0302 36.4404C28.5142 37.7058 27.6863 39.17 26.5496 40.8312C25.4172 42.4868 24.1963 44.0251 22.8855 45.4473L25.6331 45.4141C26.0293 44.9749 26.3287 44.6537 26.5315 44.453L27.4785 44.4429C27.7013 44.4479 28.0188 44.4479 28.4312 44.4442C28.2933 44.6807 28.148 44.995 27.9964 45.3852L30.5038 45.3538C31.3205 43.9122 31.8701 42.244 32.1502 40.3432C32.3592 38.9291 32.3892 37.633 32.2388 36.4567H32.2394ZM28.3164 42.0947C28.7843 41.4592 29.4475 40.4605 29.7283 39.9655C29.7395 40.4341 29.6303 41.4354 29.4257 42.0947H28.3164Z" fill="#1C1514"/>
<path d="M36.5599 39.5684C36.5468 39.6543 36.6223 39.6939 36.7876 39.6869C37.3747 39.6857 37.8657 39.6851 38.26 39.6851C39.0997 39.6913 39.4566 40.0734 39.3318 40.8306C39.2994 41.0282 39.2301 41.2453 39.124 41.4793C38.9756 41.8087 38.8308 42.1412 38.6886 42.4768C38.5251 42.8206 38.338 43.1449 38.1271 43.4511C37.774 43.9693 37.3366 44.4002 36.8132 44.7447C36.2897 45.0903 35.8062 45.266 35.3595 45.271L30.8095 45.3168C31.4278 44.3858 32.0385 43.421 32.6425 42.4203L35.6259 42.4002C35.6459 42.4002 35.6958 42.4072 35.775 42.4203C35.8287 42.4272 35.8717 42.4241 35.9048 42.409C35.9372 42.394 35.969 42.3532 35.9996 42.2873C36.0277 42.2428 36.0427 42.2102 36.0458 42.1882C36.0576 42.1154 35.9672 42.0828 35.7756 42.091C35.3863 42.0928 34.8429 42.0972 34.1442 42.101C33.5384 42.1123 33.282 41.8011 33.378 41.165C33.4124 40.936 33.4941 40.6694 33.6232 40.3639C33.8784 39.7252 34.0787 39.1211 34.224 38.5533C34.3681 37.9843 34.614 37.5006 34.959 37.1023C35.3701 36.6299 35.843 36.3984 36.3746 36.409L40.1241 36.4391C39.9282 37.4247 39.6756 38.4103 39.3649 39.3946C38.4521 39.3733 37.6167 39.3664 36.8575 39.3745C36.8038 39.3676 36.7495 39.3632 36.6953 39.3632C36.6541 39.3632 36.6229 39.3908 36.6004 39.4442C36.578 39.4981 36.5649 39.5395 36.5599 39.5678V39.5684Z" fill="#1C1514"/>
<path d="M14.6271 46.0803L11.182 46.123C11.1626 46.2629 11.1414 46.4122 11.1202 46.5721C10.9798 47.5841 10.6092 48.8413 10.0009 50.3507C9.41011 51.8168 8.80432 53.0264 8.18292 53.9724L11.696 53.9925C12.4715 53.9987 13.0917 53.5897 13.5552 52.7685C13.9626 52.0445 14.1723 51.6675 14.1872 51.6343C14.4062 51.2014 14.5354 50.8331 14.5722 50.5289C14.6015 50.2917 14.5784 50.0734 14.5048 49.877C14.9153 49.5138 15.1886 49.0941 15.3227 48.6167C15.4306 48.2321 15.503 47.8915 15.5386 47.5935C15.6627 46.5634 15.3583 46.0602 14.6271 46.0797V46.0803ZM12.1839 51.4228H11.4783C11.5569 51.2647 11.7091 50.8582 11.7809 50.7133C12.0279 50.7051 12.2632 50.7133 12.3861 50.7133C12.3861 50.7133 12.4597 50.7133 12.4809 50.9661C12.4921 51.096 12.4547 51.229 12.3686 51.3269C12.3212 51.3802 12.26 51.4228 12.1845 51.4228H12.1839ZM12.9906 49.0903C12.776 49.0922 12.5096 49.0759 12.3854 49.0903C12.4266 48.9304 12.5445 48.4454 12.587 48.2792H13.0911C13.1634 48.2723 13.315 48.5082 13.2926 48.6844C13.2732 48.8275 13.0817 49.0897 12.99 49.0897L12.9906 49.0903Z" fill="#1C1514"/>
<path d="M17.812 48.4605C17.7727 48.5853 17.6086 48.9498 17.5625 49.0878C17.9717 49.0784 18.6106 49.0728 19.3717 49.0878C19.1659 49.7528 19.0854 50.1882 18.8102 50.9072H16.8762L16.4395 51.5345C16.8044 51.5333 17.613 51.5376 18.5607 51.5345C18.1233 52.436 17.8282 53.1205 17.316 53.9925L13.31 53.9724C13.9813 52.8143 14.5903 51.473 15.138 49.9536C15.6633 48.5019 16.0171 47.207 16.2036 46.0665L20.1235 46.0389C20.0225 46.8614 19.8665 47.596 19.6831 48.4605C18.721 48.4341 18.1433 48.4523 17.8114 48.4605H17.812Z" fill="#1C1514"/>
<path d="M24.3092 49.8501C24.2942 50.0295 24.2505 50.2265 24.1794 50.4404C24.0796 50.7415 23.981 51.0464 23.885 51.3551C23.7733 51.6725 23.6398 51.9724 23.4875 52.2566C23.2317 52.7384 22.9036 53.1399 22.5043 53.4599C22.1037 53.7811 21.7282 53.9417 21.3763 53.9417L17.8451 53.9316C18.308 53.0728 18.6792 52.4435 19.1216 51.5351H21.4923C21.5086 51.5339 21.5547 51.5351 21.6171 51.5351C21.6583 51.542 21.7419 51.4097 21.7419 51.4097L21.8043 51.2842V51.2215C21.8043 51.1587 21.7438 50.9843 21.5953 50.9912C21.2958 50.9925 20.8772 50.9944 20.3413 50.995C19.8783 51.0044 19.6768 50.7221 19.7361 50.1524C19.7573 49.9467 19.8128 49.7095 19.9033 49.4385C20.0817 48.8739 20.2177 48.3425 20.3126 47.8476C20.4074 47.3538 20.5777 46.9354 20.8248 46.5916C21.118 46.1838 21.463 45.9824 21.8604 45.9843L24.6997 45.968C24.5999 46.8225 24.4277 47.5251 24.2374 48.3977C23.5306 48.3827 22.8849 48.3877 22.3034 48.3977C22.2618 48.3977 22.2202 48.4187 22.1786 48.4605C22.1786 48.4605 22.153 48.5684 22.1381 48.6161C22.1231 48.6637 22.1137 48.7001 22.1119 48.7258C22.105 48.8018 22.1643 48.8375 22.2903 48.8294C22.7401 48.8275 23.1182 48.8243 23.4214 48.8231C24.0715 48.825 24.3685 49.1669 24.3086 49.8501H24.3092Z" fill="#1C1514"/>
<path d="M29.8325 46.266C29.669 46.0621 29.4351 45.9661 29.13 45.9749L26.6444 45.9975C26.242 46.0013 25.8995 46.2083 25.615 46.6198C25.3829 46.946 25.2207 47.3582 25.1271 47.8557C25.0142 48.4404 24.7996 49.1807 24.4795 50.0778C24.2 50.8676 23.9149 51.5834 23.6254 52.2252C23.4601 52.591 23.364 52.9134 23.3403 53.1926C23.291 53.7453 23.515 54.0232 24.0128 54.0232H26.4722C26.8334 54.0232 27.1791 53.9059 27.5097 53.6725C27.8847 53.4109 28.1842 53.0276 28.4094 52.522C29.1456 50.8865 29.6728 49.2033 29.9947 47.4762C30.019 47.3576 30.034 47.2459 30.0402 47.1405C30.0652 46.7616 29.9959 46.4693 29.8337 46.2666L29.8325 46.266ZM26.1958 51.1763C26.1996 51.1223 26.2183 51.0615 26.2501 50.995C26.5689 50.2497 26.8016 49.5452 26.9476 48.8808C26.9982 48.6424 27.0705 48.5232 27.1654 48.522C27.2078 48.5289 27.2602 48.5301 27.3238 48.5257C27.3875 48.5226 27.438 48.5207 27.4748 48.5207C27.5908 48.5194 27.6414 48.6311 27.6239 48.8563C27.6058 49.1016 27.516 49.4517 27.3544 49.9046C27.2315 50.2729 27.1055 50.5954 26.9782 50.8708C26.8191 51.2014 26.6675 51.3632 26.5246 51.3563C26.2957 51.3576 26.1858 51.2974 26.1952 51.1757L26.1958 51.1763Z" fill="#1C1514"/>
<path d="M32.567 45.9423C32.358 47.3777 32.0585 48.7265 31.6698 49.9843C31.2899 51.2189 30.7664 52.5445 30.097 53.9599L28.1367 53.9611C29.4226 51.1895 30.2573 48.5226 30.6541 45.9605L32.567 45.9423Z" fill="#1C1514"/>
<path d="M38.4846 46.5395C38.444 47.739 38.1913 49.0389 37.7222 50.4398C37.3291 51.628 36.8175 52.7949 36.1887 53.9385C35.8742 53.9385 35.4231 53.9423 34.8348 53.9498C34.2471 53.9567 33.7861 53.9598 33.4523 53.9598C33.7748 52.4373 33.9763 51.3469 34.0581 50.6819C33.6607 51.7974 33.1709 52.8902 32.5901 53.9598H30.5456C32.0641 51.0339 32.8746 48.3519 32.9975 45.909L35.848 45.8827C36.0701 47.0546 36.1918 48.0402 36.213 48.835C36.3521 48.0847 36.4388 47.0972 36.4731 45.8764L38.4839 45.8582C38.4921 46.0816 38.4933 46.3087 38.4852 46.5395H38.4846Z" fill="#1C1514"/>
<path d="M55.0064 37.5314C54.5266 36.5427 53.8391 36.0565 52.9413 36.0715L43.646 36.0565C43.4688 39.33 42.6216 43.6261 41.0962 48.9724C39.5926 54.2616 38.0422 58.4705 36.4451 61.5797L46.0611 61.1537C46.9894 61.1104 47.9708 60.5922 49.0052 59.6035C50.0346 58.6198 50.8594 57.3802 51.4827 55.8827C52.6999 53.0477 53.5933 50.5759 54.1685 48.4548C54.7425 46.3432 55.1798 43.9191 55.4824 41.1813C55.6446 39.7353 55.4861 38.5201 55.0064 37.5314ZM49.3277 45.6524C49.1138 47.1481 48.7781 48.6066 48.3195 50.0301C47.7006 51.941 47.068 52.9097 46.4242 52.9285L45.2837 52.963C46.4248 49.899 47.2539 46.9216 47.7761 44.0257C48.2372 43.9994 48.5959 44.027 48.853 44.106C49.3015 44.2246 49.46 44.7396 49.3277 45.6524Z" fill="#1C1514"/>
<path d="M61.7837 43.8614C61.6932 44.2459 61.5959 44.6499 61.4905 45.0747C62.5267 45.0389 63.9991 45.0383 65.8976 45.0709C65.4378 47.0985 64.8944 49.2045 64.2661 51.3915L59.8347 51.5163L59.5352 52.4705C60.4629 52.4423 62.1162 52.3927 64.4808 52.3212C63.4657 55.0659 62.3552 57.771 61.1492 60.4373L50.8363 60.8651C52.4665 57.2315 53.9108 53.0414 55.173 48.2961C56.387 43.7528 57.1744 39.6913 57.5431 36.0954L67.5191 36.1744C67.3263 38.7008 67.0349 41.2842 66.6431 43.9247C64.2474 43.8538 62.6222 43.8325 61.7831 43.862L61.7837 43.8614Z" fill="#1C1514"/>
<path d="M85.7766 37.6625C85.3604 36.7478 84.7553 36.298 83.9604 36.3131L75.8599 36.303C75.5099 40.0414 74.7581 44.1939 73.5983 48.7785C72.4297 53.4009 71.1863 57.133 69.8674 59.9624L74.7886 59.7284C75.8592 57.2748 76.7576 54.8312 77.4857 52.3971C77.6866 53.1932 77.754 54.1782 77.6872 55.3557C77.6255 56.4555 77.442 57.8752 77.1357 59.6179L81.6901 59.4021C82.2678 57.3934 82.5997 55.5859 82.6864 53.9749C82.7388 53.0069 82.7014 52.0314 82.5754 51.0489C83.6298 50.3068 84.4963 48.7735 85.177 46.458C85.6643 44.8419 86.0005 43.0433 86.1871 41.059C86.3293 39.7077 86.1921 38.5759 85.7759 37.6625H85.7766ZM81.2502 43.8187C81.244 43.9159 81.2827 44.4755 81.2502 44.6299C81.1673 45.0182 80.8528 45.1148 80.6451 45.1368C79.1328 45.1368 79.1428 45.1299 78.6287 45.1368C78.7366 44.7089 78.9069 43.7974 79.0317 43.3118C79.5601 43.2867 80.4292 43.3168 80.8466 43.3118C80.9664 43.3105 81.264 43.5489 81.2496 43.8187H81.2502Z" fill="#1C1514"/>
<path d="M96.7283 37.2221C96.3814 36.6374 95.8823 36.3519 95.2291 36.3676L89.8237 36.3413C88.9334 36.3375 88.176 36.9291 87.5553 38.1205C87.0493 39.0684 86.6993 40.2666 86.5059 41.7133C86.2763 43.4115 85.8215 45.5558 85.1408 48.1537C84.5456 50.4348 83.9367 52.5031 83.3128 54.3588C82.9572 55.4166 82.7576 56.345 82.7139 57.1412C82.6291 58.7164 83.1456 59.478 84.2574 59.4253L89.6484 59.1681C90.427 59.1305 91.167 58.7716 91.8688 58.0922C92.6631 57.3356 93.2944 56.2478 93.7636 54.8306C95.3034 50.2447 96.4045 45.5245 97.0746 40.66C97.1239 40.3256 97.1563 40.01 97.1706 39.7133C97.2218 38.6374 97.0746 37.808 96.7289 37.2233L96.7283 37.2221ZM88.9746 51.2089C88.9815 51.0571 89.0202 50.8833 89.0888 50.692C89.7651 48.564 90.2555 46.5546 90.5599 44.6575C90.6635 43.9762 90.8188 43.6343 91.026 43.6317C91.1177 43.6499 91.2325 43.6531 91.371 43.6418C91.5095 43.6305 91.6193 43.6248 91.6985 43.6236C91.9506 43.6205 92.0616 43.9398 92.0292 44.5797C91.9936 45.2779 91.8065 46.271 91.4664 47.5615C91.2063 48.6067 90.9411 49.5226 90.671 50.3061C90.3353 51.2459 90.0103 51.7114 89.699 51.7014C89.1986 51.7164 88.9572 51.5533 88.9753 51.2095L88.9746 51.2089Z" fill="#1C1514"/>
<path d="M108.492 36.3507C108.109 43.0188 107.031 48.8275 105.247 53.7861C104.777 55.1104 104.152 56.2089 103.368 57.0834C102.581 57.9617 101.824 58.4184 101.097 58.4529L95.9878 58.6951C94.9452 58.7447 94.4592 58.0119 94.5328 56.4981C94.5709 55.7233 94.7574 54.8112 95.0912 53.7635C96.898 48.0521 98.0453 42.266 98.5463 36.3827C99.4316 36.3877 100.847 36.3664 102.782 36.3218C102.163 42.0006 101.371 46.724 100.406 50.4837C100.273 50.9693 100.262 51.2108 100.372 51.2077L101.743 51.1663C101.973 51.1594 102.175 50.8206 102.347 50.1512C102.892 48 103.33 45.7767 103.662 43.4799C103.901 41.7754 104.159 39.409 104.435 36.3846C105.188 36.3877 105.902 36.3827 106.577 36.3676C107.536 36.3545 108.173 36.3482 108.49 36.3507H108.492Z" fill="#1C1514"/>
<path d="M118.369 36.4529C118.353 38.4241 118.076 40.7353 117.537 43.3927C116.909 43.3645 116.042 43.3758 114.934 43.4241C114.124 47.6913 112.761 52.537 110.831 57.9925L106.876 58.18C108.81 52.3814 110.167 47.5182 110.964 43.554C109.798 43.5684 108.893 43.6343 108.252 43.7509C108.407 42.5903 108.561 41.426 108.712 40.2604C108.862 39.0966 108.968 37.7936 109.031 36.3532L118.369 36.4536V36.4529Z" fill="#1C1514"/>
<path d="M122.369 43.1493C122.308 43.4831 122.24 43.8338 122.167 44.2026C122.949 44.1744 124.062 44.175 125.499 44.2064C125.183 45.9686 124.805 47.7986 124.363 49.6964L121.019 49.7905L120.808 50.6167C121.507 50.5954 122.754 50.5577 124.539 50.5044C123.814 52.8852 123.019 55.2277 122.151 57.5358L114.399 57.8501C115.564 54.7152 116.582 51.0916 117.456 46.9843C118.297 43.0483 118.827 39.5245 119.048 36.4028L126.588 36.4668C126.481 38.6656 126.3 40.9134 126.044 43.2102C124.231 43.1455 123.001 43.1248 122.368 43.1493H122.369Z" fill="#1C1514"/>
</svg>
