<svg width="128" height="65" viewBox="0 0 128 65" fill="none" xmlns="http://www.w3.org/2000/svg">
<path d="M56.3978 49.606C55.6055 45.6468 54.4642 41.9969 52.9627 38.6587L44.5738 38.6067C44.4657 42.2491 43.735 46.4523 42.3875 51.2158C41.0488 55.9511 39.3604 60.3563 37.3162 64.4473L44.5009 64.0922C45.102 62.8432 45.5679 61.9304 45.8981 61.3563L48.3366 61.2503C48.9163 61.2453 49.7319 61.2196 50.7832 61.1738C50.6556 61.8363 50.5826 62.7095 50.5657 63.7924L56.8857 63.4806C57.6082 59.4893 57.4517 54.8814 56.3972 49.6054L56.3978 49.606ZM49.8853 49.0558C50.3626 50.3683 50.7027 52.7146 50.8052 54.5621L48.2504 54.6644C48.8465 52.8626 49.6375 50.4573 49.8859 49.0558H49.8853Z" fill="url(#paint0_linear_1568_311)"/>
<path d="M84.0499 49.394C84.3279 47.7422 84.3675 45.8915 84.1688 43.8325C84.0512 42.4191 83.611 41.2302 82.8445 40.2647C82.0736 39.2942 81.1549 38.8124 80.0891 38.8262L69.0857 38.7892C69.5969 42.7729 69.6674 47.123 69.3046 51.84C68.9455 56.5063 68.2689 60.2146 67.2716 62.9975L73.6074 62.6844C74.4029 60.2798 74.982 57.8683 75.3467 55.4448C75.8007 56.234 76.1258 57.2102 76.3195 58.372C76.5012 59.4517 76.5986 60.8407 76.6125 62.5351L82.4144 62.2478C82.71 60.2961 82.7345 58.5289 82.4867 56.9467C82.3377 55.9881 82.0698 55.0213 81.6825 54.0439C82.8898 53.2911 83.6764 51.7447 84.0493 49.394H84.0499ZM77.7361 48.0809C77.1545 48.0903 75.8126 48.128 75.1298 48.138C75.1688 47.6976 75.1838 46.7033 75.2323 46.2008C75.9302 46.1719 77.0287 46.2077 77.5827 46.2008C77.7412 46.1989 78.0939 46.5069 78.153 47.0571C78.1637 47.1575 78.1738 47.2867 78.1675 47.4467C78.1499 47.8457 78.0072 48.0577 77.7361 48.0809Z" fill="url(#paint1_linear_1568_311)"/>
<path d="M98.3998 43.4053C98.3998 43.0596 98.3816 42.7321 98.3426 42.4241C98.2024 41.3055 97.849 40.4379 97.2805 39.8237C96.7083 39.207 95.994 38.9053 95.1351 38.9191L87.956 38.8739C86.7651 38.867 85.8867 39.4931 85.3245 40.7509C84.8649 41.7491 84.6687 43.0044 84.7378 44.5113C84.8133 46.2691 84.6926 48.4705 84.3801 51.1129C84.1103 53.4103 83.777 55.4762 83.3815 57.3149C83.1564 58.3582 83.1055 59.2679 83.2262 60.0433C83.4645 61.5709 84.2889 62.2955 85.6968 62.2252L92.484 61.8877C93.4593 61.8388 94.3227 61.4831 95.0772 60.82C95.9349 60.0797 96.5247 59.0213 96.8485 57.6393C97.9389 53.1167 98.4583 48.3814 98.3998 43.4034V43.4053ZM91.0441 54.618C90.4046 54.6387 90.0588 54.4781 90.011 54.1374C89.9896 53.9862 90.0028 53.8143 90.0499 53.6223C90.4845 51.49 90.7033 49.4599 90.7039 47.5295C90.6976 46.8319 90.8297 46.4824 91.1007 46.4781C91.2233 46.4962 91.3736 46.4994 91.5522 46.4875C91.7307 46.4762 91.8722 46.4693 91.9766 46.468C92.3055 46.4636 92.5142 46.7905 92.6029 47.4435C92.6997 48.1543 92.6588 49.1625 92.479 50.468C92.3564 51.5201 92.1998 52.4379 92.0112 53.2221C91.7691 54.1594 91.4471 54.623 91.0441 54.6173V54.618Z" fill="url(#paint2_linear_1568_311)"/>
<path d="M111.324 48.6029C110.964 45.1267 110.317 41.9279 109.377 39.0075L102.974 38.968C102.659 42.1474 101.834 45.8193 100.503 49.9837C99.1783 54.1267 97.6063 57.9812 95.7846 61.5602L101.289 61.288C101.829 60.1926 102.242 59.3934 102.533 58.8896L104.405 58.808C104.849 58.8068 105.476 58.7886 106.285 58.7541C106.146 59.3363 106.035 60.1042 105.952 61.0577L110.828 60.8168C111.635 57.3018 111.804 53.2434 111.324 48.6029ZM104.565 53.0326C105.135 51.453 105.921 49.468 106.2 48.2403C106.482 49.3927 106.955 51.3087 106.916 52.931L104.565 53.0333L104.565 53.0326Z" fill="url(#paint3_linear_1568_311)"/>
<path d="M126.136 43.5402C126.101 42.2679 125.793 41.1939 125.211 40.3162C124.624 39.4341 123.907 38.9975 123.057 39.0113L114.197 38.9824C114.534 41.9047 114.391 45.6826 113.776 50.2999C113.185 54.7792 112.398 58.2829 111.411 60.8413L120.102 60.4366C120.939 60.3946 121.759 59.9674 122.567 59.155C123.373 58.3444 123.962 57.3193 124.337 56.0797C125.086 53.7127 125.59 51.6299 125.85 49.8281C126.11 48.0201 126.206 45.9266 126.136 43.5408V43.5402ZM119.296 53.6361L118.25 53.6688C118.87 51.0765 119.219 48.5295 119.296 46.0264C119.724 46.0038 120.064 46.0264 120.317 46.096C120.753 46.1983 120.973 46.6443 120.977 47.4335C120.985 48.7202 120.874 49.9693 120.646 51.1819C120.337 52.8011 119.888 53.6167 119.296 53.6361Z" fill="url(#paint4_linear_1568_311)"/>
<path d="M41.8769 20.3865C41.8115 22.0201 41.6845 23.6004 41.4958 25.1299C40.9897 29.2252 40.0433 33.2447 38.6423 37.1989L29.8498 37.2039C29.5945 32.2321 29.1688 28.1675 28.5746 24.9818C28.3985 25.9768 28.1885 26.9617 27.942 27.9348C27.6949 28.9115 27.4032 29.9417 27.068 31.0264C26.731 32.1154 26.3688 33.219 25.9808 34.3363C25.5903 35.4592 25.2589 36.4166 24.9867 37.2064L15.2906 37.2127C15.3383 34.5583 15.2641 31.7572 15.0667 28.8105C14.8705 25.8808 14.519 22.8996 14.0147 19.8626C13.5117 16.8394 12.8024 13.7967 11.8856 10.7302C10.9707 7.67002 9.84577 4.79235 8.50705 2.0916L17.9938 3.02573C18.5899 4.16374 19.1262 5.30364 19.6035 6.44668C20.0795 7.58972 20.4995 8.73275 20.8636 9.87704C21.2277 11.022 21.5371 12.1236 21.7949 13.1801C21.8401 11.5834 21.8376 8.30992 21.7886 3.399L29.6021 4.16814C31.8852 9.25157 33.5019 13.1248 34.4545 15.7949C34.4269 14.1794 34.281 12.4912 34.0163 10.729C33.7528 8.97178 33.3296 6.88771 32.748 4.47742L40.4828 5.2384C40.8796 7.0044 41.1902 8.73903 41.416 10.4448C41.643 12.155 41.7933 13.8312 41.8656 15.4737C41.9391 17.1236 41.9435 18.7604 41.8782 20.3865H41.8769Z" fill="url(#paint5_linear_1568_311)"/>
<path d="M58.6319 27.0998C58.5502 29.8589 58.4288 32.1104 58.2647 33.8438C58.2144 34.3658 58.0868 35.5427 57.8786 37.3789C56.1664 37.3676 54.7755 37.3595 53.7141 37.3545C52.6439 37.3494 51.6535 37.3451 50.7449 37.3432C49.8293 37.3413 48.9113 37.3388 47.9907 37.3369C47.0645 37.3338 45.5774 37.3275 43.5143 37.3168C43.8865 34.1631 44.023 30.6594 43.9306 26.8087C43.8388 22.9937 43.5495 19.2058 43.0628 15.4379C42.5793 11.6945 41.9436 8.29612 41.1538 5.22899C42.5114 5.36889 43.8048 5.50126 45.0366 5.62548C46.2603 5.74906 47.4173 5.86387 48.5108 5.9724C49.5961 6.07968 50.56 6.17441 51.4064 6.25785C52.2477 6.34066 53.5129 6.47115 55.1918 6.64869C55.6168 8.0985 55.9438 9.24405 56.1727 10.086C56.4028 10.9285 56.6254 11.8143 56.8424 12.7453C57.0599 13.6763 57.3322 14.9404 57.6611 16.5395C55.9369 16.3507 54.6133 16.2133 53.7009 16.1267C52.7828 16.0402 51.8478 15.9649 50.8952 15.9003C50.9128 16.0759 50.9373 16.3018 50.97 16.5784C51.0027 16.8557 51.0322 17.1443 51.058 17.4461C52.9664 17.5652 55.0113 17.7183 57.1851 17.904C57.4938 20.4787 57.7227 23.1368 57.8686 25.8833L51.7811 25.6619L51.8597 26.9567C52.6457 26.9824 53.3142 26.9988 53.865 27.0069C54.4139 27.0151 55.0056 27.0264 55.6401 27.0408C56.2714 27.0552 57.2725 27.0747 58.6326 27.0998H58.6319Z" fill="url(#paint6_linear_1568_311)"/>
<path d="M83.9166 25.7823C83.828 24.0878 83.6337 22.3827 83.3344 20.6662C83.0357 18.9561 82.6024 17.0383 82.0365 14.9134C81.7492 13.8469 81.3392 12.8545 80.8047 11.9329C80.2702 11.0113 79.6735 10.2698 79.0132 9.70891C78.3511 9.14617 77.6896 8.83187 77.0288 8.76662C74.7487 8.56399 71.2714 8.23337 66.5121 7.76411C67.0893 9.54015 67.5992 11.6205 68.0432 14.0119C68.489 16.4115 68.8524 18.9228 69.1348 21.5496C69.419 24.1907 69.6026 26.7497 69.6875 29.2296C69.7724 31.7258 69.7447 33.9072 69.6039 35.7691C69.5504 36.4799 69.5045 36.9868 69.4649 37.2905C70.5534 37.2955 71.589 37.2986 72.5737 37.3005C73.5515 37.3024 74.4614 37.3036 75.3027 37.3024C76.139 37.3011 76.8753 37.3005 77.5142 37.2992C78.1512 37.2992 79.0503 37.3043 80.2073 37.3143C81.1958 37.313 82.0441 36.7698 82.7552 35.6907C83.4608 34.6211 83.8563 33.2353 83.9449 31.5345C84.0166 29.399 84.0072 27.4831 83.9173 25.7817L83.9166 25.7823ZM74.6689 17.5056C75.2782 17.5477 75.7032 17.6104 75.9485 17.6951C76.2641 17.7974 76.5119 17.9969 76.6923 18.2949C76.8734 18.5928 77.0256 19.0069 77.1495 19.5358C77.3752 20.4787 77.5727 21.5803 77.7431 22.8413C77.9135 24.1048 77.9732 25.1694 77.9179 26.0351C77.8456 27.2058 77.5519 27.7848 77.0401 27.7685L75.7441 27.7265C75.7391 26.4762 75.7051 25.33 75.6448 24.2861C75.5844 23.244 75.4744 22.175 75.3146 21.0809C75.1549 19.9887 74.9392 18.7967 74.6689 17.505V17.5056Z" fill="url(#paint7_linear_1568_311)"/>
<path d="M97.6861 32.4072C97.534 27.0439 96.8083 21.4649 95.5143 15.6468C95.2772 14.5722 94.9502 13.6424 94.5352 12.8557C94.1202 12.0684 93.6448 11.458 93.1116 11.0226C92.5759 10.5872 92.0068 10.3394 91.4038 10.2804L84.7838 9.62987C83.4564 9.49938 82.7345 10.3814 82.627 12.2848C82.571 13.288 82.6943 14.4749 82.9999 15.8463C83.3174 17.2648 83.5966 18.8852 83.8368 20.7089C84.0783 22.5395 84.2694 24.4034 84.409 26.3011C84.5511 28.2077 84.6316 29.8162 84.6524 31.1242C84.6781 32.2409 84.8158 33.2735 85.063 34.2202C85.3113 35.1688 85.6918 35.9385 86.2036 36.5289C86.7148 37.118 87.3411 37.4122 88.0812 37.4109L94.6031 37.4009C95.1502 37.3996 95.6507 37.2472 96.1053 36.9423C96.5593 36.6393 96.9291 36.1644 97.2152 35.517C97.5 34.8727 97.6566 34.0627 97.6855 33.0878C97.6937 32.7955 97.6937 32.569 97.6855 32.4078L97.6861 32.4072ZM91.1944 20.1895C91.444 21.1663 91.6308 22.2949 91.7565 23.5772C91.8836 24.8632 91.9458 25.9072 91.9446 26.7095C91.9169 27.4134 91.8597 27.8607 91.7742 28.0496C91.6874 28.239 91.5685 28.3313 91.4183 28.3269C91.0133 28.2911 90.7159 28.2033 90.526 28.0627C90.3367 27.9228 90.2273 27.5853 90.1977 27.0546C90.0846 24.5063 89.8003 22.1048 89.3432 19.8413C89.252 19.3363 89.208 19.0408 89.2124 18.953C89.2206 18.7622 89.3036 18.6562 89.4589 18.6336L90.2795 18.6888C90.6411 18.7133 90.946 19.2127 91.1944 20.1901V20.1895Z" fill="url(#paint8_linear_1568_311)"/>
<path d="M112.235 34.6926C112.229 35.7867 112.213 36.5966 112.185 37.1205C111.408 37.1205 110.411 37.1318 109.186 37.1543C107.949 37.1769 106.893 37.1882 106.02 37.1882C104.973 32.0031 104.201 28.4956 103.699 26.6368C103.974 29.7139 104.085 32.6405 104.031 35.4159C104.017 36.1939 103.999 36.7867 103.978 37.1901L99.0469 37.1939C99.1273 34.1939 99.0783 31.2704 98.901 28.4166C98.7243 25.5828 98.3665 22.6851 97.8301 19.7177C97.2969 16.766 96.5436 13.7585 95.5696 10.6895L102.483 11.3683C103.152 12.7717 103.718 13.9824 104.179 15.0025C104.641 16.0213 105.078 17.0295 105.49 18.0257C105.903 19.0232 106.283 20 106.632 20.9561C106.112 18.5903 105.209 15.4203 103.924 11.4498L108.493 11.8996C109.195 13.7961 109.79 15.7309 110.276 17.7058C110.763 19.6857 111.153 21.6499 111.444 23.5998C111.737 25.5577 111.944 27.4523 112.066 29.2842C112.188 31.1255 112.245 32.9285 112.235 34.6926Z" fill="url(#paint9_linear_1568_311)"/>
<path d="M116.12 20.34C116.12 20.8425 116.092 21.8563 116.037 23.3839C115.114 23.3174 114.398 23.2685 113.892 23.2353C113.383 23.2026 112.652 23.1493 111.695 23.0759C111.738 22.3701 111.762 21.6493 111.766 20.9134C111.761 17.266 111.363 14.3005 110.572 11.9862L114.787 12.404C115.673 14.6067 116.117 17.2447 116.119 20.34H116.12Z" fill="url(#paint10_linear_1568_311)"/>
<path d="M125.527 28.9617C125.768 31.5546 125.932 34.2898 126.014 37.1725L121.924 37.1769C121.821 35.0558 121.703 33.1104 121.571 31.3363C121.439 29.5709 121.272 27.8375 121.066 26.1349C120.862 24.4392 120.604 22.6895 120.293 20.8858C119.226 20.8156 118.284 20.8112 117.472 20.8758C117.397 20.5615 117.248 19.9366 117.029 19.0006C116.81 18.0665 116.631 17.3181 116.492 16.7553C116.351 16.1926 116.184 15.5671 115.989 14.8821C115.792 14.1957 115.556 13.4159 115.279 12.5402C115.905 12.6117 116.678 12.6964 117.592 12.7942C118.501 12.8902 119.395 12.9818 120.276 13.0684C121.15 13.155 121.889 13.2284 122.494 13.2905C123.095 13.352 123.992 13.4467 125.175 13.5722C125.963 15.7974 126.609 18.3545 127.114 21.2535C126.663 21.1813 126.181 21.128 125.665 21.0935C125.497 21.0916 125.287 21.0872 125.036 21.0803C124.784 21.0722 124.578 21.0709 124.418 21.074C124.915 23.7591 125.284 26.3877 125.525 28.9636L125.527 28.9617Z" fill="url(#paint11_linear_1568_311)"/>
<path d="M23.2229 39.0122C23.2267 39.2631 23.221 39.5178 23.2021 39.7757C23.1078 41.1214 22.718 42.5799 22.025 44.1565C21.4402 45.4971 20.6926 46.819 19.7777 48.1232C19.3369 48.1295 18.7037 48.1414 17.8749 48.1609C17.0443 48.1803 16.391 48.1922 15.9156 48.1985C16.4255 46.4557 16.7488 45.2117 16.8865 44.4545C16.2847 45.7293 15.5515 46.9821 14.685 48.2161L11.7385 48.2556C14.0286 44.871 15.2811 41.8008 15.5383 39.0122H19.5652C19.8368 40.339 19.9751 41.4532 19.9783 42.3516C20.1971 41.504 20.3505 40.3886 20.4379 39.0122H23.2229Z" fill="url(#paint12_linear_1568_311)"/>
<path d="M26.5228 41.8595C26.4776 42.0013 26.4285 42.1512 26.3744 42.308C26.9599 42.298 27.7943 42.3011 28.8752 42.3181C28.6463 43.0747 28.3703 43.862 28.0464 44.6819L25.5281 44.7033L25.3715 45.0602C25.8965 45.0552 26.8353 45.047 28.1841 45.0345C27.6465 46.0665 27.0517 47.0853 26.4008 48.0903L20.5826 48.1462C21.4572 46.7942 22.2218 45.2371 22.8752 43.4799C23.4996 41.8074 23.8913 40.3212 24.0535 39.0107L29.648 39.022C29.5826 39.9529 29.4612 40.9097 29.282 41.8915C27.9163 41.8601 26.9957 41.8488 26.5222 41.8588L26.5228 41.8595Z" fill="url(#paint13_linear_1568_311)"/>
<path d="M32.8398 41.8325C32.7989 41.973 32.7536 42.1211 32.7046 42.2773C33.278 42.2673 34.0974 42.271 35.1588 42.2873C34.95 43.037 34.6966 43.8168 34.3973 44.6286L31.9261 44.6499L31.7809 45.0025C32.2952 44.9975 33.2158 44.9893 34.5394 44.9768C34.0345 45.9994 33.4736 47.0082 32.8561 48.0031L27.1491 48.0571C27.9791 46.7196 28.6947 45.1775 29.2965 43.4379C29.8731 41.7817 30.2246 40.3087 30.3554 39.0113L35.8461 39.0226C35.802 39.9454 35.7027 40.8927 35.5486 41.8645C34.2087 41.8337 33.3044 41.8225 32.8404 41.8319L32.8398 41.8325Z" fill="url(#paint14_linear_1568_311)"/>
<path d="M42.3737 39.5213C42.0913 39.1744 41.7197 39.0044 41.2575 39.0113L36.5283 39.0226C36.5315 40.1587 36.2259 41.6562 35.6034 43.5307C34.9884 45.3959 34.3156 46.8833 33.5887 47.9818L38.4996 47.9266C38.98 47.9197 39.4749 47.7409 39.9817 47.3921C40.4879 47.0445 40.8777 46.601 41.155 46.0627C41.6964 45.0464 42.0813 44.16 42.3102 43.4015C42.5372 42.6468 42.6824 41.7836 42.7453 40.8105C42.7799 40.2986 42.6566 39.8695 42.373 39.522L42.3737 39.5213ZM37.8513 44.9699C38.3449 43.8827 38.6795 42.8294 38.858 41.8068C39.0932 41.7986 39.2781 41.8087 39.4133 41.8375C39.6472 41.8802 39.7446 42.0627 39.7057 42.3858C39.6434 42.9159 39.5158 43.4329 39.3234 43.9385C39.0637 44.6186 38.7675 44.9611 38.4361 44.9642L37.8513 44.9693V44.9699Z" fill="url(#paint15_linear_1568_311)"/>
<path d="M38.5449 37.7698L29.8058 37.7666C29.5455 32.7026 29.1185 28.564 28.5243 25.3212C28.3514 26.335 28.1433 27.3369 27.8999 28.3275C27.6559 29.3218 27.3686 30.3708 27.0372 31.4749C26.7046 32.5841 26.3461 33.707 25.9632 34.8438C25.5777 35.9862 25.3281 36.8664 25.0584 37.6706L15.2491 37.5452C15.295 34.8463 15.2585 32.2591 15.0604 29.2641C14.8636 26.2867 14.5555 23.1888 14.0543 20.1048C13.5551 17.0351 12.8244 14.0558 11.9164 10.9454C11.0103 7.84254 9.78038 4.77165 8.45801 2.03702L18.0189 3.02322C18.6094 4.17692 19.1407 5.33313 19.6142 6.4931C20.0871 7.65245 20.5473 8.78043 20.9083 9.94166C21.2692 11.1041 21.5333 12.0044 21.7886 13.0784C21.8313 11.4548 21.8276 8.3783 21.7735 3.38896L29.6486 4.17002C31.9217 9.33438 33.4151 12.6211 34.3646 15.3369C34.3351 13.692 34.1716 12.5991 33.9068 10.8062C33.6427 9.01882 33.2196 6.899 32.6386 4.44793L40.5904 5.23714C40.9871 7.03451 41.2431 8.77039 41.4707 10.5069C41.6989 12.2491 41.8354 14.0395 41.9109 15.7139C41.9863 17.3952 41.9731 19.0753 41.9109 20.7328C41.848 22.3977 41.6562 24.0671 41.4707 25.6261C40.9733 29.8024 39.9339 33.7397 38.5461 37.771L38.5449 37.7698ZM38.255 35.8984C39.5195 32.2861 40.3804 28.5333 40.8501 24.6311C41.0211 23.2064 41.1393 21.7497 41.2035 20.2597C41.2676 18.776 41.2707 17.2641 41.2123 15.7221C41.1538 14.1863 41.0268 12.6361 40.8318 11.0703C40.6369 9.50942 40.3697 7.95609 40.0307 6.40904L34.6287 5.89963C35.3418 8.90402 35.7719 11.554 35.9171 13.8501C36.0636 16.1581 35.9926 18.83 35.7014 21.8796L35.5832 21.8739C35.1909 20.4693 34.7689 19.0822 34.3187 17.7139C33.8685 16.3469 33.4189 15.0772 32.9706 13.9059C32.5222 12.7346 32.0186 11.4831 31.4596 10.1499C30.9005 8.81744 30.2202 7.23714 29.4185 5.40841L23.4807 4.84881C23.5624 8.49875 23.5681 11.463 23.4964 13.7277C23.4241 16.0063 23.1776 18.5464 22.7538 21.3576L22.5947 21.3501C22.2042 18.8488 21.8345 16.719 21.4855 14.9555C21.1372 13.1964 20.6725 11.4078 20.0921 9.58909C19.5117 7.77228 18.7917 6.01882 17.9309 4.32497L11.4819 3.71707C12.5559 5.93978 13.4702 8.4517 14.2285 11.2591C14.9881 14.074 15.5899 16.9247 16.0332 19.8168C16.4784 22.7215 16.8016 25.5552 17.0028 28.32C17.2046 31.0998 17.2914 33.5809 17.2625 35.761L24.6622 35.8087C24.888 35.1311 25.2218 34.1349 25.662 32.8237C26.0996 31.5201 26.4411 30.4599 26.687 29.6387C26.9322 28.8206 27.1824 27.8507 27.4384 26.7302C27.693 25.6142 27.9049 24.458 28.0741 23.2616C28.2904 21.7328 28.4363 20.1738 28.5124 18.5834L28.7098 18.5533C29.575 21.8344 30.195 24.6744 30.5685 27.0722C30.9433 29.4793 31.2263 32.4015 31.4162 35.852L38.2563 35.8959L38.255 35.8984Z" fill="#1C1514"/>
<path d="M57.9233 37.7233C56.2123 37.7102 54.7925 37.739 53.7311 37.7327C52.6627 37.7265 51.6837 37.7359 50.7757 37.7327C49.8627 37.7296 49.0534 37.7359 48.1347 37.7327C47.211 37.7296 45.4127 37.7466 43.3558 37.7327C43.7206 34.5151 44.0205 30.8701 43.9218 26.9423C43.8237 23.0514 43.5319 19.1769 43.0414 15.3363C42.5548 11.5226 41.8832 8.35822 41.0922 5.23589C42.4428 5.3739 43.6375 5.48934 44.865 5.6123C46.083 5.73463 47.6738 5.88206 48.7635 5.98871C49.8463 6.0941 50.5606 6.15747 51.4045 6.23965C52.2439 6.32183 53.6261 6.4404 55.3031 6.61606C55.7307 8.0941 55.9325 8.98306 56.1633 9.84191C56.394 10.7014 56.6185 11.6054 56.8373 12.5546C57.0562 13.505 57.424 15.0213 57.7554 16.6537C56.0325 16.4636 54.5799 16.3011 53.6682 16.2146C52.7514 16.128 51.8516 16.0276 50.9015 15.9636C50.9184 16.143 50.9474 16.1976 50.9807 16.4793C51.014 16.7616 51.0436 17.0565 51.0693 17.3645C52.9746 17.4831 55.017 17.6361 57.1895 17.8218C57.5032 20.4517 57.7365 23.1675 57.8887 25.9724L51.8069 25.7497L51.9075 26.9423C52.6923 26.968 53.3695 26.9969 53.9197 27.005C54.468 27.0132 57.4007 27.042 58.7615 27.0678C58.6854 29.8883 58.4622 32.3375 58.3024 34.1092C58.254 34.6437 58.1283 35.8457 57.9233 37.7233ZM57.3423 36.0929C57.4215 35.4191 57.5139 34.5082 57.6183 33.3626C57.7881 31.123 57.8786 29.542 57.89 28.611C55.9778 28.5809 53.7801 28.5295 51.2838 28.4567C51.246 27.8984 51.2133 27.4003 51.1863 26.9611C51.1593 26.5226 51.131 26.0828 51.102 25.6418C51.0731 25.2014 51.0398 24.7039 51.0021 24.1506C52.5621 24.1913 54.6126 24.2654 57.1348 24.3727C56.9971 22.2811 56.8405 20.5408 56.665 19.1481C54.8201 19.0138 52.7734 18.8802 50.5185 18.7472C50.372 17.155 50.2092 15.6405 50.0299 14.2026C52.498 14.3827 54.7038 14.5841 56.6581 14.8068C56.1878 12.5207 55.5892 10.1324 54.8629 7.63927C53.423 7.49122 52.3257 7.38143 51.5781 7.31054C50.8304 7.23965 49.9822 7.15998 49.0434 7.07152C48.1046 6.98306 47.1268 6.88896 46.127 6.79172C45.1203 6.69385 44.084 6.59097 43.0169 6.48369C43.6413 8.99247 44.1777 12.0408 44.6273 15.643C45.08 19.2691 45.368 22.9072 45.4894 26.5621C45.612 30.2497 45.5309 33.3921 45.2429 35.9812C47.5663 36.0157 49.4854 36.0389 51.0134 36.0508C52.5269 36.0634 54.6447 36.0772 57.3423 36.0929Z" fill="#1C1514"/>
<path d="M84.0022 31.9517C83.9173 33.6957 83.523 35.1173 82.8156 36.2139C82.1026 37.3199 81.2499 37.8764 80.2558 37.8764C79.0912 37.8639 78.187 37.8582 77.5475 37.8582C76.9049 37.8582 76.1648 37.8582 75.3241 37.8582C74.4834 37.8582 73.5659 37.857 72.5838 37.8538C71.5953 37.8507 70.5552 37.8457 69.4643 37.84C69.5026 37.5295 69.5479 37.01 69.6001 36.2829C69.7365 34.3758 69.7592 32.143 69.6686 29.5885C69.5787 27.0502 69.3876 24.4304 69.0971 21.7284C68.8078 19.0414 68.4374 16.4737 67.9853 14.0201C67.5351 11.5765 67.0195 9.45044 66.4372 7.63676C71.2086 8.10226 74.6978 8.43099 76.9885 8.63175C77.6525 8.69636 78.3178 9.01631 78.985 9.59034C79.6502 10.1625 80.252 10.9203 80.7921 11.8632C81.3316 12.8055 81.7467 13.8218 82.0378 14.9141C82.6138 17.0903 83.0546 19.0546 83.3595 20.808C83.6651 22.5665 83.8657 24.3137 83.96 26.0514C84.055 27.7974 84.0688 29.7622 84.0028 31.9517H84.0022ZM83.3809 31.4868C83.4557 29.3268 83.4482 27.4216 83.3589 25.7666C83.2702 24.1179 83.081 22.4611 82.7911 20.7936C82.5018 19.1311 82.073 17.2271 81.5058 15.0822C81.2606 14.1512 80.8934 13.2949 80.4042 12.5113C79.9143 11.7271 79.3761 11.0985 78.7881 10.6236C78.199 10.1481 77.6462 9.88582 77.1306 9.83689C74.843 9.64367 71.811 9.36889 67.991 9.00878C68.533 10.9548 69.0027 13.1117 69.4008 15.4837C69.8007 17.8657 70.122 20.313 70.366 22.8281C70.6112 25.3576 70.769 27.7798 70.8395 30.0941C70.9105 32.4228 70.8854 34.4661 70.7628 36.2202C71.9939 36.2403 73.6219 36.2566 75.6334 36.2685C77.6186 36.2804 79.1868 36.2992 80.3513 36.3243C80.8758 36.3275 81.3618 36.1274 81.8083 35.7246C82.2528 35.3237 82.6144 34.7522 82.893 34.0113C83.1703 33.2729 83.3325 32.4316 83.3796 31.4862L83.3809 31.4868ZM79.0711 26.4944C78.9592 28.4467 78.4222 29.4134 77.4557 29.3852C76.4176 29.3551 75.6435 29.3206 75.1379 29.2811C75.1436 27.3607 75.1191 25.8011 75.0644 24.5979C75.0103 23.3977 74.882 22.138 74.6802 20.8187C74.479 19.5019 74.1721 17.9423 73.7596 16.1405C74.0181 16.1418 74.4048 16.155 74.9191 16.1807C75.4316 16.2064 75.8202 16.2227 76.0856 16.2302C76.5081 16.261 76.9168 16.5264 77.3105 17.0257C77.7041 17.5245 77.9965 18.1794 78.1883 18.9906C78.536 20.409 78.7737 21.6593 78.9007 22.7415C79.0277 23.8262 79.0849 25.0765 79.0711 26.4937V26.4944ZM77.1224 27.6951C77.6374 27.712 77.806 27.2008 77.877 26.0013C77.9292 25.1148 77.9172 24.5803 77.7424 23.2854C77.5676 21.9944 77.3664 20.8664 77.1375 19.9003C77.0118 19.3582 76.8577 18.9354 76.6754 18.6305C76.493 18.3256 76.2434 18.1217 75.9265 18.0182C75.68 17.931 75.4071 17.9498 74.7959 17.9084C75.0713 19.2296 75.1989 20.3664 75.3618 21.4843C75.5247 22.6048 75.6127 23.6794 75.6762 24.7465C75.7397 25.8168 75.7932 26.3526 75.802 27.6324L77.1224 27.6951Z" fill="#1C1514"/>
<path d="M97.8043 32.8438C97.8131 33.0088 97.8138 33.2409 97.8062 33.542C97.7798 34.5433 97.6245 35.3752 97.3384 36.0376C97.0517 36.7026 96.6794 37.1913 96.2216 37.5025C95.762 37.8149 95.2571 37.9718 94.7056 37.9724L88.1252 37.9755C87.3794 37.9755 86.7469 37.6738 86.2306 37.069C85.7131 36.463 85.3277 35.6725 85.0755 34.6995C84.8234 33.7277 84.6825 32.6688 84.653 31.5232C84.6291 30.1813 84.5436 28.5314 84.3958 26.5765C84.2486 24.6305 84.0518 22.7202 83.8041 20.8432C83.5576 18.9737 83.2727 17.3137 82.9489 15.8607C82.6383 14.4567 82.51 13.2403 82.5641 12.2121C82.6666 10.261 83.391 9.35571 84.7272 9.4862L91.3981 10.1355C92.0062 10.1945 92.5809 10.4479 93.1223 10.8934C93.6624 11.3381 94.1428 11.9636 94.5641 12.7698C94.9854 13.5759 95.3174 14.5295 95.5608 15.6324C96.8844 21.6035 97.6346 27.3325 97.8043 32.8438ZM97.2434 32.2735C97.1623 29.628 96.9429 26.9216 96.5876 24.1512C96.2342 21.3971 95.718 18.5006 95.0401 15.4599C94.7358 14.0903 94.2975 13.0364 93.7253 12.2936C93.1518 11.5496 92.5105 11.1437 91.7993 11.0765L85.1139 10.4473C84.2021 10.3614 83.7098 10.9906 83.6412 12.34C83.5991 13.1738 83.7179 14.1863 83.9996 15.3777C84.3285 16.8469 84.619 18.5471 84.8699 20.4812C85.122 22.4235 85.3233 24.3463 85.4736 26.2509C85.6245 28.1644 85.7194 29.8777 85.759 31.3902C85.7924 32.8789 86.0149 34.0634 86.4274 34.9379C86.8393 35.8124 87.431 36.2516 88.2 36.2553L94.7584 36.2911C95.4784 36.2949 96.0632 35.9755 96.5147 35.335C96.9636 34.6976 97.2057 33.6769 97.2441 32.2735H97.2434ZM93.0267 26.9297C92.9928 27.9159 92.8846 28.6192 92.7022 29.0383C92.5193 29.4586 92.2288 29.6631 91.832 29.6518L91.151 29.6324C90.2235 29.6054 89.7154 28.6587 89.6318 26.7993C89.5802 25.4636 89.496 24.2892 89.3797 23.2742C89.264 22.2616 89.0709 21.0816 88.8024 19.734C88.7068 19.2723 88.6679 18.82 88.6867 18.3777C88.7238 17.49 89.0131 17.0659 89.552 17.1054C89.8758 17.1286 90.1424 17.1368 90.353 17.1299C90.7228 17.1568 91.0598 17.4015 91.3635 17.8639C91.6672 18.3256 91.9156 18.9517 92.108 19.7422C92.4507 21.106 92.6865 22.3005 92.8142 23.3269C92.9418 24.3551 93.0135 25.5558 93.0273 26.9304L93.0267 26.9297ZM91.8993 26.9423C91.898 26.1186 91.9043 25.0621 91.7735 23.7428C91.6433 22.4279 91.4685 21.3036 91.2145 20.3005C90.9605 19.2986 90.6517 18.7861 90.2883 18.7622L89.4601 18.707C89.3029 18.7302 89.2665 18.7792 89.2583 18.9749C89.2545 19.0646 89.2904 19.399 89.3841 19.9159C89.85 22.2378 90.0801 24.3281 90.2015 26.9423C90.2329 27.4881 90.4499 27.9272 90.6417 28.0715C90.8328 28.2158 90.8605 28.2597 91.2705 28.2597C91.8364 28.2597 91.8735 27.6644 91.8993 26.9423Z" fill="#1C1514"/>
<path d="M112.311 37.9203C111.524 37.9203 110.511 37.9304 109.27 37.9517C108.017 37.9737 106.946 37.9843 106.062 37.9843C104.984 32.6493 104.36 29.3557 103.847 27.4442C104.133 30.6085 104.087 33.3036 104.042 36.1587C104.029 36.9592 104.014 37.5684 103.994 37.9837L99.0047 37.9824C99.0777 34.8996 99.0192 31.894 98.8306 28.9611C98.6432 26.0502 98.2734 23.074 97.722 20.027C97.1737 16.9969 96.4763 13.7792 95.4835 10.6311L102.526 11.3212C103.208 12.761 103.816 14.1016 104.287 15.1481C104.756 16.1945 105.186 17.261 105.607 18.2848C106.028 19.3087 106.132 19.5602 106.487 20.5433C105.954 18.111 105.222 15.4617 103.909 11.3839L108.5 11.8858C109.217 13.8338 109.809 15.9097 110.31 17.9398C110.811 19.9762 111.213 21.9962 111.514 24.0025C111.817 26.0169 112.034 27.9668 112.164 29.8526C112.294 31.7484 112.358 33.6041 112.354 35.4203C112.351 36.5471 112.337 37.3808 112.311 37.9203ZM112.062 36.3425C112.092 35.3883 112.108 34.7334 112.108 34.377C112.115 32.2522 112.003 29.9624 111.775 27.5088C111.548 25.0703 111.172 22.5734 110.647 20.0163C110.124 17.4699 109.455 15.0816 108.638 12.845L105.436 12.5427C106.103 14.5954 106.639 16.4078 107.046 17.9799C107.453 19.5552 107.773 21.1092 108.005 22.6443C108.238 24.1838 108.398 25.8595 108.485 27.6744L108.425 27.7365C107.917 25.8325 107.394 24.0847 106.854 22.4906C106.315 20.8984 105.722 19.3369 105.075 17.8055C104.428 16.2735 103.608 14.463 102.613 12.3708L97.0548 11.8482C97.6962 13.8701 98.2351 15.9373 98.6708 18.054C99.1085 20.1775 99.4518 22.2748 99.7008 24.3463C99.9511 26.4279 100.122 28.4787 100.213 30.5C100.305 32.5326 100.33 34.4887 100.289 36.3676L103.713 36.389C103.735 36.0696 103.75 35.5885 103.761 34.946C103.791 33.1324 103.743 31.2723 103.618 29.3645C103.494 27.4668 103.322 25.697 103.103 24.0527C102.885 22.4141 102.642 20.9391 102.374 19.6261L102.474 19.601C103.439 21.9699 104.223 24.3181 104.826 26.6499C105.432 28.9887 106.144 32.2359 106.967 36.409C107.654 36.4021 108.252 36.3952 108.762 36.3871C109.271 36.3796 109.78 36.3714 110.289 36.3639C110.797 36.3563 111.387 36.3494 112.061 36.3425H112.062Z" fill="#1C1514"/>
<path d="M116.111 23.5577C115.174 23.4906 114.446 23.4404 113.932 23.4072C113.416 23.3739 112.675 23.32 111.704 23.2453C111.745 22.5182 111.766 21.7767 111.769 21.0195C111.752 17.2673 111.338 14.2177 110.527 11.8394L114.803 12.2585C115.71 14.5232 116.17 17.2371 116.184 20.4241C116.185 20.9423 116.162 21.9849 116.111 23.5583V23.5577ZM115.91 22.2892C115.93 21.4944 115.94 20.9015 115.939 20.5094C115.91 17.6098 115.526 15.2246 114.788 13.335L112.035 13.0747C112.326 13.9235 112.54 14.8381 112.679 15.8193C112.817 16.803 112.903 17.67 112.937 18.4197C112.97 19.1713 113.009 20.3808 113.053 22.0533C114.454 22.1801 115.403 22.2585 115.911 22.2892H115.91Z" fill="#1C1514"/>
<path d="M127.24 21.4755C126.781 21.4015 126.289 21.3463 125.764 21.3118C125.593 21.3105 125.38 21.3055 125.124 21.2986C124.867 21.2917 124.658 21.2898 124.496 21.2936C125.012 24.0602 125.397 26.7704 125.651 29.4253C125.907 32.0998 126.083 34.9203 126.178 37.8952L121.955 37.921C121.842 35.7346 121.776 33.702 121.636 31.8733C121.496 30.054 121.319 28.2673 121.104 26.5125C120.89 24.7654 120.622 22.963 120.298 21.1054C119.214 21.0339 118.258 21.0314 117.432 21.0979C117.354 20.7748 117.202 20.1311 116.976 19.1681C116.751 18.207 116.566 17.4366 116.423 16.857C116.279 16.2779 116.107 15.6355 115.906 14.9297C115.704 14.2246 115.462 13.4222 115.177 12.522C115.813 12.5941 116.597 12.6788 117.527 12.7773C118.45 12.8745 119.358 12.9668 120.254 13.054C121.149 13.1412 121.894 13.2152 122.509 13.2773C123.121 13.3394 124.033 13.4341 125.238 13.5615C126.048 15.8532 126.715 18.4875 127.24 21.4755H127.24ZM126.619 19.9705C126.225 18.0897 125.695 16.2033 125.03 14.308L116.407 13.4944C116.628 14.1982 116.817 14.8501 116.975 15.4492C117.132 16.0496 117.303 16.7566 117.488 17.5721C117.673 18.3883 117.829 19.0527 117.956 19.5627C118.267 19.5452 118.779 19.559 119.487 19.6048C120.191 19.6506 120.651 19.6731 120.869 19.6738C121.237 21.6223 121.545 23.5427 121.796 25.4348C122.048 27.335 122.244 29.1236 122.384 30.7999C122.525 32.4837 122.652 34.3438 122.765 36.3839L125.667 36.4021C125.626 35.1437 125.562 33.845 125.475 32.5063C125.387 31.1725 125.273 29.8275 125.132 28.4693C124.992 27.1161 124.813 25.7158 124.598 24.2685C124.383 22.8262 124.122 21.3457 123.817 19.8269C124.16 19.8513 124.537 19.8639 124.946 19.8645C125.354 19.8645 125.681 19.8739 125.927 19.8915C126.205 19.9115 126.435 19.9379 126.618 19.9705H126.619Z" fill="#1C1514"/>
<path d="M23.2644 38.9184C23.265 39.1813 23.2543 39.4479 23.2323 39.7183C23.1166 41.1186 22.7003 42.623 21.9829 44.2328C21.383 45.591 20.6234 46.9191 19.7035 48.2171C19.2671 48.2196 18.6377 48.2271 17.8146 48.2397C16.9896 48.2522 16.3413 48.2597 15.8703 48.2622C16.3702 46.5207 16.684 45.4028 16.8204 44.6343C16.2224 45.9216 15.5025 47.0433 14.6511 48.2691L11.7334 48.2854C13.9669 44.9028 15.1969 41.7698 15.439 38.872L19.5362 38.8965C19.806 40.2848 20.0298 41.1349 20.0273 42.0621C20.2537 41.1888 20.3266 40.3394 20.426 38.9015L23.2644 38.9184ZM22.9129 39.4718L20.9485 39.4611C20.8718 40.5458 20.7297 41.4605 20.5222 42.2058C20.3008 43.0226 19.9324 43.9028 19.4167 44.8476L19.369 44.8708C19.4488 44.3833 19.506 43.9354 19.5413 43.5276C19.6412 42.3595 19.5356 41.0006 19.2262 39.4523L15.9665 39.4354C15.7446 42.0326 14.6253 44.8658 12.5949 47.9479L14.6115 47.9373C15.9495 46.0069 16.9015 44.0602 17.4725 42.0954L17.531 42.0841C17.5643 42.5828 17.5593 43.0816 17.5159 43.5803C17.436 44.5013 17.1141 45.9492 16.5488 47.9272C16.8965 47.9203 17.4146 47.9122 18.1038 47.9034C18.7911 47.8946 19.3149 47.8896 19.6752 47.8877C20.4731 46.7641 21.1541 45.5634 21.7175 44.2842C22.391 42.761 22.7783 41.3777 22.8821 40.1324C22.9009 39.9084 22.911 39.6882 22.9141 39.4718H22.9129Z" fill="#1C1514"/>
<path d="M29.8291 38.9059C29.731 39.8821 29.575 40.8783 29.3625 41.8946C27.9785 41.8532 27.0472 41.8664 26.5675 41.8727C26.5184 42.0195 26.4618 42.1424 26.404 42.3043C26.9969 42.298 27.8615 42.2867 28.9569 42.3118C28.7022 43.0891 28.3803 43.9153 28.0307 44.7497L25.5614 44.7585L25.4356 45.0094C25.9626 45.0082 26.8454 45.0119 28.2023 45.0094C27.6333 46.0515 27.1158 47.1443 26.4417 48.1462L20.5039 48.1845C21.3874 46.8375 22.1684 45.271 22.8475 43.4856C23.5033 41.7698 23.8643 40.293 24.0523 38.9241L29.8297 38.9053L29.8291 38.9059ZM29.3889 39.5182L24.5333 39.4925C24.3736 40.6148 23.9806 42.0088 23.3524 43.6775C22.6947 45.4072 22.003 46.8281 21.2792 47.9379L26.1902 47.9122C26.7102 47.1443 27.1585 46.4172 27.5352 45.7302C26.2908 45.7384 25.3652 45.739 24.7603 45.7328C24.9659 45.2604 25.1432 44.8463 25.2916 44.4906L27.8263 44.4881C28.0546 43.9517 28.2514 43.4385 28.4168 42.9486C27.51 42.9222 26.6568 42.9128 25.8569 42.9197C26.0336 42.4341 26.1877 41.9912 26.3191 41.591C26.9806 41.5772 27.9012 41.5916 29.0783 41.6343C29.2109 40.9856 29.3147 40.2798 29.3889 39.5176V39.5182Z" fill="#1C1514"/>
<path d="M36.1246 38.9247C36.0322 39.8927 35.8744 40.963 35.6687 41.9718C34.3068 41.9304 33.3875 41.9134 32.9152 41.9197C32.8674 42.0653 32.8479 42.0891 32.792 42.2497C33.3749 42.2434 34.1659 42.2252 35.2443 42.2497C34.9966 43.0213 34.7104 43.9768 34.3703 44.8043L31.8771 44.8074L31.8494 44.9473C32.3682 44.9467 33.2812 44.9498 34.6161 44.9473C34.0603 45.9812 33.5145 47.1525 32.8555 48.1468L26.9793 48.2114C27.8433 46.8758 28.5482 45.3382 29.2084 43.5671C29.8467 41.8651 30.0982 40.2823 30.2774 38.9247H36.1253H36.1246ZM35.7467 39.5515L30.9685 39.5264C30.8163 40.6399 30.4352 42.0226 29.824 43.6775C29.1839 45.3934 28.5098 46.8024 27.8018 47.9034L32.6335 47.8783C33.1422 47.1167 33.5799 46.3959 33.9483 45.7139C32.7241 45.7221 31.8129 45.7227 31.2181 45.7164C31.4187 45.2478 31.591 44.8369 31.7356 44.4843L34.23 44.4818C34.4526 43.9492 34.6444 43.4404 34.8041 42.9548C33.9119 42.9291 33.0718 42.9191 32.2845 42.926C32.4562 42.4442 32.6059 42.005 32.7341 41.6079C33.3849 41.5941 34.291 41.6085 35.4499 41.6506C35.5776 41.0069 35.6769 40.3068 35.7467 39.5508V39.5515Z" fill="#1C1514"/>
<path d="M42.7648 40.8614C42.6321 41.8727 42.5069 42.9172 42.224 43.6926C41.9404 44.4699 41.5795 45.4241 40.9664 46.453C40.6532 46.9956 40.2118 47.3313 39.583 47.6449C39.0158 47.9279 38.4971 48.1054 38.0148 48.1079L33.0963 48.1236C33.8723 47.0264 34.6161 45.5264 35.3279 43.6261C36.0542 41.697 36.4447 40.1387 36.5019 38.9473L41.3613 38.9649C41.8366 38.9605 42.2076 39.1412 42.4736 39.5082C42.7396 39.8752 42.8371 40.3256 42.7648 40.8607V40.8614ZM42.4372 41.0847C42.4963 40.633 42.4177 40.2579 42.2007 39.9592C41.9838 39.6606 41.6876 39.5107 41.3135 39.5088L36.9559 39.4856C36.827 40.6713 36.4503 42.0985 35.824 43.7704C35.2154 45.3802 34.569 46.7265 33.8848 47.808L38.2789 47.7855C38.6581 47.7911 39.063 47.6518 39.4944 47.367C39.9245 47.0828 40.2753 46.7158 40.5457 46.2654C41.1349 45.2754 41.565 44.4103 41.8354 43.6675C42.1058 42.926 42.3064 42.0653 42.4372 41.0847ZM40.1496 42.3978C40.0156 43.1794 39.7327 43.9617 39.3007 44.7459C38.9668 45.3639 38.5518 45.67 38.0569 45.6637C37.8161 45.6637 37.4583 45.6612 36.9842 45.655C37.447 44.7986 37.7683 44.1343 37.9475 43.6612C38.1619 43.1054 38.3455 42.4134 38.4983 41.586C38.731 41.586 39.0944 41.5803 39.5887 41.5659C39.7918 41.559 39.9465 41.633 40.0515 41.7886C40.1565 41.9442 40.1898 42.1468 40.1502 42.3971L40.1496 42.3978ZM39.5566 42.4762C39.6164 42.1424 39.5277 41.9523 39.2919 41.9065C39.1561 41.8758 39.1315 41.8664 38.8913 41.8733C38.6493 42.9291 38.5084 43.8407 37.9481 44.9473H38.2625C38.5977 44.9473 38.7719 44.766 39.075 44.0722C39.3001 43.5546 39.4604 43.0226 39.5566 42.4762Z" fill="#1C1514"/>
<path d="M52.9765 38.5483C54.4441 41.8921 55.6728 45.4881 56.4349 49.4642C57.4517 54.7685 57.7434 59.4969 57.0008 63.5169L50.2683 63.8231C50.2928 62.7334 50.3701 61.8545 50.5003 61.1882C49.4571 61.2353 48.6478 61.2616 48.0744 61.266L45.9962 61.3833C45.6648 61.9611 45.2165 62.8877 44.6128 64.1437L37.1471 64.4843C39.1957 60.3745 40.896 55.9504 42.2523 51.1964C43.6162 46.4147 44.3676 42.1989 44.4996 38.5477H52.9759L52.9765 38.5483ZM52.271 40.2522L45.6661 40.2622C45.5491 43.3626 44.8266 47.239 43.5036 51.8865C42.202 56.4015 40.7331 60.3087 39.0913 63.6242L43.7991 63.3952C44.1513 62.8287 44.6392 61.9203 45.2636 60.6675L51.7202 60.3883C51.7371 60.734 51.6931 61.1738 51.5887 61.707C51.4793 62.3011 51.4177 62.7403 51.4051 63.0245L55.9086 62.8055C56.5085 59.5621 56.3513 55.5552 55.4219 50.7397C54.6655 46.8187 53.6166 43.3206 52.2697 40.2522H52.271ZM49.6998 45.8319C50.3154 47.6424 50.7996 49.4322 51.1536 51.2026C51.5271 53.0684 51.7038 54.7083 51.6868 56.1286L46.8746 56.2942C48.2976 52.852 49.1767 49.3695 49.5106 45.8344L49.6998 45.8319ZM49.6439 50.2798C49.3886 51.687 48.9886 52.7967 48.3863 54.6085L50.2727 54.5458C50.1827 52.6888 50.1085 51.5972 49.6439 50.2798Z" fill="#1C1514"/>
<path d="M84.165 43.7553C84.3568 45.8319 84.3247 47.8582 84.0393 49.527C83.657 51.9015 82.9879 53.3432 81.7756 54.1067C82.1592 55.0929 82.3843 56.0251 82.5301 56.9925C82.7716 58.5929 82.9074 60.3802 82.5301 62.2622L76.3515 62.6719C76.3446 60.9599 76.2528 59.5571 76.0768 58.4661C75.8875 57.293 75.8755 56.7848 75.4247 55.9881C75.0493 58.4354 74.5331 60.3984 73.7269 62.8262L67.017 63.143C68.0256 60.335 68.7204 56.5935 69.1015 51.889C69.4869 47.1355 69.4379 42.756 68.9493 38.7503L79.9319 38.7378C80.9984 38.7196 81.951 39.1405 82.7188 40.1161C83.4822 41.086 84.0525 42.3294 84.165 43.7547V43.7553ZM83.4017 44.3714C83.3048 43.1694 82.9433 42.1763 82.3164 41.3921C81.6863 40.6041 80.9569 40.2095 80.1288 40.2108C78.8837 40.2334 75.6536 40.2484 70.3534 40.2566C70.7672 43.6474 70.7848 47.5703 70.4119 52.0195C70.0522 56.4856 69.4454 59.8808 68.589 62.2334L73.0491 62.0163C73.7684 59.8513 74.3054 57.3432 74.6601 54.4843C74.833 54.4592 75.1845 54.4373 75.7121 54.4203C76.4943 55.4015 77.013 56.6995 77.2709 58.3131C77.4255 59.2817 77.5079 60.4442 77.5186 61.7986L81.741 61.5929C81.9271 60.3727 81.929 59.1575 81.7448 57.9461C81.5542 56.6913 81.1172 55.3124 80.4325 53.8062C81.9202 53.4849 82.8251 52.2811 83.1539 50.1863C83.4828 48.1832 83.5658 46.2453 83.4023 44.3708L83.4017 44.3714ZM79.1805 47.6713C79.1227 48.8839 78.6398 49.4988 77.7286 49.5188C76.9609 49.5358 76.0177 49.5527 74.8971 49.5684C74.9933 48.67 75.0927 47.4392 75.1958 45.8739C76.3817 45.8149 77.3331 45.7811 78.0525 45.771C78.3235 45.7673 78.5649 45.8814 78.7756 46.1117C78.9862 46.3425 79.1195 46.6393 79.1755 47.0031C79.1912 47.1048 79.1925 47.3275 79.1805 47.6713ZM77.9726 47.436C77.9795 47.2748 77.9757 47.1443 77.96 47.0433C77.916 46.7622 77.8154 46.6223 77.6569 46.6248C77.1023 46.6336 76.4767 46.6537 75.7793 46.6844C75.7297 47.192 75.6844 47.6681 75.6435 48.1129C76.3258 48.1004 76.9571 48.0885 77.5387 48.0772C77.8097 48.0521 77.9537 47.8388 77.9726 47.4354V47.436Z" fill="#1C1514"/>
<path d="M98.4388 43.5044C98.4828 48.5402 98.0408 53.1625 96.9297 57.7453C96.599 59.1455 95.8463 60.2566 94.9804 61.0075C94.2196 61.6801 93.2569 61.9586 92.2753 62.0088L85.4553 62.3551C84.0431 62.4266 83.2181 61.6939 82.9854 60.1493C82.8672 59.3645 82.9225 58.4448 83.152 57.3902C83.557 55.5307 83.8984 53.4423 84.1776 51.1211C84.5021 48.4517 84.6316 46.2284 84.5624 44.4542C84.4996 42.9329 84.7002 41.6656 85.1648 40.6568C85.7333 39.3852 86.6161 38.7497 87.8096 38.7522L95.0156 38.7647C95.879 38.7465 96.5964 39.0489 97.1693 39.6694C97.7396 40.2873 98.2382 41.1192 98.376 42.2497C98.4137 42.5615 98.4401 43.1543 98.4388 43.5044ZM97.7283 43.776C97.722 43.4856 97.7025 43.2045 97.6692 42.9329C97.4453 41.1041 96.6147 40.1863 95.1728 40.1882L87.9856 40.1989C86.3772 40.2014 85.6201 41.6675 85.7232 44.579C85.7811 46.4021 85.6434 48.6826 85.3114 51.4141C85.0372 53.7792 84.6932 55.9034 84.2776 57.7905C84.0714 58.6844 84.0116 59.426 84.0996 60.0163C84.2575 61.0797 84.8309 61.5853 85.8163 61.537L92.6325 61.2026C94.4592 61.1129 95.6275 59.9862 96.15 57.8143C97.2322 53.3545 97.761 48.6826 97.7283 43.7748V43.776ZM93.4927 47.6913C93.5883 49.6838 93.3814 51.6826 92.8733 53.6913C92.4835 55.2327 91.8578 56.0088 90.9938 56.0213C90.7851 56.0289 90.5543 56.0376 90.3003 56.0471C89.6721 56.0703 89.3124 55.7578 89.2219 55.1079C89.1741 54.7635 89.1967 54.3294 89.2904 53.8055C89.7161 51.744 89.9324 49.7867 89.9374 47.9322C89.9349 47.2472 90.0645 46.6913 90.3254 46.2647C90.5864 45.8388 90.9203 45.623 91.3277 45.6173C91.4032 45.6161 91.688 45.6029 92.181 45.5759C92.5859 45.5703 92.8947 45.7522 93.1079 46.1198C93.3204 46.4875 93.448 47.0107 93.4921 47.6901L93.4927 47.6913ZM91.8364 46.5157C91.7314 46.5176 91.5755 46.5031 91.3963 46.5157C91.2171 46.5282 90.7002 46.8149 90.7046 47.5195C90.6964 49.4705 90.5191 51.5107 90.0758 53.6675C90.0267 53.862 89.8871 54.5458 90.8932 54.5458C91.2982 54.5458 91.5824 54.1838 91.8289 53.2359C92.0213 52.4423 92.1816 51.5132 92.3093 50.4486C92.4935 49.128 92.5382 48.1085 92.4438 47.3902C92.3564 46.729 92.1672 46.5113 91.837 46.5163L91.8364 46.5157Z" fill="#1C1514"/>
<path d="M109.362 38.7892C110.305 41.7434 110.952 44.9831 111.309 48.5057C111.786 53.2133 111.713 57.3099 110.889 60.8821L105.854 61.1556C105.939 60.1876 106.053 59.4072 106.196 58.8162C105.378 58.8532 104.746 58.8727 104.298 58.8739L102.527 58.9373C102.233 59.4479 101.879 60.335 101.332 61.4467L95.5979 61.6725C97.4434 58.0433 99.0374 54.1349 100.384 49.936C101.737 45.7152 102.578 41.9962 102.904 38.7785L109.362 38.7898L109.362 38.7892ZM109 40.1675L103.858 40.175C103.578 42.9097 102.78 46.3306 101.467 50.4348C100.177 54.4241 98.7941 57.8777 97.3139 60.8068L100.989 60.628C101.298 60.1274 101.734 59.3237 102.298 58.2164L107.351 57.9981C107.344 58.3055 107.283 58.6957 107.169 59.1688C107.047 59.6964 106.973 60.086 106.946 60.3388L110.482 60.1669C111.148 57.2861 111.266 53.7259 110.829 49.4511C110.473 45.9762 109.865 42.8802 109 40.1681V40.1675ZM106.659 45.0954C107.029 46.697 107.298 48.2817 107.467 49.8501C107.645 51.5038 107.684 52.958 107.585 54.2177L103.821 54.3469C105.14 51.303 106.037 48.2227 106.512 45.0972L106.66 45.0954H106.659ZM106.208 48.6989C105.924 49.9442 105.491 51.3683 104.912 52.9705L106.566 52.9185C106.609 51.2729 106.49 49.8658 106.208 48.6982V48.6989Z" fill="#1C1514"/>
<path d="M126.329 43.3168C126.398 45.7415 126.298 47.8701 126.033 49.7095C125.767 51.542 125.252 53.6631 124.489 56.0722C124.107 57.3356 123.507 58.3789 122.688 59.2052C121.867 60.0333 121.032 60.4686 120.183 60.5119L111.375 60.931C112.379 58.3312 113.182 54.771 113.788 50.2215C114.419 45.5339 114.432 41.6983 114.097 38.7365L123.209 38.7296C124.07 38.7133 124.798 39.1531 125.392 40.0458C125.983 40.9341 126.295 42.0245 126.329 43.3162V43.3168ZM125.812 43.8614C125.779 42.7717 125.523 41.867 125.041 41.1468C124.557 40.4241 123.974 40.0615 123.297 40.0621L115.281 40.0728C115.473 43.0013 115.295 46.4931 114.751 50.5402C114.222 54.389 113.535 57.5828 112.689 60.1387L120.544 59.7547C121.215 59.7397 121.883 59.3921 122.551 58.7121C123.217 58.0333 123.719 57.17 124.054 56.1198C124.786 53.8011 125.278 51.766 125.53 50.0157C125.783 48.2585 125.877 46.2089 125.812 43.8607V43.8614ZM122.128 47.0797C122.14 48.9448 121.887 50.8074 121.369 52.6706C120.974 54.1318 120.336 54.8689 119.45 54.8833C119.019 54.899 118.377 54.9141 117.521 54.9279C118.061 52.8934 118.413 51.3099 118.576 50.1813C118.774 48.8488 118.871 47.1851 118.867 45.1851C119.291 45.1794 119.949 45.1525 120.842 45.1035C121.208 45.0803 121.511 45.2547 121.752 45.6255C121.992 45.9956 122.117 46.4806 122.128 47.0803V47.0797ZM120.95 47.2685C120.947 46.4674 120.701 46.2422 120.258 46.1393C120.002 46.0703 119.812 46.1148 119.378 46.1393C119.297 48.6819 118.947 50.9962 118.313 53.6324L119.375 53.5966C119.944 53.4793 120.32 52.7409 120.636 51.0954C120.869 49.8626 120.956 48.5759 120.95 47.2685Z" fill="#1C1514"/>
<defs>
<linearGradient id="paint0_linear_1568_311" x1="47.3236" y1="25.2472" x2="47.3236" y2="64.3777" gradientUnits="userSpaceOnUse">
<stop offset="0.34" stop-color="#E6E83C"/>
<stop offset="0.86" stop-color="#EF381F"/>
</linearGradient>
<linearGradient id="paint1_linear_1568_311" x1="75.7825" y1="25.756" x2="75.7825" y2="64.6343" gradientUnits="userSpaceOnUse">
<stop offset="0.34" stop-color="#E6E83C"/>
<stop offset="0.86" stop-color="#EF381F"/>
</linearGradient>
<linearGradient id="paint2_linear_1568_311" x1="90.7838" y1="26.4279" x2="90.7838" y2="64.633" gradientUnits="userSpaceOnUse">
<stop offset="0.33" stop-color="#E6E83C"/>
<stop offset="0.88" stop-color="#EF381F"/>
</linearGradient>
<linearGradient id="paint3_linear_1568_311" x1="103.687" y1="26.9116" x2="103.687" y2="64.3745" gradientUnits="userSpaceOnUse">
<stop offset="0.31" stop-color="#E6E83C"/>
<stop offset="0.88" stop-color="#EF381F"/>
</linearGradient>
<linearGradient id="paint4_linear_1568_311" x1="118.785" y1="27.3821" x2="118.785" y2="63.3438" gradientUnits="userSpaceOnUse">
<stop offset="0.32" stop-color="#E6E83C"/>
<stop offset="0.91" stop-color="#EF381F"/>
</linearGradient>
<linearGradient id="paint5_linear_1568_311" x1="25.2149" y1="37.6468" x2="25.2149" y2="2.52573" gradientUnits="userSpaceOnUse">
<stop offset="0.18" stop-color="#E6E83C"/>
<stop offset="0.7" stop-color="#EF381F"/>
</linearGradient>
<linearGradient id="paint6_linear_1568_311" x1="49.8929" y1="37.3789" x2="49.8929" y2="5.22962" gradientUnits="userSpaceOnUse">
<stop offset="0.2" stop-color="#E6E83C"/>
<stop offset="0.74" stop-color="#EF381F"/>
</linearGradient>
<linearGradient id="paint7_linear_1568_311" x1="75.2511" y1="37.3149" x2="75.2511" y2="7.76474" gradientUnits="userSpaceOnUse">
<stop offset="0.21" stop-color="#E6E83C"/>
<stop offset="0.73" stop-color="#EF381F"/>
</linearGradient>
<linearGradient id="paint8_linear_1568_311" x1="90.1537" y1="37.4109" x2="90.1537" y2="9.6167" gradientUnits="userSpaceOnUse">
<stop offset="0.22" stop-color="#E6E83C"/>
<stop offset="0.74" stop-color="#EF381F"/>
</linearGradient>
<linearGradient id="paint9_linear_1568_311" x1="103.902" y1="37.1939" x2="103.902" y2="10.6888" gradientUnits="userSpaceOnUse">
<stop offset="0.22" stop-color="#E6E83C"/>
<stop offset="0.73" stop-color="#EF381F"/>
</linearGradient>
<linearGradient id="paint10_linear_1568_311" x1="113.346" y1="28.6656" x2="113.346" y2="11.9906" gradientUnits="userSpaceOnUse">
<stop stop-color="#E6E83C"/>
<stop offset="0.65" stop-color="#EF381F"/>
</linearGradient>
<linearGradient id="paint11_linear_1568_311" x1="121.197" y1="37.1763" x2="121.197" y2="12.5389" gradientUnits="userSpaceOnUse">
<stop offset="0.31" stop-color="#E6E83C"/>
<stop offset="0.75" stop-color="#EF381F"/>
</linearGradient>
<linearGradient id="paint12_linear_1568_311" x1="17.4807" y1="26.3942" x2="17.4807" y2="64.4413" gradientUnits="userSpaceOnUse">
<stop offset="0.27" stop-color="#E6E83C"/>
<stop offset="0.59" stop-color="#EF381F"/>
</linearGradient>
<linearGradient id="paint13_linear_1568_311" x1="25.1156" y1="25.8156" x2="25.1156" y2="64.1826" gradientUnits="userSpaceOnUse">
<stop offset="0.28" stop-color="#E6E83C"/>
<stop offset="0.61" stop-color="#EF381F"/>
</linearGradient>
<linearGradient id="paint14_linear_1568_311" x1="31.4973" y1="25.8156" x2="31.4973" y2="63.8789" gradientUnits="userSpaceOnUse">
<stop offset="0.28" stop-color="#E6E83C"/>
<stop offset="0.62" stop-color="#EF381F"/>
</linearGradient>
<linearGradient id="paint15_linear_1568_311" x1="38.5606" y1="25.6788" x2="37.7451" y2="64.8263" gradientUnits="userSpaceOnUse">
<stop offset="0.26" stop-color="#E6E83C"/>
<stop offset="0.59" stop-color="#EF381F"/>
</linearGradient>
</defs>
</svg>
